SplineFontDB: 3.0
FontName: MonofurBold
FullName: monofur bold
FamilyName: monofur
Weight: Bold
Copyright: monofur (c) 2000 tobias b ko:hler (unci@tigerden.com)
Version: 1.0 2000-03-28
ItalicAngle: 0
UnderlinePosition: -300
UnderlineWidth: 150
Ascent: 1920
Descent: 480
InvalidEm: 0
sfntRevision: 0x00010000
LayerCount: 2
Layer: 0 1 "Back" 1
Layer: 1 1 "Fore" 0
XUID: [1021 556 844986517 28543]
StyleMap: 0x0040
FSType: 0
OS2Version: 0
OS2_WeightWidthSlopeOnly: 0
OS2_UseTypoMetrics: 0
CreationTime: 957547416
ModificationTime: 1553225489
PfmFamily: 17
TTFWeight: 400
TTFWidth: 5
LineGap: 0
VLineGap: 0
Panose: 2 15 4 9 2 2 3 2 2 4
OS2TypoAscent: 1952
OS2TypoAOffset: 0
OS2TypoDescent: -452
OS2TypoDOffset: 0
OS2TypoLinegap: 0
OS2WinAscent: 1952
OS2WinAOffset: 0
OS2WinDescent: 452
OS2WinDOffset: 0
HheadAscent: 1952
HheadAOffset: 0
HheadDescent: -452
HheadDOffset: 0
OS2SubXSize: 1680
OS2SubYSize: 1560
OS2SubXOff: 0
OS2SubYOff: 343
OS2SupXSize: 1680
OS2SupYSize: 1560
OS2SupXOff: 0
OS2SupYOff: 1088
OS2StrikeYSize: 120
OS2StrikeYPos: 621
OS2Vendor: 'unci'
OS2UnicodeRanges: 00000000.00000000.00000000.00000000
MarkAttachClasses: 1
DEI: 91125
TtTable: prep
NPUSHB
 51
 28
 28
 27
 27
 26
 26
 25
 25
 24
 24
 23
 23
 22
 22
 21
 21
 20
 20
 19
 19
 18
 18
 17
 17
 16
 16
 15
 15
 14
 14
 13
 13
 12
 12
 11
 11
 10
 10
 9
 9
 8
 8
 3
 3
 2
 2
 1
 1
 0
 0
 1
SCANTYPE
PUSHW_1
 511
SCANCTRL
RCVT
ROUND[Grey]
WCVTP
RCVT
ROUND[Grey]
WCVTP
RCVT
ROUND[Grey]
WCVTP
RCVT
ROUND[Grey]
WCVTP
RCVT
ROUND[Grey]
WCVTP
RCVT
ROUND[Grey]
WCVTP
RCVT
ROUND[Grey]
WCVTP
RCVT
ROUND[Grey]
WCVTP
RCVT
ROUND[Grey]
WCVTP
RCVT
ROUND[Grey]
WCVTP
RCVT
ROUND[Grey]
WCVTP
RCVT
ROUND[Grey]
WCVTP
RCVT
ROUND[Grey]
WCVTP
RCVT
ROUND[Grey]
WCVTP
RCVT
ROUND[Grey]
WCVTP
RCVT
ROUND[Grey]
WCVTP
RCVT
ROUND[Grey]
WCVTP
RCVT
ROUND[Grey]
WCVTP
RCVT
ROUND[Grey]
WCVTP
RCVT
ROUND[Grey]
WCVTP
RCVT
ROUND[Grey]
WCVTP
RCVT
ROUND[Grey]
WCVTP
RCVT
ROUND[Grey]
WCVTP
RCVT
ROUND[Grey]
WCVTP
RCVT
ROUND[Grey]
WCVTP
PUSHB_4
 5
 4
 70
 0
CALL
PUSHB_4

StartChar: .notdef
Encoding: 65536 -1 0
Width: 1200
Flags: W
LayerCount: 2
Fore
SplineSet
100 0 m 2,0,-1
 100 1950 l 2,1,2
 100 1971 100 1971 116 1985.5 c 128,-1,3
 132 2000 132 2000 150 2000 c 2,4,-1
 1050 2000 l 2,5,6
 1071 2000 1071 2000 1085.5 1984 c 128,-1,7
 1100 1968 1100 1968 1100 1950 c 2,8,-1
 1100 0 l 2,9,10
 1100 -21 1100 -21 1084 -35.5 c 128,-1,11
 1068 -50 1068 -50 1050 -50 c 2,12,-1
 150 -50 l 2,13,14
 129 -50 129 -50 114.5 -34 c 128,-1,15
 100 -18 100 -18 100 0 c 2,0,-1
350 200 m 1,16,-1
 850 200 l 1,17,-1
 850 1750 l 1,18,-1
 350 1750 l 1,19,-1
 350 200 l 1,16,-1
EndSplineSet
EndChar

StartChar: exclam
Encoding: 33 33 4
Width: 1200
Flags: W
LayerCount: 2
Fore
SplineSet
725 450 m 2,0,1
 725 395 725 395 690 360 c 128,-1,2
 655 325 655 325 600 325 c 128,-1,3
 545 325 545 325 510 360 c 128,-1,4
 475 395 475 395 475 450 c 2,5,-1
 475 1425 l 2,6,7
 475 1480 475 1480 510 1515 c 128,-1,8
 545 1550 545 1550 600 1550 c 128,-1,9
 655 1550 655 1550 690 1515 c 128,-1,10
 725 1480 725 1480 725 1425 c 2,11,-1
 725 450 l 2,0,1
764 114 m 0,12,13
 764 46.2893218813 764 46.2893218813 715.855339059 -1.85533905933 c 128,-1,14
 667.710678119 -50 667.710678119 -50 600 -50 c 128,-1,15
 532.289321881 -50 532.289321881 -50 484.144660941 -1.85533905933 c 128,-1,16
 436 46.2893218813 436 46.2893218813 436 114 c 0,17,18
 436 182.384533641 436 182.384533641 484.963380285 229.155523764 c 0,19,20
 532.956816344 275 532.956816344 275 600 275 c 128,-1,21
 667.043183656 275 667.043183656 275 715.036619715 229.155523764 c 0,22,23
 764 182.384533641 764 182.384533641 764 114 c 0,12,13
EndSplineSet
EndChar

StartChar: quotedbl
Encoding: 34 34 5
Width: 1200
Flags: W
LayerCount: 2
Fore
SplineSet
988 1428 m 0,0,1
 988 1403.93327091 988 1403.93327091 978.625653462 1378.93501348 c 2,2,-1
 828.457232878 1003.51396202 l 2,3,4
 814.199190163 967.493643579 814.199190163 967.493643579 783.844552486 945.74682179 c 128,-1,5
 753.489914809 924 753.489914809 924 715 924 c 0,6,7
 664.578566006 924 664.578566006 924 626.749326896 958.609729398 c 0,8,9
 587 994.976134857 587 994.976134857 587 1047 c 0,10,11
 587 1071.06672909 587 1071.06672909 596.374346538 1096.06498652 c 2,12,-1
 746.542767122 1471.48603798 l 2,13,14
 760.800809837 1507.50635642 760.800809837 1507.50635642 791.155447514 1529.25317821 c 128,-1,15
 821.510085191 1551 821.510085191 1551 860 1551 c 0,16,17
 910.421433994 1551 910.421433994 1551 948.250673104 1516.3902706 c 0,18,19
 988 1480.02386514 988 1480.02386514 988 1428 c 0,0,1
613 1428 m 0,20,21
 613 1403.93327091 613 1403.93327091 603.625653462 1378.93501348 c 2,22,-1
 453.457232878 1003.51396202 l 2,23,24
 439.199190163 967.493643579 439.199190163 967.493643579 408.844552486 945.74682179 c 128,-1,25
 378.489914809 924 378.489914809 924 340 924 c 0,26,27
 289.578566006 924 289.578566006 924 251.749326896 958.609729398 c 0,28,29
 212 994.976134857 212 994.976134857 212 1047 c 0,30,31
 212 1071.06672909 212 1071.06672909 221.374346538 1096.06498652 c 2,32,-1
 371.542767122 1471.48603798 l 2,33,34
 385.800809837 1507.50635642 385.800809837 1507.50635642 416.155447514 1529.25317821 c 128,-1,35
 446.510085191 1551 446.510085191 1551 485 1551 c 0,36,37
 535.421433994 1551 535.421433994 1551 573.250673104 1516.3902706 c 0,38,39
 613 1480.02386514 613 1480.02386514 613 1428 c 0,20,21
EndSplineSet
EndChar

StartChar: numbersign
Encoding: 35 35 6
Width: 1200
Flags: W
LayerCount: 2
Fore
SplineSet
1175 375 m 128,-1,1
 1175 320 1175 320 1140 285 c 128,-1,2
 1105 250 1105 250 1050 250 c 2,3,-1
 975 250 l 1,4,-1
 975 75 l 2,5,6
 975 20 975 20 940 -15 c 128,-1,7
 905 -50 905 -50 850 -50 c 128,-1,8
 795 -50 795 -50 760 -15 c 128,-1,9
 725 20 725 20 725 75 c 2,10,-1
 725 250 l 1,11,-1
 475 250 l 1,12,-1
 475 75 l 2,13,14
 475 20 475 20 440 -15 c 128,-1,15
 405 -50 405 -50 350 -50 c 128,-1,16
 295 -50 295 -50 260 -15 c 128,-1,17
 225 20 225 20 225 75 c 2,18,-1
 225 250 l 1,19,-1
 150 250 l 2,20,21
 95 250 95 250 60 285 c 128,-1,22
 25 320 25 320 25 375 c 128,-1,23
 25 430 25 430 60 465 c 128,-1,24
 95 500 95 500 150 500 c 2,25,-1
 225 500 l 1,26,-1
 225 1000 l 1,27,-1
 150 1000 l 2,28,29
 95 1000 95 1000 60 1035 c 128,-1,30
 25 1070 25 1070 25 1125 c 128,-1,31
 25 1180 25 1180 60 1215 c 128,-1,32
 95 1250 95 1250 150 1250 c 2,33,-1
 225 1250 l 1,34,-1
 225 1425 l 2,35,36
 225 1480 225 1480 260 1515 c 128,-1,37
 295 1550 295 1550 350 1550 c 128,-1,38
 405 1550 405 1550 440 1515 c 128,-1,39
 475 1480 475 1480 475 1425 c 2,40,-1
 475 1250 l 1,41,-1
 725 1250 l 1,42,-1
 725 1425 l 2,43,44
 725 1480 725 1480 760 1515 c 128,-1,45
 795 1550 795 1550 850 1550 c 128,-1,46
 905 1550 905 1550 940 1515 c 128,-1,47
 975 1480 975 1480 975 1425 c 2,48,-1
 975 1250 l 1,49,-1
 1050 1250 l 2,50,51
 1105 1250 1105 1250 1140 1215 c 128,-1,52
 1175 1180 1175 1180 1175 1125 c 128,-1,53
 1175 1070 1175 1070 1140 1035 c 128,-1,54
 1105 1000 1105 1000 1050 1000 c 2,55,-1
 975 1000 l 1,56,-1
 975 500 l 1,57,-1
 1050 500 l 2,58,59
 1105 500 1105 500 1140 465 c 128,-1,0
 1175 430 1175 430 1175 375 c 128,-1,1
725 500 m 1,60,-1
 725 1000 l 1,61,-1
 475 1000 l 1,62,-1
 475 500 l 1,63,-1
 725 500 l 1,60,-1
EndSplineSet
EndChar

StartChar: dollar
Encoding: 36 36 7
Width: 1200
Flags: W
LayerCount: 2
Fore
SplineSet
1175 450 m 128,-1,1
 1175 242.403777807 1175 242.403777807 1003.86961246 101.472870421 c 0,2,3
 938.401544285 47.0766078933 938.401544285 47.0766078933 860.311908328 11.8462863373 c 128,-1,4
 782.222272371 -23.3840352186 782.222272371 -23.3840352186 693 -39.1717024393 c 1,5,-1
 693 -225 l 2,6,7
 693 -280 693 -280 658 -315 c 128,-1,8
 623 -350 623 -350 568 -350 c 128,-1,9
 513 -350 513 -350 478 -315 c 128,-1,10
 443 -280 443 -280 443 -225 c 2,11,-1
 443 -39.1136335651 l 1,12,13
 340.418868811 -20.7859838173 340.418868811 -20.7859838173 246.039430577 25.0806590628 c 0,14,15
 111.347382836 91.3226497549 111.347382836 91.3226497549 47.6145970988 191.474170199 c 0,16,17
 24 229.847890485 24 229.847890485 24 264 c 0,18,19
 24 315.350206319 24 315.350206319 62.9214250437 352.61540051 c 0,20,21
 100.923117844 389 100.923117844 389 152 389 c 0,22,23
 200.710678119 389 200.710678119 389 245.091589209 344.61908891 c 0,24,25
 268.123729203 319.584154134 268.123729203 319.584154134 289.850738647 294.944519185 c 0,26,27
 350.903380407 238.7894637 350.903380407 238.7894637 443 215.393789512 c 1,28,-1
 443 713.220948582 l 1,29,30
 299.943752042 743.890680883 299.943752042 743.890680883 195.477680485 833.022283221 c 0,31,32
 57 952.044421819 57 952.044421819 57 1125 c 128,-1,33
 57 1297.95557818 57 1297.95557818 195.477680485 1416.97771678 c 0,34,35
 299.943752043 1506.10931912 299.943752043 1506.10931912 443 1536.77905142 c 1,36,-1
 443 1725 l 2,37,38
 443 1780 443 1780 478 1815 c 128,-1,39
 513 1850 513 1850 568 1850 c 128,-1,40
 623 1850 623 1850 658 1815 c 128,-1,41
 693 1780 693 1780 693 1725 c 2,42,-1
 693 1537.39563124 l 1,43,44
 906.535428183 1495.62966386 906.535428183 1495.62966386 1002.51050461 1348.88128528 c 0,45,46
 1028 1310.75414091 1028 1310.75414091 1028 1275 c 0,47,48
 1028 1223.33839938 1028 1223.33839938 988.197056444 1186.02313979 c 0,49,50
 949.772373998 1150 949.772373998 1150 900 1150 c 0,51,52
 852.752679323 1150 852.752679323 1150 806.019255021 1195.27300479 c 0,53,54
 749.990894192 1250.71773686 749.990894192 1250.71773686 693 1276.43785747 c 1,55,-1
 693 939.171702439 l 1,56,57
 872.913213344 907.336490609 872.913213344 907.336490609 1003.86961246 798.527129579 c 0,58,0
 1175 657.596222193 1175 657.596222193 1175 450 c 128,-1,1
443 973.373829128 m 1,59,-1
 443 1276.62617087 l 1,60,61
 398.732068161 1260.2362302 398.732068161 1260.2362302 364.956432474 1233.73534682 c 0,62,63
 307 1187.8218094 307 1187.8218094 307 1125 c 128,-1,64
 307 1062.1781906 307 1062.1781906 364.956432474 1016.26465318 c 0,65,66
 398.732068161 989.763769799 398.732068161 989.763769799 443 973.373829128 c 1,59,-1
925 450 m 128,-1,68
 925 546.227688186 925 546.227688186 835.723908376 614.208565294 c 0,69,70
 774.72029789 660.624355881 774.72029789 660.624355881 693 682.611634097 c 1,71,-1
 693 217.388365903 l 1,72,73
 774.720307057 239.375646586 774.720307057 239.375646586 835.708836133 285.779962187 c 0,74,67
 925 353.772316324 925 353.772316324 925 450 c 128,-1,68
EndSplineSet
EndChar

StartChar: percent
Encoding: 37 37 8
Width: 1200
Flags: W
LayerCount: 2
Fore
SplineSet
675 1125 m 128,-1,1
 675 972.861715812 675 972.861715812 600.572519054 851.778202034 c 0,2,3
 555.397433194 778.58312621 555.397433194 778.58312621 491.553073499 739.291563105 c 128,-1,4
 427.708713803 700 427.708713803 700 350 700 c 128,-1,5
 272.300248346 700 272.300248346 700 208.450041508 739.293776482 c 128,-1,6
 144.599834669 778.587552963 144.599834669 778.587552963 99.4274809458 851.778202034 c 0,7,8
 25 972.861715812 25 972.861715812 25 1125 c 128,-1,9
 25 1277.13828419 25 1277.13828419 99.4274809458 1398.22179797 c 0,10,11
 144.602566806 1471.41687379 144.602566806 1471.41687379 208.446926501 1510.7084369 c 128,-1,12
 272.291286197 1550 272.291286197 1550 350 1550 c 128,-1,13
 427.699751654 1550 427.699751654 1550 491.549958492 1510.70622352 c 128,-1,14
 555.400165331 1471.41244704 555.400165331 1471.41244704 600.572519054 1398.22179797 c 0,15,0
 675 1277.13828419 675 1277.13828419 675 1125 c 128,-1,1
1176 1426 m 0,16,17
 1176 1388.86121811 1176 1388.86121811 1153.60251472 1355.26499019 c 2,18,-1
 253.508816429 5.12444275665 l 2,19,20
 215.542281623 -51 215.542281623 -51 152 -51 c 0,21,22
 102.227626002 -51 102.227626002 -51 63.8029435559 -14.976860207 c 0,23,24
 24 22.3383993767 24 22.3383993767 24 74 c 0,25,26
 24 111.138781887 24 111.138781887 46.3974852831 144.735009811 c 2,27,-1
 946.491183571 1494.87555724 l 2,28,29
 984.457718377 1551 984.457718377 1551 1048 1551 c 0,30,31
 1097.772374 1551 1097.772374 1551 1136.19705644 1514.97686021 c 0,32,33
 1176 1477.66160062 1176 1477.66160062 1176 1426 c 0,16,17
1175 375 m 128,-1,35
 1175 222.861715812 1175 222.861715812 1100.57251905 101.778202034 c 0,36,37
 1055.39743319 28.5831262099 1055.39743319 28.5831262099 991.553073499 -10.708436895 c 128,-1,38
 927.708713803 -50 927.708713803 -50 850 -50 c 128,-1,39
 772.300248346 -50 772.300248346 -50 708.450041508 -10.7062235184 c 128,-1,40
 644.599834669 28.5875529631 644.599834669 28.5875529631 599.427480946 101.778202034 c 0,41,42
 525 222.861715812 525 222.861715812 525 375 c 128,-1,43
 525 527.138284188 525 527.138284188 599.427480946 648.221797966 c 0,44,45
 644.602566806 721.41687379 644.602566806 721.41687379 708.446926501 760.708436895 c 128,-1,46
 772.291286197 800 772.291286197 800 850 800 c 128,-1,47
 927.699751654 800 927.699751654 800 991.549958492 760.706223518 c 128,-1,48
 1055.40016533 721.412447037 1055.40016533 721.412447037 1100.57251905 648.221797966 c 0,49,34
 1175 527.138284188 1175 527.138284188 1175 375 c 128,-1,35
425 1125 m 128,-1,51
 425 1249.56489284 425 1249.56489284 362.532851224 1293.89341917 c 0,52,53
 354.027370344 1299.58097477 354.027370344 1299.58097477 349.968705416 1299.99939383 c 0,54,55
 344.324013088 1299.7202607 344.324013088 1299.7202607 332.511783548 1290.17961376 c 0,56,57
 275 1243.26210613 275 1243.26210613 275 1125 c 128,-1,58
 275 1006.73789387 275 1006.73789387 332.511783548 959.820386238 c 0,59,60
 337.627025 955.688845066 337.627025 955.688845066 341.991255467 953.233900048 c 128,-1,61
 346.355485934 950.778955029 346.355485934 950.778955029 348.162095675 950.389780597 c 2,62,-1
 349.968705416 950.000606165 l 2,63,64
 354.027370344 950.41902523 354.027370344 950.41902523 362.532851224 956.106580834 c 0,65,50
 425 1000.43510716 425 1000.43510716 425 1125 c 128,-1,51
925 375 m 128,-1,67
 925 493.26210613 925 493.26210613 867.488216452 540.179613762 c 0,68,69
 862.372975 544.311154934 862.372975 544.311154934 858.008744533 546.766099952 c 128,-1,70
 853.644514066 549.221044971 853.644514066 549.221044971 851.837904325 549.610219403 c 2,71,-1
 850.031294584 549.999393835 l 2,72,73
 845.972629656 549.58097477 845.972629656 549.58097477 837.467148776 543.893419166 c 0,74,75
 775 499.564892843 775 499.564892843 775 375 c 128,-1,76
 775 250.435107157 775 250.435107157 837.467148776 206.106580834 c 0,77,78
 845.972629656 200.41902523 845.972629656 200.41902523 850.031294584 200.000606165 c 0,79,80
 855.675986912 200.279739303 855.675986912 200.279739303 867.488216452 209.820386238 c 0,81,66
 925 256.73789387 925 256.73789387 925 375 c 128,-1,67
EndSplineSet
EndChar

StartChar: ampersand
Encoding: 38 38 9
Width: 1200
Flags: W
LayerCount: 2
Fore
SplineSet
1176 75 m 0,0,1
 1176 23.9736891598 1176 23.9736891598 1137.47315238 -13.7334382997 c 0,2,3
 1099.39644803 -51 1099.39644803 -51 1049 -51 c 0,4,5
 996.108438412 -51 996.108438412 -51 957.040857057 -8.6767868656 c 2,6,-1
 838.548801594 123.062827593 l 1,7,8
 706.094103465 -50 706.094103465 -50 488 -50 c 0,9,10
 287.218475417 -50 287.218475417 -50 152.285095391 105.173387029 c 0,11,12
 25 251.27454 25 251.27454 25 450 c 0,13,14
 25 695.044600535 25 695.044600535 197.164800003 840.175742728 c 1,15,16
 93 976.413836788 93 976.413836788 93 1125 c 0,17,18
 93 1293.75 93 1293.75 201.380260997 1417.93571573 c 0,19,20
 317.367154142 1550 317.367154142 1550 488 1550 c 0,21,22
 657.632845858 1550 657.632845858 1550 773.619739003 1417.93571573 c 0,23,24
 882 1293.75 882 1293.75 882 1125 c 0,25,26
 882 974.417338518 882 974.417338518 793.002020065 855.002327465 c 0,27,28
 726.287218204 766.585120179 726.287218204 766.585120179 630.989841219 727.63196615 c 1,29,-1
 1143.45166135 158.129342718 l 2,30,31
 1176 120.698753271 1176 120.698753271 1176 75 c 0,0,1
632 1125 m 128,-1,33
 632 1194.46513244 632 1194.46513244 590.751287209 1248.020869 c 0,34,35
 548.659768504 1300 548.659768504 1300 488 1300 c 0,36,37
 426.342391674 1300 426.342391674 1300 384.248330242 1248.02037232 c 0,38,39
 343 1194.46513244 343 1194.46513244 343 1125 c 0,40,41
 343 1067.94877181 343 1067.94877181 369.97018532 1023.2099938 c 0,42,43
 383.782545107 1003.45110804 383.782545107 1003.45110804 434.129843273 946.657816363 c 1,44,45
 461.090801851 950 461.090801851 950 488 950 c 0,46,47
 548.659768504 950 548.659768504 950 590.751287209 1001.979131 c 0,48,32
 632 1055.53486756 632 1055.53486756 632 1125 c 128,-1,33
666.922055214 314.872358905 m 1,49,-1
 362.691807457 652.525084584 l 1,50,51
 275 583.903242105 275 583.903242105 275 450 c 0,52,53
 275 350.848168909 275 350.848168909 335.871826134 276.4492703 c 0,54,55
 397.031242374 200 397.031242374 200 488 200 c 0,56,57
 550.25448886 200 550.25448886 200 593.188067923 227.394990773 c 128,-1,58
 636.121646985 254.789981546 636.121646985 254.789981546 666.922055214 314.872358905 c 1,49,-1
EndSplineSet
EndChar

StartChar: quotesingle
Encoding: 39 39 10
Width: 1200
Flags: W
LayerCount: 2
Fore
SplineSet
801 1428 m 0,0,1
 801 1403.93327091 801 1403.93327091 791.625653462 1378.93501348 c 2,2,-1
 641.457232878 1003.51396202 l 2,3,4
 627.126566921 967.310174336 627.126566921 967.310174336 596.448753757 945.655087168 c 128,-1,5
 565.770940593 924 565.770940593 924 527 924 c 0,6,7
 477.879332625 924 477.879332625 924 439.637583921 958.258233214 c 0,8,9
 399 994.662735476 399 994.662735476 399 1047 c 0,10,11
 399 1071.06672909 399 1071.06672909 408.374346538 1096.06498652 c 2,12,-1
 558.542767122 1471.48603798 l 2,13,14
 572.873433079 1507.68982566 572.873433079 1507.68982566 603.551246243 1529.34491283 c 128,-1,15
 634.229059407 1551 634.229059407 1551 673 1551 c 0,16,17
 722.120667375 1551 722.120667375 1551 760.362416079 1516.74176679 c 0,18,19
 801 1480.33726452 801 1480.33726452 801 1428 c 0,0,1
EndSplineSet
EndChar

StartChar: parenleft
Encoding: 40 40 11
Width: 1200
Flags: W
LayerCount: 2
Fore
SplineSet
846 1426 m 0,0,1
 846 1397.19660113 846 1397.19660113 829.664893547 1364.52638822 c 0,2,3
 711.772981648 1131.68986222 711.772981648 1131.68986222 662.094322476 957.327509438 c 0,4,5
 605 756.045830201 605 756.045830201 605 525 c 128,-1,6
 605 293.954169799 605 293.954169799 662.094322476 92.6724905622 c 0,7,8
 711.761185376 -81.6484596174 711.761185376 -81.6484596174 829.645817575 -313.488236275 c 0,9,10
 846 -346.196601125 846 -346.196601125 846 -376 c 0,11,12
 846 -427.995085817 846 -427.995085817 805.786231426 -464.85770701 c 0,13,14
 767.449184528 -500 767.449184528 -500 718 -500 c 0,15,16
 647.549224099 -500 647.549224099 -500 591.798705877 -406.175957138 c 0,17,18
 582.571131153 -390.027701372 582.571131153 -390.027701372 538.692603913 -296.148061695 c 0,19,20
 355 97.9187534031 355 97.9187534031 355 525 c 128,-1,21
 355 952.081246597 355 952.081246597 538.692603913 1346.1480617 c 0,22,23
 582.261794031 1439.36586381 582.261794031 1439.36586381 590.882352941 1455.52941176 c 0,24,25
 591.501578166 1456.69045906 591.501578166 1456.69045906 592.181014683 1457.81732938 c 0,26,27
 647.761742556 1550 647.761742556 1550 718 1550 c 0,28,29
 767.449184528 1550 767.449184528 1550 805.786231426 1514.85770701 c 0,30,31
 846 1477.99508582 846 1477.99508582 846 1426 c 0,0,1
EndSplineSet
EndChar

StartChar: parenright
Encoding: 41 41 12
Width: 1200
Flags: W
LayerCount: 2
Fore
SplineSet
845 525 m 128,-1,1
 845 98.0032151485 845 98.0032151485 662.236662841 -296.30105755 c 0,2,3
 617.318516802 -390.22081745 617.318516802 -390.22081745 608.201294123 -406.175957138 c 0,4,5
 552.450775901 -500 552.450775901 -500 482 -500 c 0,6,7
 432.550815472 -500 432.550815472 -500 394.213768574 -464.85770701 c 0,8,9
 354 -427.995085817 354 -427.995085817 354 -376 c 0,10,11
 354 -347.658647418 354 -347.658647418 370.155397158 -313.879180634 c 0,12,13
 488.238814624 -81.6484596174 488.238814624 -81.6484596174 537.905677524 92.6724905622 c 0,14,15
 595 293.954169799 595 293.954169799 595 525 c 128,-1,16
 595 756.045830201 595 756.045830201 537.905677524 957.327509438 c 0,17,18
 488.227018352 1131.68986222 488.227018352 1131.68986222 370.335106453 1364.52638822 c 0,19,20
 354 1397.19660113 354 1397.19660113 354 1426 c 0,21,22
 354 1477.99508582 354 1477.99508582 394.213768574 1514.85770701 c 0,23,24
 432.550815472 1550 432.550815472 1550 482 1550 c 0,25,26
 552.238257444 1550 552.238257444 1550 607.818985317 1457.81732938 c 0,27,28
 608.498421834 1456.69045906 608.498421834 1456.69045906 609.117647059 1455.52941176 c 0,29,30
 617.738205969 1439.36586381 617.738205969 1439.36586381 661.307396087 1346.1480617 c 0,31,0
 845 952.081246597 845 952.081246597 845 525 c 128,-1,1
EndSplineSet
EndChar

StartChar: asterisk
Encoding: 42 42 13
Width: 1200
Flags: W
LayerCount: 2
Fore
SplineSet
1175 975 m 128,-1,1
 1175 921 1175 921 1142.5 885.5 c 128,-1,2
 1110 850 1110 850 1057 850 c 0,3,4
 1051.81496308 850 1051.81496308 850 877.073589446 860.448008358 c 1,5,-1
 1004.07718402 747.495875309 l 2,6,7
 1045 711.68841133 1045 711.68841133 1045 657 c 0,8,9
 1045 606.289321881 1045 606.289321881 1006.85533906 568.144660941 c 128,-1,10
 968.710678119 530 968.710678119 530 918 530 c 0,11,12
 863.31158867 530 863.31158867 530 827.504124691 570.922815977 c 2,13,-1
 714.551991642 697.926410554 l 1,14,15
 725 523.185036916 725 523.185036916 725 518 c 0,16,17
 725 465 725 465 689.5 432.5 c 128,-1,18
 654 400 654 400 600 400 c 128,-1,19
 546 400 546 400 510.5 432.5 c 128,-1,20
 475 465 475 465 475 518 c 0,21,22
 475 523.185036916 475 523.185036916 485.448008358 697.926410554 c 1,23,-1
 372.495875309 570.922815977 l 2,24,25
 336.68841133 530 336.68841133 530 282 530 c 0,26,27
 231.289321881 530 231.289321881 530 193.144660941 568.144660941 c 128,-1,28
 155 606.289321881 155 606.289321881 155 657 c 0,29,30
 155 711.68841133 155 711.68841133 195.922815977 747.495875309 c 2,31,-1
 322.926410554 860.448008358 l 1,32,33
 148.185036916 850 148.185036916 850 143 850 c 0,34,35
 90 850 90 850 57.5 885.5 c 128,-1,36
 25 921 25 921 25 975 c 128,-1,37
 25 1029 25 1029 57.5 1064.5 c 128,-1,38
 90 1100 90 1100 143 1100 c 0,39,40
 148.185036916 1100 148.185036916 1100 322.926410554 1089.55199164 c 1,41,-1
 195.922815977 1202.50412469 l 2,42,43
 155 1238.31158867 155 1238.31158867 155 1293 c 0,44,45
 155 1343.71067812 155 1343.71067812 193.144660941 1381.85533906 c 128,-1,46
 231.289321881 1420 231.289321881 1420 282 1420 c 0,47,48
 336.68841133 1420 336.68841133 1420 372.495875309 1379.07718402 c 2,49,-1
 485.448008358 1252.07358945 l 1,50,51
 475 1426.81496308 475 1426.81496308 475 1432 c 0,52,53
 475 1485 475 1485 510.5 1517.5 c 128,-1,54
 546 1550 546 1550 600 1550 c 128,-1,55
 654 1550 654 1550 689.5 1517.5 c 128,-1,56
 725 1485 725 1485 725 1432 c 0,57,58
 725 1426.81496308 725 1426.81496308 714.551991642 1252.07358945 c 1,59,-1
 827.504124691 1379.07718402 l 2,60,61
 863.31158867 1420 863.31158867 1420 918 1420 c 0,62,63
 968.710678119 1420 968.710678119 1420 1006.85533906 1381.85533906 c 128,-1,64
 1045 1343.71067812 1045 1343.71067812 1045 1293 c 0,65,66
 1045 1238.31158867 1045 1238.31158867 1004.07718402 1202.50412469 c 2,67,-1
 877.073589446 1089.55199164 l 1,68,69
 1051.81496308 1100 1051.81496308 1100 1057 1100 c 0,70,71
 1110 1100 1110 1100 1142.5 1064.5 c 128,-1,0
 1175 1029 1175 1029 1175 975 c 128,-1,1
EndSplineSet
EndChar

StartChar: plus
Encoding: 43 43 14
Width: 1200
Flags: W
LayerCount: 2
Fore
SplineSet
1175 638 m 128,-1,1
 1175 583 1175 583 1140 548 c 128,-1,2
 1105 513 1105 513 1050 513 c 2,3,-1
 725 513 l 1,4,-1
 725 188 l 2,5,6
 725 133 725 133 690 98 c 128,-1,7
 655 63 655 63 600 63 c 128,-1,8
 545 63 545 63 510 98 c 128,-1,9
 475 133 475 133 475 188 c 2,10,-1
 475 513 l 1,11,-1
 150 513 l 2,12,13
 95 513 95 513 60 548 c 128,-1,14
 25 583 25 583 25 638 c 128,-1,15
 25 693 25 693 60 728 c 128,-1,16
 95 763 95 763 150 763 c 2,17,-1
 475 763 l 1,18,-1
 475 1088 l 2,19,20
 475 1143 475 1143 510 1177.5 c 128,-1,21
 545 1212 545 1212 600 1212 c 128,-1,22
 655 1212 655 1212 690 1177.5 c 128,-1,23
 725 1143 725 1143 725 1088 c 2,24,-1
 725 763 l 1,25,-1
 1050 763 l 2,26,27
 1105 763 1105 763 1140 728 c 128,-1,0
 1175 693 1175 693 1175 638 c 128,-1,1
EndSplineSet
EndChar

StartChar: comma
Encoding: 44 44 15
Width: 1200
Flags: W
LayerCount: 2
Fore
SplineSet
791 75 m 0,0,1
 791 -178.012644921 791 -178.012644921 620.449063839 -334.166424134 c 0,2,3
 579.941543294 -370 579.941543294 -370 534 -370 c 0,4,5
 483.603551968 -370 483.603551968 -370 445.526847622 -332.7334383 c 0,6,7
 407 -295.02631084 407 -295.02631084 407 -243 c 0,8,9
 407 -198.990033883 407 -198.990033883 443.416079462 -158.021944488 c 0,10,11
 541 -45.3568725939 541 -45.3568725939 541 75 c 0,12,13
 541 130 541 130 576 165 c 128,-1,14
 611 200 611 200 666 200 c 128,-1,15
 721 200 721 200 756 165 c 128,-1,16
 791 130 791 130 791 75 c 0,0,1
EndSplineSet
EndChar

StartChar: hyphen
Encoding: 45 45 16
AltUni2: 002010.ffffffff.0
Width: 1200
Flags: W
LayerCount: 2
Fore
SplineSet
950 525 m 128,-1,1
 950 470 950 470 915 435 c 128,-1,2
 880 400 880 400 825 400 c 2,3,-1
 375 400 l 2,4,5
 320 400 320 400 285 435 c 128,-1,6
 250 470 250 470 250 525 c 128,-1,7
 250 580 250 580 285 615 c 128,-1,8
 320 650 320 650 375 650 c 2,9,-1
 825 650 l 2,10,11
 880 650 880 650 915 615 c 128,-1,0
 950 580 950 580 950 525 c 128,-1,1
EndSplineSet
EndChar

StartChar: period
Encoding: 46 46 17
Width: 1200
Flags: W
LayerCount: 2
Fore
SplineSet
764 114 m 0,0,1
 764 46.2893218813 764 46.2893218813 715.855339059 -1.85533905933 c 128,-1,2
 667.710678119 -50 667.710678119 -50 600 -50 c 128,-1,3
 532.289321881 -50 532.289321881 -50 484.144660941 -1.85533905933 c 128,-1,4
 436 46.2893218813 436 46.2893218813 436 114 c 0,5,6
 436 182.384533641 436 182.384533641 484.963380285 229.155523764 c 0,7,8
 532.956816344 275 532.956816344 275 600 275 c 128,-1,9
 667.043183656 275 667.043183656 275 715.036619715 229.155523764 c 0,10,11
 764 182.384533641 764 182.384533641 764 114 c 0,0,1
EndSplineSet
EndChar

StartChar: slash
Encoding: 47 47 18
Width: 1200
Flags: W
LayerCount: 2
Fore
SplineSet
1176 1427 m 0,0,1
 1176 1397.19660388 1176 1397.19660388 1161.72632528 1368.64925444 c 2,2,-1
 261.72135955 -432.360679775 l 2,3,4
 245.744800682 -464.313797512 245.744800682 -464.313797512 216.583593356 -483.156898756 c 128,-1,5
 187.42238603 -502 187.42238603 -502 152 -502 c 0,6,7
 102.879332625 -502 102.879332625 -502 64.6375839207 -467.741766786 c 0,8,9
 24 -431.337264524 24 -431.337264524 24 -378 c 0,10,11
 24 -348.196603883 24 -348.196603883 38.2736747209 -319.649254441 c 2,12,-1
 938.27864045 1481.36067977 l 2,13,14
 954.255199318 1513.31379751 954.255199318 1513.31379751 983.416406644 1532.15689876 c 128,-1,15
 1012.57761397 1551 1012.57761397 1551 1048 1551 c 0,16,17
 1097.12066738 1551 1097.12066738 1551 1135.36241608 1516.74176679 c 0,18,19
 1176 1480.33726452 1176 1480.33726452 1176 1427 c 0,0,1
EndSplineSet
EndChar

StartChar: zero
Encoding: 48 48 19
Width: 1200
Flags: W
LayerCount: 2
Fore
SplineSet
1175 638 m 0,0,1
 1175 377.548199045 1175 377.548199045 1027.26646901 177.358559226 c 0,2,3
 972.689502467 103.033348209 972.689502467 103.033348209 906.5827294 52.4616398141 c 128,-1,4
 840.475956334 1.88993141929 840.475956334 1.88993141929 763.282391421 -24.0550342904 c 128,-1,5
 686.088826508 -50 686.088826508 -50 600 -50 c 0,6,7
 339.682811194 -50 339.682811194 -50 172.73353099 177.358559226 c 0,8,9
 25 377.548199045 25 377.548199045 25 638 c 0,10,11
 25 897.451800955 25 897.451800955 172.73353099 1097.64144077 c 0,12,13
 339.682811194 1325 339.682811194 1325 600 1325 c 128,-1,14
 860.317188806 1325 860.317188806 1325 1027.26646901 1097.64144077 c 0,15,16
 1175 897.451800955 1175 897.451800955 1175 638 c 0,0,1
925 638 m 0,17,18
 925 801.861218113 925 801.861218113 837.319138423 933.382510479 c 0,19,20
 789.036859474 1006.70004518 789.036859474 1006.70004518 730.946045777 1040.85002259 c 128,-1,21
 672.855232081 1075 672.855232081 1075 600 1075 c 128,-1,22
 527.139713074 1075 527.139713074 1075 469.050817279 1040.84909702 c 128,-1,23
 410.961921484 1006.69819404 410.961921484 1006.69819404 362.680861577 933.382510479 c 0,24,25
 275 801.861218113 275 801.861218113 275 638 c 0,26,27
 275 473.138781887 275 473.138781887 362.680861577 341.617489521 c 0,28,29
 410.963140526 268.29995482 410.963140526 268.29995482 469.053954223 234.14997741 c 128,-1,30
 527.144767919 200 527.144767919 200 600 200 c 128,-1,31
 672.860286926 200 672.860286926 200 730.949182721 234.150902979 c 128,-1,32
 789.038078516 268.301805958 789.038078516 268.301805958 837.319138423 341.617489521 c 0,33,34
 925 473.138781887 925 473.138781887 925 638 c 0,17,18
726 637 m 0,35,36
 726 585.289321881 726 585.289321881 688.855339059 548.144660941 c 128,-1,37
 651.710678119 511 651.710678119 511 600 511 c 128,-1,38
 548.289321881 511 548.289321881 511 511.144660941 548.144660941 c 128,-1,39
 474 585.289321881 474 585.289321881 474 637 c 0,40,41
 474 692 474 692 509.5 726.5 c 128,-1,42
 545 761 545 761 600 761 c 128,-1,43
 655 761 655 761 690.5 726.5 c 128,-1,44
 726 692 726 692 726 637 c 0,35,36
EndSplineSet
EndChar

StartChar: one
Encoding: 49 49 20
Width: 1200
Flags: W
LayerCount: 2
Fore
SplineSet
1050 75 m 128,-1,1
 1050 20 1050 20 1015 -15 c 128,-1,2
 980 -50 980 -50 925 -50 c 2,3,-1
 375 -50 l 2,4,5
 320 -50 320 -50 285 -15 c 128,-1,6
 250 20 250 20 250 75 c 128,-1,7
 250 130 250 130 285 165 c 128,-1,8
 320 200 320 200 375 200 c 2,9,-1
 525 200 l 1,10,-1
 525 898.289321881 l 1,11,-1
 363.355339059 736.644660941 l 2,12,13
 325.710678119 699 325.710678119 699 276 699 c 0,14,15
 224.289321881 699 224.289321881 699 186.644660941 736.644660941 c 128,-1,16
 149 774.289321881 149 774.289321881 149 826 c 0,17,18
 149 875.710678119 149 875.710678119 186.644660941 913.355339059 c 2,19,-1
 551.644660941 1278.35533906 l 2,20,21
 599.289321881 1326 599.289321881 1326 649 1326 c 0,22,23
 708 1326 708 1326 741.5 1286 c 128,-1,24
 775 1246 775 1246 775 1186 c 2,25,-1
 775 200 l 1,26,-1
 925 200 l 2,27,28
 980 200 980 200 1015 165 c 128,-1,0
 1050 130 1050 130 1050 75 c 128,-1,1
EndSplineSet
EndChar

StartChar: two
Encoding: 50 50 21
Width: 1200
Flags: W
LayerCount: 2
Fore
SplineSet
1100 825 m 0,0,1
 1100 651.669417163 1100 651.669417163 985.295267834 506.082641722 c 0,2,3
 903.694175262 402.226705721 903.694175262 402.226705721 736.291919111 285.772962312 c 0,4,5
 673.151158662 243.031524469 673.151158662 243.031524469 609.929634446 200 c 1,6,-1
 975 200 l 2,7,8
 1030 200 1030 200 1065 165 c 128,-1,9
 1100 130 1100 130 1100 75 c 128,-1,10
 1100 20 1100 20 1065 -15 c 128,-1,11
 1030 -50 1030 -50 975 -50 c 2,12,-1
 225 -50 l 2,13,14
 168 -50 168 -50 128.5 -19.5 c 128,-1,15
 89 11 89 11 89 66 c 0,16,17
 89 120.22781108 89 120.22781108 146.786320192 172.376441498 c 0,18,19
 183.018657062 204.079736259 183.018657062 204.079736259 247.075352715 239.908057556 c 0,20,21
 295.777177116 265.749841933 295.777177116 265.749841933 344.173685504 292.408407685 c 0,22,23
 600.653119695 444.704498133 600.653119695 444.704498133 725.326559847 580.261345375 c 128,-1,24
 850 715.818192618 850 715.818192618 850 825 c 0,25,26
 850 928.289321881 850 928.289321881 776.644660941 1001.64466094 c 128,-1,27
 703.289321881 1075 703.289321881 1075 600 1075 c 128,-1,28
 496.710678119 1075 496.710678119 1075 423.355339059 1001.64466094 c 128,-1,29
 350 928.289321881 350 928.289321881 350 825 c 0,30,31
 350 770 350 770 315 735 c 128,-1,32
 280 700 280 700 225 700 c 128,-1,33
 170 700 170 700 135 735 c 128,-1,34
 100 770 100 770 100 825 c 0,35,36
 100 1031.71067812 100 1031.71067812 246.644660941 1178.35533906 c 128,-1,37
 393.289321881 1325 393.289321881 1325 600 1325 c 128,-1,38
 806.710678119 1325 806.710678119 1325 953.355339059 1178.35533906 c 128,-1,39
 1100 1031.71067812 1100 1031.71067812 1100 825 c 0,0,1
EndSplineSet
EndChar

StartChar: three
Encoding: 51 51 22
Width: 1200
Flags: W
LayerCount: 2
Fore
SplineSet
1120 1211 m 0,0,1
 1120 1153.9251937 1120 1153.9251937 1069.73702229 1108.09718462 c 2,2,-1
 714.000798759 782.005646378 l 1,3,4
 857.633931096 744.324749069 857.633931096 744.324749069 964.501069932 630.171214404 c 0,5,6
 1110 474.75190274 1110 474.75190274 1110 263 c 0,7,8
 1110 40.2893218813 1110 40.2893218813 952.355339059 -117.355339059 c 128,-1,9
 794.710678119 -275 794.710678119 -275 573 -275 c 0,10,11
 432.312635211 -275 432.312635211 -275 304.531864123 -202.605577987 c 0,12,13
 170.481932171 -128.047054508 170.481932171 -128.047054508 105.519914656 -4.8432281865 c 0,14,15
 89 28.196601125 89 28.196601125 89 58 c 0,16,17
 89 109.995085817 89 109.995085817 129.213768574 146.85770701 c 0,18,19
 167.550815472 182 167.550815472 182 218 182 c 0,20,21
 277.265388006 182 277.265388006 182 320.169327337 123.773225194 c 0,22,23
 431.089010026 -25 431.089010026 -25 573 -25 c 0,24,25
 691.289321881 -25 691.289321881 -25 775.644660941 59.3553390593 c 128,-1,26
 860 143.710678119 860 143.710678119 860 263 c 0,27,28
 860 381.289321881 860 381.289321881 775.644660941 465.644660941 c 128,-1,29
 691.289321881 550 691.289321881 550 573 550 c 0,30,31
 493.037004557 550 493.037004557 550 412.579584554 496.794286772 c 0,32,33
 398.992178218 487.809066453 398.992178218 487.809066453 373.047403971 469.591327446 c 128,-1,34
 347.102629723 451.373588439 347.102629723 451.373588439 337.156651711 445.377209309 c 128,-1,35
 327.210673699 439.380830178 327.210673699 439.380830178 310.578775928 433.190415089 c 128,-1,36
 293.946878158 427 293.946878158 427 278 427 c 0,37,38
 227.289321881 427 227.289321881 427 190.144660941 464.144660941 c 128,-1,39
 153 501.289321881 153 501.289321881 153 552 c 0,40,41
 153 607.386872783 153 607.386872783 197.441513506 647.066795556 c 2,42,-1
 663.597877959 1075 l 1,43,-1
 215 1075 l 2,44,45
 160 1075 160 1075 125 1110 c 128,-1,46
 90 1145 90 1145 90 1200 c 128,-1,47
 90 1255 90 1255 125 1290 c 128,-1,48
 160 1325 160 1325 215 1325 c 2,49,-1
 985 1325 l 2,50,51
 1063.91335371 1325 1063.91335371 1325 1098.58898885 1279.30975135 c 0,52,53
 1120 1251.09759547 1120 1251.09759547 1120 1211 c 0,0,1
EndSplineSet
EndChar

StartChar: four
Encoding: 52 52 23
Width: 1200
Flags: W
LayerCount: 2
Fore
SplineSet
1175 300 m 128,-1,1
 1175 245 1175 245 1140 210 c 128,-1,2
 1105 175 1105 175 1050 175 c 2,3,-1
 875 175 l 1,4,-1
 875 -150 l 2,5,6
 875 -205 875 -205 840 -240 c 128,-1,7
 805 -275 805 -275 750 -275 c 128,-1,8
 695 -275 695 -275 660 -240 c 128,-1,9
 625 -205 625 -205 625 -150 c 2,10,-1
 625 175 l 1,11,-1
 150 175 l 2,12,13
 74.6672869627 175 74.6672869627 175 40.690343872 219.213586201 c 0,14,15
 19 247.438841368 19 247.438841368 19 288 c 0,16,17
 19 329.362759556 19 329.362759556 46.5111514469 369.905509057 c 2,18,-1
 646.397485283 1269.73500981 l 2,19,20
 691.240812076 1337 691.240812076 1337 758 1337 c 0,21,22
 814 1337 814 1337 844.5 1297 c 128,-1,23
 875 1257 875 1257 875 1200 c 2,24,-1
 875 425 l 1,25,-1
 1050 425 l 2,26,27
 1105 425 1105 425 1140 390 c 128,-1,0
 1175 355 1175 355 1175 300 c 128,-1,1
625 425 m 1,28,-1
 625 786.980175217 l 1,29,-1
 383.470766969 425 l 1,30,-1
 625 425 l 1,28,-1
EndSplineSet
EndChar

StartChar: five
Encoding: 53 53 24
Width: 1200
Flags: W
LayerCount: 2
Fore
SplineSet
1145 300 m 128,-1,1
 1145 62.2893218813 1145 62.2893218813 976.355339059 -106.355339059 c 128,-1,2
 807.710678119 -275 807.710678119 -275 570 -275 c 0,3,4
 419.882319207 -275 419.882319207 -275 282.414493025 -197.537970961 c 0,5,6
 140.733634587 -117.361981302 140.733634587 -117.361981302 70.5777264612 14.0411482025 c 0,7,8
 54 47.196601125 54 47.196601125 54 77 c 0,9,10
 54 128.995085817 54 128.995085817 94.2137685741 165.85770701 c 0,11,12
 132.550815472 201 132.550815472 201 182 201 c 0,13,14
 242.265388006 201 242.265388006 201 285.252791868 142.659951902 c 0,15,16
 286.266036307 141.28483445 286.266036307 141.28483445 287.183074387 139.84377461 c 0,17,18
 299.750661462 120.094709205 299.750661462 120.094709205 328.670488761 81.760267494 c 1,19,20
 424.79378814 -25 424.79378814 -25 570 -25 c 0,21,22
 704.289321881 -25 704.289321881 -25 799.644660941 70.3553390593 c 128,-1,23
 895 165.710678119 895 165.710678119 895 300 c 128,-1,24
 895 434.289321881 895 434.289321881 799.644660941 529.644660941 c 128,-1,25
 704.289321881 625 704.289321881 625 570 625 c 0,26,27
 405.651536854 625 405.651536854 625 285.507505096 457.68831133 c 0,28,29
 235.422278084 389 235.422278084 389 173 389 c 0,30,31
 119 389 119 389 87 426 c 128,-1,32
 55 463 55 463 55 518 c 0,33,34
 55 529.493781056 55 529.493781056 56.2481404895 541.975185951 c 0,35,36
 56.3841215982 543.334997038 56.3841215982 543.334997038 56.5941765523 544.685350314 c 2,37,-1
 161.418291297 1218.55465939 l 2,38,39
 167.72413034 1261.27276678 167.72413034 1261.27276678 205.094068524 1293.07696948 c 128,-1,40
 242.603629379 1325 242.603629379 1325 285 1325 c 2,41,-1
 1020 1325 l 2,42,43
 1075 1325 1075 1325 1110 1290 c 128,-1,44
 1145 1255 1145 1255 1145 1200 c 128,-1,45
 1145 1145 1145 1145 1110 1110 c 128,-1,46
 1075 1075 1075 1075 1020 1075 c 2,47,-1
 391.853172977 1075 l 1,48,-1
 354.442379503 833.415045532 l 1,49,50
 456.700546371 875 456.700546371 875 570 875 c 0,51,52
 807.710678119 875 807.710678119 875 976.355339059 706.355339059 c 128,-1,0
 1145 537.710678119 1145 537.710678119 1145 300 c 128,-1,1
EndSplineSet
EndChar

StartChar: six
Encoding: 54 54 25
Width: 1200
Flags: W
LayerCount: 2
Fore
SplineSet
1175 1425 m 128,-1,1
 1175 1370 1175 1370 1140 1335 c 128,-1,2
 1105 1300 1105 1300 1050 1300 c 0,3,4
 861.213776568 1300 861.213776568 1300 693.052026383 1212.63104599 c 0,5,6
 600.300628058 1164.441772 600.300628058 1164.441772 525.023911242 1095.21649341 c 1,7,8
 562.377470041 1100 562.377470041 1100 600 1100 c 0,9,10
 837.710678119 1100 837.710678119 1100 1006.35533906 931.355339059 c 128,-1,11
 1175 762.710678119 1175 762.710678119 1175 525 c 128,-1,12
 1175 287.289321881 1175 287.289321881 1006.35533906 118.644660941 c 0,13,14
 950.70832965 62.9976515315 950.70832965 62.9976515315 886.476912219 25.4411620277 c 128,-1,15
 822.245494788 -12.1153274761 822.245494788 -12.1153274761 750.357750454 -31.057663738 c 128,-1,16
 678.470006119 -50 678.470006119 -50 600 -50 c 0,17,18
 362.289321881 -50 362.289321881 -50 193.644660941 118.644660941 c 128,-1,19
 25 287.289321881 25 287.289321881 25 525 c 0,20,21
 25 948.710678119 25 948.710678119 325.644660941 1249.35533906 c 128,-1,22
 626.289321881 1550 626.289321881 1550 1050 1550 c 0,23,24
 1105 1550 1105 1550 1140 1515 c 128,-1,0
 1175 1480 1175 1480 1175 1425 c 128,-1,1
925 525 m 128,-1,26
 925 659.289321881 925 659.289321881 829.644660941 754.644660941 c 128,-1,27
 734.289321881 850 734.289321881 850 600 850 c 128,-1,28
 465.710678119 850 465.710678119 850 370.355339059 754.644660941 c 128,-1,29
 275 659.289321881 275 659.289321881 275 525 c 128,-1,30
 275 390.710678119 275 390.710678119 370.355339059 295.355339059 c 128,-1,31
 465.710678119 200 465.710678119 200 600 200 c 128,-1,32
 734.289321881 200 734.289321881 200 829.644660941 295.355339059 c 128,-1,25
 925 390.710678119 925 390.710678119 925 525 c 128,-1,26
EndSplineSet
EndChar

StartChar: seven
Encoding: 55 55 26
Width: 1200
Flags: W
LayerCount: 2
Fore
SplineSet
1179 1211 m 0,0,1
 1179 1176.32812258 1179 1176.32812258 1160.0073014 1141.26467902 c 2,2,-1
 435.058013403 -208.640885241 l 2,3,4
 418.541776271 -239.421145351 418.541776271 -239.421145351 389.993493599 -257.710572676 c 128,-1,5
 361.445210927 -276 361.445210927 -276 327 -276 c 0,6,7
 277.550815472 -276 277.550815472 -276 239.213768574 -240.85770701 c 0,8,9
 199 -203.995085817 199 -203.995085817 199 -152 c 0,10,11
 199 -120.04369859 199 -120.04369859 215.119538904 -91.0285285632 c 2,12,-1
 841.389700213 1075 l 1,13,-1
 150 1075 l 2,14,15
 95 1075 95 1075 60 1110 c 128,-1,16
 25 1145 25 1145 25 1200 c 128,-1,17
 25 1255 25 1255 60 1290 c 128,-1,18
 95 1325 95 1325 150 1325 c 2,19,-1
 1050 1325 l 2,20,21
 1121.21252959 1325 1121.21252959 1325 1155.15351287 1283.5052927 c 0,22,23
 1179 1254.35165872 1179 1254.35165872 1179 1211 c 0,0,1
EndSplineSet
EndChar

StartChar: eight
Encoding: 56 56 27
Width: 1200
Flags: W
LayerCount: 2
Fore
SplineSet
1100 450 m 0,0,1
 1100 243.289321881 1100 243.289321881 953.355339059 96.6446609407 c 128,-1,2
 806.710678119 -50 806.710678119 -50 600 -50 c 128,-1,3
 393.289321881 -50 393.289321881 -50 246.644660941 96.6446609407 c 128,-1,4
 100 243.289321881 100 243.289321881 100 450 c 0,5,6
 100 694.876231718 100 694.876231718 284.621977885 838.761111766 c 1,7,8
 175 956.885355995 175 956.885355995 175 1125 c 0,9,10
 175 1300.71067812 175 1300.71067812 299.644660941 1425.35533906 c 128,-1,11
 424.289321881 1550 424.289321881 1550 600 1550 c 128,-1,12
 775.710678119 1550 775.710678119 1550 900.355339059 1425.35533906 c 128,-1,13
 1025 1300.71067812 1025 1300.71067812 1025 1125 c 0,14,15
 1025 956.885355995 1025 956.885355995 915.378022115 838.761111766 c 1,16,17
 1100 694.876231718 1100 694.876231718 1100 450 c 0,0,1
775 1125 m 128,-1,19
 775 1197.28932188 775 1197.28932188 723.644660941 1248.64466094 c 128,-1,20
 672.289321881 1300 672.289321881 1300 600 1300 c 128,-1,21
 527.710678119 1300 527.710678119 1300 476.355339059 1248.64466094 c 128,-1,22
 425 1197.28932188 425 1197.28932188 425 1125 c 128,-1,23
 425 1052.71067812 425 1052.71067812 476.355339059 1001.35533906 c 128,-1,24
 527.710678119 950 527.710678119 950 600 950 c 128,-1,25
 672.289321881 950 672.289321881 950 723.644660941 1001.35533906 c 128,-1,18
 775 1052.71067812 775 1052.71067812 775 1125 c 128,-1,19
850 450 m 128,-1,27
 850 553.289321881 850 553.289321881 776.644660941 626.644660941 c 128,-1,28
 703.289321881 700 703.289321881 700 600 700 c 128,-1,29
 496.710678119 700 496.710678119 700 423.355339059 626.644660941 c 128,-1,30
 350 553.289321881 350 553.289321881 350 450 c 128,-1,31
 350 346.710678119 350 346.710678119 423.355339059 273.355339059 c 128,-1,32
 496.710678119 200 496.710678119 200 600 200 c 128,-1,33
 703.289321881 200 703.289321881 200 776.644660941 273.355339059 c 128,-1,26
 850 346.710678119 850 346.710678119 850 450 c 128,-1,27
EndSplineSet
EndChar

StartChar: nine
Encoding: 57 57 28
Width: 1200
Flags: W
LayerCount: 2
Fore
SplineSet
1175 750 m 0,0,1
 1175 326.289321881 1175 326.289321881 874.355339059 25.6446609407 c 128,-1,2
 573.710678119 -275 573.710678119 -275 150 -275 c 0,3,4
 95 -275 95 -275 60 -240 c 128,-1,5
 25 -205 25 -205 25 -150 c 128,-1,6
 25 -95 25 -95 60 -60 c 128,-1,7
 95 -25 95 -25 150 -25 c 0,8,9
 338.786223432 -25 338.786223432 -25 506.947973617 62.3689540064 c 0,10,11
 599.699371942 110.558227997 599.699371942 110.558227997 674.976088758 179.783506588 c 1,12,13
 637.622529959 175 637.622529959 175 600 175 c 0,14,15
 362.289321881 175 362.289321881 175 193.644660941 343.644660941 c 0,16,17
 110.087596496 427.201725386 110.087596496 427.201725386 67.5437982478 529.693678961 c 128,-1,18
 25 632.185632537 25 632.185632537 25 750 c 0,19,20
 25 987.710678119 25 987.710678119 193.644660941 1156.35533906 c 128,-1,21
 362.289321881 1325 362.289321881 1325 600 1325 c 128,-1,22
 837.710678119 1325 837.710678119 1325 1006.35533906 1156.35533906 c 128,-1,23
 1175 987.710678119 1175 987.710678119 1175 750 c 0,0,1
925 750 m 128,-1,25
 925 884.289321881 925 884.289321881 829.644660941 979.644660941 c 128,-1,26
 734.289321881 1075 734.289321881 1075 600 1075 c 128,-1,27
 465.710678119 1075 465.710678119 1075 370.355339059 979.644660941 c 128,-1,28
 275 884.289321881 275 884.289321881 275 750 c 128,-1,29
 275 615.710678119 275 615.710678119 370.355339059 520.355339059 c 128,-1,30
 465.710678119 425 465.710678119 425 600 425 c 128,-1,31
 734.289321881 425 734.289321881 425 829.644660941 520.355339059 c 128,-1,24
 925 615.710678119 925 615.710678119 925 750 c 128,-1,25
EndSplineSet
EndChar

StartChar: colon
Encoding: 58 58 29
Width: 1200
Flags: W
LayerCount: 2
Fore
SplineSet
764 939 m 0,0,1
 764 871.289321881 764 871.289321881 715.855339059 823.144660941 c 128,-1,2
 667.710678119 775 667.710678119 775 600 775 c 128,-1,3
 532.289321881 775 532.289321881 775 484.144660941 823.144660941 c 128,-1,4
 436 871.289321881 436 871.289321881 436 939 c 0,5,6
 436 1007.38453364 436 1007.38453364 484.963380285 1054.15552376 c 0,7,8
 532.956816344 1100 532.956816344 1100 600 1100 c 128,-1,9
 667.043183656 1100 667.043183656 1100 715.036619715 1054.15552376 c 0,10,11
 764 1007.38453364 764 1007.38453364 764 939 c 0,0,1
764 114 m 0,12,13
 764 46.2893218813 764 46.2893218813 715.855339059 -1.85533905933 c 128,-1,14
 667.710678119 -50 667.710678119 -50 600 -50 c 128,-1,15
 532.289321881 -50 532.289321881 -50 484.144660941 -1.85533905933 c 128,-1,16
 436 46.2893218813 436 46.2893218813 436 114 c 0,17,18
 436 182.384533641 436 182.384533641 484.963380285 229.155523764 c 0,19,20
 532.956816344 275 532.956816344 275 600 275 c 128,-1,21
 667.043183656 275 667.043183656 275 715.036619715 229.155523764 c 0,22,23
 764 182.384533641 764 182.384533641 764 114 c 0,12,13
EndSplineSet
EndChar

StartChar: semicolon
Encoding: 59 59 30
Width: 1200
Flags: W
LayerCount: 2
Fore
SplineSet
811 939 m 0,0,1
 811 871.289321881 811 871.289321881 762.855339059 823.144660941 c 128,-1,2
 714.710678119 775 714.710678119 775 647 775 c 0,3,4
 580.505944524 775 580.505944524 775 531.907515085 822.883746653 c 0,5,6
 483 871.072033575 483 871.072033575 483 939 c 0,7,8
 483 1007.38453364 483 1007.38453364 531.963380285 1054.15552376 c 0,9,10
 579.956816344 1100 579.956816344 1100 647 1100 c 0,11,12
 715.261530841 1100 715.261530841 1100 762.807291804 1053.89501967 c 0,13,14
 811 1007.16269657 811 1007.16269657 811 939 c 0,0,1
772 75 m 0,15,16
 772 -178.012644921 772 -178.012644921 601.449063839 -334.166424134 c 0,17,18
 560.941543294 -370 560.941543294 -370 516 -370 c 0,19,20
 464.289321881 -370 464.289321881 -370 426.644660941 -332.355339059 c 128,-1,21
 389 -294.710678119 389 -294.710678119 389 -243 c 0,22,23
 389 -199.590661518 389 -199.590661518 424.071142382 -158.420190025 c 0,24,25
 522 -45.3568725939 522 -45.3568725939 522 75 c 0,26,27
 522 130 522 130 557 165 c 128,-1,28
 592 200 592 200 647 200 c 128,-1,29
 702 200 702 200 737 165 c 128,-1,30
 772 130 772 130 772 75 c 0,15,16
EndSplineSet
EndChar

StartChar: less
Encoding: 60 60 31
Width: 1200
Flags: W
LayerCount: 2
Fore
SplineSet
1176 190 m 0,0,1
 1176 139.879332625 1176 139.879332625 1141.74176679 101.637583921 c 0,2,3
 1105.33726452 61 1105.33726452 61 1052 61 c 0,4,5
 1022.19661249 61 1022.19661249 61 993.619159578 75.2887264549 c 2,6,-1
 106.467243648 519.364770055 l 2,7,8
 69.3164829863 538.277884573 69.3164829863 538.277884573 46.6582414932 568.740793789 c 128,-1,9
 24 599.203703005 24 599.203703005 24 638 c 0,10,11
 24 676.533779285 24 676.533779285 46.7120101237 706.655320477 c 128,-1,12
 69.4240202473 736.776861668 69.4240202473 736.776861668 106.467243648 755.635229945 c 2,13,-1
 993.639320225 1199.72135955 l 2,14,15
 1022.19660113 1214 1022.19660113 1214 1052 1214 c 0,16,17
 1105.33726452 1214 1105.33726452 1214 1141.74176679 1173.36241608 c 0,18,19
 1176 1135.12066738 1176 1135.12066738 1176 1085 c 0,20,21
 1176 1049.83546787 1176 1049.83546787 1157.37299388 1021.03389837 c 128,-1,22
 1138.74598775 992.232328866 1138.74598775 992.232328866 1106.75939884 975.477448958 c 2,23,-1
 429.920348005 637.941525435 l 1,24,-1
 1106.78254185 299.510428512 l 2,25,26
 1138.74485069 282.76826674 1138.74485069 282.76826674 1157.37242534 253.964210008 c 128,-1,27
 1176 225.160153275 1176 225.160153275 1176 190 c 0,0,1
EndSplineSet
EndChar

StartChar: equal
Encoding: 61 61 32
Width: 1200
Flags: W
LayerCount: 2
Fore
SplineSet
1175 863 m 128,-1,1
 1175 808 1175 808 1140 773 c 128,-1,2
 1105 738 1105 738 1050 738 c 2,3,-1
 150 738 l 2,4,5
 95 738 95 738 60 773 c 128,-1,6
 25 808 25 808 25 863 c 128,-1,7
 25 918 25 918 60 953 c 128,-1,8
 95 988 95 988 150 988 c 2,9,-1
 1050 988 l 2,10,11
 1105 988 1105 988 1140 953 c 128,-1,0
 1175 918 1175 918 1175 863 c 128,-1,1
1175 413 m 128,-1,13
 1175 358 1175 358 1140 323 c 128,-1,14
 1105 288 1105 288 1050 288 c 2,15,-1
 150 288 l 2,16,17
 95 288 95 288 60 323 c 128,-1,18
 25 358 25 358 25 413 c 128,-1,19
 25 468 25 468 60 503 c 128,-1,20
 95 538 95 538 150 538 c 2,21,-1
 1050 538 l 2,22,23
 1105 538 1105 538 1140 503 c 128,-1,12
 1175 468 1175 468 1175 413 c 128,-1,13
EndSplineSet
EndChar

StartChar: greater
Encoding: 62 62 33
Width: 1200
Flags: W
LayerCount: 2
Fore
SplineSet
1176 638 m 0,0,1
 1176 599.215571513 1176 599.215571513 1153.33643908 568.744019969 c 128,-1,2
 1130.67287815 538.272468426 1130.67287815 538.272468426 1093.53275635 519.364770055 c 2,3,-1
 206.360679775 75.27864045 l 2,4,5
 177.803398875 61 177.803398875 61 148 61 c 0,6,7
 94.6627354762 61 94.6627354762 61 58.2582332138 101.637583921 c 0,8,9
 24 139.879332625 24 139.879332625 24 190 c 0,10,11
 24 225.156869774 24 225.156869774 42.6294687201 253.963560386 c 128,-1,12
 61.2589374403 282.770250998 61.2589374403 282.770250998 93.2174581488 299.510428512 c 2,13,-1
 770.079651995 637.941525435 l 1,14,-1
 93.2406011604 975.477448958 l 2,15,16
 61.2500254381 992.234417194 61.2500254381 992.234417194 42.6250127191 1021.03323713 c 128,-1,17
 24 1049.83205706 24 1049.83205706 24 1085 c 0,18,19
 24 1135.12066738 24 1135.12066738 58.2582332138 1173.36241608 c 0,20,21
 94.6627354762 1214 94.6627354762 1214 148 1214 c 0,22,23
 177.803387512 1214 177.803387512 1214 206.380840422 1199.71127355 c 2,24,-1
 1093.53275635 755.635229945 l 2,25,26
 1130.58298044 736.773297682 1130.58298044 736.773297682 1153.29149022 706.657125296 c 128,-1,27
 1176 676.540952909 1176 676.540952909 1176 638 c 0,0,1
EndSplineSet
EndChar

StartChar: question
Encoding: 63 63 34
Width: 1200
Flags: W
LayerCount: 2
Fore
SplineSet
1175 1125 m 128,-1,1
 1175 1022.89184752 1175 1022.89184752 1122.12108412 939.923341169 c 128,-1,2
 1069.24216824 856.954834813 1069.24216824 856.954834813 969.436465606 797.953673589 c 0,3,4
 803.668710301 700 803.668710301 700 600 700 c 0,5,6
 489.265388006 700 489.265388006 700 448.252791868 644.340048098 c 0,7,8
 445.279655855 640.305077794 445.279655855 640.305077794 444.204628837 637.394826082 c 0,9,10
 447.070043321 630.640634797 447.070043321 630.640634797 457.503888282 620.206789837 c 0,11,12
 501.957231621 575 501.957231621 575 600 575 c 0,13,14
 626.415190975 575 626.415190975 575 668.554900258 586.295179808 c 0,15,16
 723.415190975 601 723.415190975 601 744 601 c 0,17,18
 796.023865143 601 796.023865143 601 832.390270602 561.250673104 c 0,19,20
 867 523.421433994 867 523.421433994 867 473 c 0,21,22
 867 325 867 325 600 325 c 0,23,24
 454.847890485 325 454.847890485 325 338.726541594 396.459291625 c 0,25,26
 268.984985706 439.687528745 268.984985706 439.687528745 231.492492853 501.034516911 c 128,-1,27
 194 562.381505077 194 562.381505077 194 637 c 0,28,29
 194 712.04160941 194 712.04160941 231.471074837 773.663764702 c 128,-1,30
 268.942149673 835.285919994 268.942149673 835.285919994 338.726541594 878.540708375 c 0,31,32
 454.847890485 950 454.847890485 950 600 950 c 0,33,34
 820.861004208 950 820.861004208 950 903.968230486 1069.57264189 c 0,35,36
 925 1099.71817819 925 1099.71817819 925 1125 c 128,-1,37
 925 1150.28182181 925 1150.28182181 903.968230486 1180.42735811 c 0,38,39
 820.861004208 1300 820.861004208 1300 600 1300 c 128,-1,40
 379.138995792 1300 379.138995792 1300 296.031769514 1180.42735811 c 0,41,42
 275 1150.28182181 275 1150.28182181 275 1125 c 0,43,44
 275 1070 275 1070 240 1035 c 128,-1,45
 205 1000 205 1000 150 1000 c 128,-1,46
 95 1000 95 1000 60 1035 c 128,-1,47
 25 1070 25 1070 25 1125 c 0,48,49
 25 1227.10815248 25 1227.10815248 77.8789158813 1310.07665883 c 128,-1,50
 130.757831763 1393.04516519 130.757831763 1393.04516519 230.563534394 1452.04632641 c 0,51,52
 396.331289699 1550 396.331289699 1550 600 1550 c 128,-1,53
 803.668708599 1550 803.668708599 1550 969.444476766 1452.04159154 c 0,54,55
 1069.24066513 1393.04605477 1069.24066513 1393.04605477 1122.12033257 1310.07608135 c 128,-1,0
 1175 1227.10610794 1175 1227.10610794 1175 1125 c 128,-1,1
764 114 m 0,56,57
 764 46.2893218813 764 46.2893218813 715.855339059 -1.85533905933 c 128,-1,58
 667.710678119 -50 667.710678119 -50 600 -50 c 128,-1,59
 532.289321881 -50 532.289321881 -50 484.144660941 -1.85533905933 c 128,-1,60
 436 46.2893218813 436 46.2893218813 436 114 c 0,61,62
 436 182.384533641 436 182.384533641 484.963380285 229.155523764 c 0,63,64
 532.956816344 275 532.956816344 275 600 275 c 128,-1,65
 667.043183656 275 667.043183656 275 715.036619715 229.155523764 c 0,66,67
 764 182.384533641 764 182.384533641 764 114 c 0,56,57
EndSplineSet
EndChar

StartChar: at
Encoding: 64 64 35
Width: 1200
Flags: W
LayerCount: 2
Fore
SplineSet
1175 925 m 128,-1,1
 1175 692.271654202 1175 692.271654202 1047.99214109 510.37056813 c 0,2,3
 901.066664932 300 901.066664932 300 667 300 c 0,4,5
 495.4521396 300 495.4521396 300 386.374049847 450.852677318 c 0,6,7
 293 582.020985436 293 582.020985436 293 750 c 128,-1,8
 293 917.979014564 293 917.979014564 386.374049847 1049.14732268 c 0,9,10
 495.4521396 1200 495.4521396 1200 667 1200 c 0,11,12
 791.664819562 1200 791.664819562 1200 887.616866385 1114.29469013 c 1,13,14
 873.904259597 1146.54292471 873.904259597 1146.54292471 855.281965444 1177.01576968 c 0,15,16
 816.202244423 1241.56317407 816.202244423 1241.56317407 770.290628654 1270.78158703 c 128,-1,17
 724.379012885 1300 724.379012885 1300 667 1300 c 0,18,19
 546.454225081 1300 546.454225081 1300 446.021959196 1201.31438222 c 0,20,21
 353.695832781 1110.81649593 353.695832781 1110.81649593 309.528502238 976.474198862 c 0,22,23
 275 870.089083858 275 870.089083858 275 750 c 128,-1,24
 275 629.910916142 275 629.910916142 309.528502238 523.525801138 c 0,25,26
 353.695832781 389.183504071 353.695832781 389.183504071 446.021959196 298.685617782 c 0,27,28
 546.454225081 200 546.454225081 200 667 200 c 0,29,30
 783.83044158 200 783.83044158 200 885.13467563 294.900454548 c 0,31,32
 902.614252798 314.424858926 902.614252798 314.424858926 936.865050882 352.481301241 c 0,33,34
 979.78516589 400 979.78516589 400 1031 400 c 128,-1,35
 1082.39644803 400 1082.39644803 400 1120.47315238 362.7334383 c 0,36,37
 1159 325.02631084 1159 325.02631084 1159 274 c 0,38,39
 1159 235.319214212 1159 235.319214212 1133.82829061 199.13488197 c 0,40,41
 1052.88646037 86.4726047407 1052.88646037 86.4726047407 929.953145233 20.1103726742 c 0,42,43
 802.87809476 -50 802.87809476 -50 667 -50 c 0,44,45
 371.742115386 -50 371.742115386 -50 185.82000052 219.641429746 c 0,46,47
 105.582511122 336.302516306 105.582511122 336.302516306 65.2912555608 469.36651989 c 128,-1,48
 25 602.430523473 25 602.430523473 25 750 c 0,49,50
 25 1046.53475371 25 1046.53475371 185.82000052 1280.35857025 c 0,51,52
 371.742115386 1550 371.742115386 1550 667 1550 c 0,53,54
 901.066664445 1550 901.066664445 1550 1047.99575581 1339.62425554 c 0,55,0
 1175 1157.72834649 1175 1157.72834649 1175 925 c 128,-1,1
791 750 m 128,-1,57
 791 823.683373272 791 823.683373272 754.575161435 887.215068444 c 0,58,59
 734.774593355 922.064068264 734.774593355 922.064068264 713.981066112 936.032034132 c 128,-1,60
 693.187538868 950 693.187538868 950 667 950 c 128,-1,61
 640.811006855 950 640.811006855 950 620.018235952 936.032085527 c 128,-1,62
 599.225465049 922.064171055 599.225465049 922.064171055 579.424838565 887.215068444 c 0,63,64
 543 823.683373272 543 823.683373272 543 750 c 128,-1,65
 543 676.316626728 543 676.316626728 579.424838565 612.784931556 c 0,66,67
 599.225406645 577.935931736 599.225406645 577.935931736 620.018933888 563.967965868 c 128,-1,68
 640.812461132 550 640.812461132 550 667 550 c 128,-1,69
 693.188993145 550 693.188993145 550 713.981764048 563.967914473 c 128,-1,70
 734.774534951 577.935828945 734.774534951 577.935828945 754.575161435 612.784931556 c 0,71,56
 791 676.316626728 791 676.316626728 791 750 c 128,-1,57
EndSplineSet
EndChar

StartChar: A
Encoding: 65 65 36
Width: 1200
Flags: W
LayerCount: 2
Fore
SplineSet
1176 72 m 0,0,1
 1176 17 1176 17 1139.5 -16.5 c 128,-1,2
 1103 -50 1103 -50 1048 -50 c 0,3,4
 1007.30060653 -50 1007.30060653 -50 975.892690035 -26.7841018105 c 128,-1,5
 944.484773538 -3.56820362097 944.484773538 -3.56820362097 931.565835097 35.1886116992 c 2,6,-1
 809.962038997 400 l 1,7,-1
 390.037961003 400 l 1,8,-1
 268.434164903 35.1886116992 l 2,9,10
 255.515417554 -3.56763034668 255.515417554 -3.56763034668 224.108029045 -26.7838151733 c 128,-1,11
 192.700640537 -50 192.700640537 -50 152 -50 c 0,12,13
 97 -50 97 -50 60.5 -16.5 c 128,-1,14
 24 17 24 17 24 72 c 0,15,16
 24 92.8971350203 24 92.8971350203 31.8325201188 115.611443365 c 2,17,-1
 477.565835097 1452.8113883 l 2,18,19
 492.000971541 1496.11679763 492.000971541 1496.11679763 524.002295545 1523.05839882 c 128,-1,20
 556.003619549 1550 556.003619549 1550 600 1550 c 128,-1,21
 643.811974055 1550 643.811974055 1550 675.914415945 1523.03165475 c 128,-1,22
 708.016857835 1496.0633095 708.016857835 1496.0633095 722.434164903 1452.8113883 c 2,23,-1
 1168.16747988 115.611443365 l 2,24,25
 1176 92.8971350203 1176 92.8971350203 1176 72 c 0,0,1
726.628705664 650 m 1,26,-1
 600 1029.88611699 l 1,27,-1
 473.371294336 650 l 1,28,-1
 726.628705664 650 l 1,26,-1
EndSplineSet
EndChar

StartChar: B
Encoding: 66 66 37
Width: 1200
Flags: W
LayerCount: 2
Fore
SplineSet
1175 449 m 0,0,1
 1175 242.289321881 1175 242.289321881 1028.35533906 95.6446609407 c 0,2,3
 955.760061741 23.0493836223 955.760061741 23.0493836223 866.280412659 -13.9753081888 c 128,-1,4
 776.800763576 -51 776.800763576 -51 673.941037818 -51 c 2,5,-1
 249.941037818 -50 l 2,6,7
 199.289321881 -50 199.289321881 -50 162.144660941 -12.8553390593 c 128,-1,8
 125 24.2893218813 125 24.2893218813 125 75 c 2,9,-1
 125 1425 l 2,10,11
 125 1475.71067812 125 1475.71067812 162.144660941 1512.85533906 c 128,-1,12
 199.289321881 1550 199.289321881 1550 250 1550 c 2,13,-1
 675 1550 l 2,14,15
 850.710678119 1550 850.710678119 1550 975.355339059 1425.35533906 c 128,-1,16
 1100 1300.71067812 1100 1300.71067812 1100 1125 c 0,17,18
 1100 956.885355995 1100 956.885355995 990.370097052 838.752572036 c 1,19,20
 1175 694.811381496 1175 694.811381496 1175 449 c 0,0,1
850 1125 m 128,-1,22
 850 1197.28932188 850 1197.28932188 798.644660941 1248.64466094 c 128,-1,23
 747.289321881 1300 747.289321881 1300 675 1300 c 2,24,-1
 375 1300 l 1,25,-1
 375 950 l 1,26,-1
 675 950 l 2,27,28
 747.289321881 950 747.289321881 950 798.644660941 1001.35533906 c 128,-1,21
 850 1052.71067812 850 1052.71067812 850 1125 c 128,-1,22
925 449 m 128,-1,30
 925 552.372245646 925 552.372245646 851.544646439 626.244959171 c 128,-1,31
 778.206300756 700 778.206300756 700 675 700 c 2,32,-1
 375 700 l 1,33,-1
 375 199.857346938 l 1,34,-1
 675.071428426 199 l 2,35,36
 778.289321881 199 778.289321881 199 851.644660941 272.355339059 c 128,-1,29
 925 345.710678119 925 345.710678119 925 449 c 128,-1,30
EndSplineSet
EndChar

StartChar: C
Encoding: 67 67 38
Width: 1200
Flags: W
LayerCount: 2
Fore
SplineSet
1176 273 m 0,0,1
 1176 235.610491425 1176 235.610491425 1150.15584942 197.604387633 c 0,2,3
 1073.02220831 87.4134717647 1073.02220831 87.4134717647 942.81782526 18.770156849 c 0,4,5
 878.095941133 -15.3510038203 878.095941133 -15.3510038203 811.408874933 -32.6755019102 c 128,-1,6
 744.721808734 -50 744.721808734 -50 677 -50 c 0,7,8
 380.208195661 -50 380.208195661 -50 190.204391257 217.091062192 c 0,9,10
 25 451.130616472 25 451.130616472 25 750 c 128,-1,11
 25 1048.86938353 25 1048.86938353 190.204391257 1282.90893781 c 0,12,13
 380.208195661 1550 380.208195661 1550 677 1550 c 0,14,15
 812.372845205 1550 812.372845205 1550 942.81782526 1481.22984315 c 0,16,17
 1073.02220831 1412.58652824 1073.02220831 1412.58652824 1150.15584942 1302.39561237 c 0,18,19
 1176 1264.38950858 1176 1264.38950858 1176 1227 c 0,20,21
 1176 1175.97368916 1176 1175.97368916 1137.47315238 1138.2665617 c 0,22,23
 1099.39644803 1101 1099.39644803 1101 1048 1101 c 0,24,25
 1013.27371562 1101 1013.27371562 1101 973.878821608 1128.50209582 c 0,26,27
 941.173285676 1151.33426241 941.173285676 1151.33426241 927.610257103 1178.81809729 c 0,28,29
 922.878617954 1183.96408902 922.878617954 1183.96408902 914.225399592 1193.06364643 c 0,30,31
 806.872833284 1300 806.872833284 1300 677 1300 c 0,32,33
 557.538869482 1300 557.538869482 1300 455.80314346 1206.15756307 c 0,34,35
 361.908814419 1120.46759287 361.908814419 1120.46759287 315.08195776 989.168759497 c 0,36,37
 275 877.31213319 275 877.31213319 275 750 c 128,-1,38
 275 622.68786681 275 622.68786681 315.08195776 510.831240503 c 0,39,40
 361.952139691 379.410926462 361.952139691 379.410926462 454.900843875 293.752316724 c 0,41,42
 556.538869482 200 556.538869482 200 677 200 c 0,43,44
 806.408768664 200 806.408768664 200 914.789261746 307.499350862 c 0,45,46
 916.926652476 309.619364431 916.926652476 309.619364431 919.302969324 311.467610869 c 128,-1,47
 921.538532895 313.206382535 921.538532895 313.206382535 925.758542292 317.878074895 c 0,48,49
 936.519661843 345.353273749 936.519661843 345.353273749 973.442084807 370.38542491 c 0,50,51
 1015.64858306 399 1015.64858306 399 1048 399 c 0,52,53
 1099.39644803 399 1099.39644803 399 1137.47315238 361.7334383 c 0,54,55
 1176 324.02631084 1176 324.02631084 1176 273 c 0,0,1
EndSplineSet
EndChar

StartChar: D
Encoding: 68 68 39
Width: 1200
Flags: W
LayerCount: 2
Fore
SplineSet
1175 750 m 128,-1,1
 1175 419.289321881 1175 419.289321881 940.355339059 184.644660941 c 128,-1,2
 705.710678119 -50 705.710678119 -50 375 -50 c 2,3,-1
 250 -50 l 2,4,5
 199.289321881 -50 199.289321881 -50 162.144660941 -12.8553390593 c 128,-1,6
 125 24.2893218813 125 24.2893218813 125 75 c 2,7,-1
 125 1425 l 2,8,9
 125 1475.71067812 125 1475.71067812 162.144660941 1512.85533906 c 128,-1,10
 199.289321881 1550 199.289321881 1550 250 1550 c 2,11,-1
 375 1550 l 2,12,13
 705.710678119 1550 705.710678119 1550 940.355339059 1315.35533906 c 128,-1,0
 1175 1080.71067812 1175 1080.71067812 1175 750 c 128,-1,1
925 750 m 128,-1,15
 925 977.289321881 925 977.289321881 763.644660941 1138.64466094 c 128,-1,16
 602.289321881 1300 602.289321881 1300 375 1300 c 1,17,-1
 375 200 l 1,18,19
 602.289321881 200 602.289321881 200 763.644660941 361.355339059 c 128,-1,14
 925 522.710678119 925 522.710678119 925 750 c 128,-1,15
EndSplineSet
EndChar

StartChar: E
Encoding: 69 69 40
Width: 1200
Flags: W
LayerCount: 2
Fore
SplineSet
1175 75 m 128,-1,1
 1175 20 1175 20 1140 -15 c 128,-1,2
 1105 -50 1105 -50 1050 -50 c 2,3,-1
 250 -50 l 2,4,5
 199.289321881 -50 199.289321881 -50 162.144660941 -12.8553390593 c 128,-1,6
 125 24.2893218813 125 24.2893218813 125 75 c 2,7,-1
 125 1425 l 2,8,9
 125 1475.71067812 125 1475.71067812 162.144660941 1512.85533906 c 128,-1,10
 199.289321881 1550 199.289321881 1550 250 1550 c 2,11,-1
 1050 1550 l 2,12,13
 1105 1550 1105 1550 1140 1515 c 128,-1,14
 1175 1480 1175 1480 1175 1425 c 128,-1,15
 1175 1370 1175 1370 1140 1335 c 128,-1,16
 1105 1300 1105 1300 1050 1300 c 2,17,-1
 375 1300 l 1,18,-1
 375 875 l 1,19,-1
 1050 875 l 2,20,21
 1105 875 1105 875 1140 840 c 128,-1,22
 1175 805 1175 805 1175 750 c 128,-1,23
 1175 695 1175 695 1140 660 c 128,-1,24
 1105 625 1105 625 1050 625 c 2,25,-1
 375 625 l 1,26,-1
 375 200 l 1,27,-1
 1050 200 l 2,28,29
 1105 200 1105 200 1140 165 c 128,-1,0
 1175 130 1175 130 1175 75 c 128,-1,1
EndSplineSet
EndChar

StartChar: F
Encoding: 70 70 41
Width: 1200
Flags: W
LayerCount: 2
Fore
SplineSet
1175 750 m 128,-1,1
 1175 695 1175 695 1140 660 c 128,-1,2
 1105 625 1105 625 1050 625 c 2,3,-1
 375 625 l 1,4,-1
 375 75 l 2,5,6
 375 20 375 20 340 -15 c 128,-1,7
 305 -50 305 -50 250 -50 c 128,-1,8
 195 -50 195 -50 160 -15 c 128,-1,9
 125 20 125 20 125 75 c 2,10,-1
 125 1426 l 2,11,12
 125 1481 125 1481 159.5 1515.5 c 128,-1,13
 194 1550 194 1550 249 1550 c 2,14,-1
 1050 1550 l 2,15,16
 1105 1550 1105 1550 1140 1515 c 128,-1,17
 1175 1480 1175 1480 1175 1425 c 128,-1,18
 1175 1370 1175 1370 1140 1335 c 128,-1,19
 1105 1300 1105 1300 1050 1300 c 2,20,-1
 375 1300 l 1,21,-1
 375 875 l 1,22,-1
 1050 875 l 2,23,24
 1105 875 1105 875 1140 840 c 128,-1,0
 1175 805 1175 805 1175 750 c 128,-1,1
EndSplineSet
EndChar

StartChar: G
Encoding: 71 71 42
Width: 1200
Flags: W
LayerCount: 2
Fore
SplineSet
1126 1227 m 0,0,1
 1126 1175.97368916 1126 1175.97368916 1087.47315238 1138.2665617 c 0,2,3
 1049.39644803 1101 1049.39644803 1101 998 1101 c 0,4,5
 945.31158867 1101 945.31158867 1101 901.769991681 1150.76182513 c 0,6,7
 888.965387042 1166.52133853 888.965387042 1166.52133853 861.056138485 1199.26537866 c 0,8,9
 762.105184928 1300 762.105184928 1300 648 1300 c 0,10,11
 533.230939529 1300 533.230939529 1300 436.938056694 1200.23710337 c 0,12,13
 350.177170619 1110.73639984 350.177170619 1110.73639984 308.701672979 978.014807391 c 0,14,15
 275 871.292842957 275 871.292842957 275 750 c 128,-1,16
 275 628.707157043 275 628.707157043 308.701672979 521.985192609 c 0,17,18
 350.177170619 389.263600161 350.177170619 389.263600161 436.938056694 299.762896631 c 0,19,20
 533.230939529 200 533.230939529 200 648 200 c 0,21,22
 773.958403442 200 773.958403442 200 875 316.1738512 c 1,23,-1
 875 750 l 2,24,25
 875 805 875 805 910 840 c 128,-1,26
 945 875 945 875 1000 875 c 128,-1,27
 1055 875 1055 875 1090 840 c 128,-1,28
 1125 805 1125 805 1125 750 c 2,29,-1
 1125 272 l 2,30,31
 1125 139.232540955 1125 139.232540955 932.750313439 35.0007831805 c 0,32,33
 774.584299166 -50 774.584299166 -50 648 -50 c 0,34,35
 503.835774503 -50 503.835774503 -50 385.152634014 19.875939862 c 128,-1,36
 266.469493526 89.751879724 266.469493526 89.751879724 178.210486132 224.547454652 c 0,37,38
 25 457.004743957 25 457.004743957 25 750 c 128,-1,39
 25 1042.99525604 25 1042.99525604 178.210486132 1275.45254535 c 0,40,41
 266.469294019 1410.24781557 266.469294019 1410.24781557 385.152086898 1480.12390779 c 128,-1,42
 503.834879776 1550 503.834879776 1550 648 1550 c 0,43,44
 780.075293721 1550 780.075293721 1550 905.578641173 1479.54198038 c 0,45,46
 1026.90788113 1410.67943878 1026.90788113 1410.67943878 1101.26289149 1300.24037927 c 0,47,48
 1126 1264.68078579 1126 1264.68078579 1126 1227 c 0,0,1
EndSplineSet
EndChar

StartChar: H
Encoding: 72 72 43
Width: 1200
Flags: W
HStem: 0 21G<212.5 287.5 912.5 987.5> 675 150<325 875> 1480 20G<212.5 287.5 912.5 987.5>
VStem: 175 150<2.21558 675 825 1497.78> 875 150<2.21558 675 825 1497.78>
LayerCount: 2
Fore
SplineSet
1075 75 m 2,0,1
 1075 20 1075 20 1040 -15 c 128,-1,2
 1005 -50 1005 -50 950 -50 c 128,-1,3
 895 -50 895 -50 860 -15 c 128,-1,4
 825 20 825 20 825 75 c 2,5,-1
 825 625 l 1,6,-1
 375 625 l 1,7,-1
 375 75 l 2,8,9
 375 20 375 20 340 -15 c 128,-1,10
 305 -50 305 -50 250 -50 c 128,-1,11
 195 -50 195 -50 160 -15 c 128,-1,12
 125 20 125 20 125 75 c 2,13,-1
 125 1425 l 2,14,15
 125 1480 125 1480 160 1515 c 128,-1,16
 195 1550 195 1550 250 1550 c 128,-1,17
 305 1550 305 1550 340 1515 c 128,-1,18
 375 1480 375 1480 375 1425 c 2,19,-1
 375 875 l 1,20,-1
 825 875 l 1,21,-1
 825 1425 l 2,22,23
 825 1480 825 1480 860 1515 c 128,-1,24
 895 1550 895 1550 950 1550 c 128,-1,25
 1005 1550 1005 1550 1040 1515 c 128,-1,26
 1075 1480 1075 1480 1075 1425 c 2,27,-1
 1075 75 l 2,0,1
EndSplineSet
EndChar

StartChar: I
Encoding: 73 73 44
Width: 1200
Flags: W
HStem: 0 150<227.216 525 675 972.784> 1350 150<227.216 525 675 972.784>
VStem: 525 150<150 1350>
LayerCount: 2
Fore
SplineSet
1025 75 m 128,-1,1
 1025 20 1025 20 990 -15 c 128,-1,2
 955 -50 955 -50 900 -50 c 2,3,-1
 300 -50 l 2,4,5
 245 -50 245 -50 210 -15 c 128,-1,6
 175 20 175 20 175 75 c 128,-1,7
 175 130 175 130 210 165 c 128,-1,8
 245 200 245 200 300 200 c 2,9,-1
 475 200 l 1,10,-1
 475 1300 l 1,11,-1
 300 1300 l 2,12,13
 245 1300 245 1300 210 1335 c 128,-1,14
 175 1370 175 1370 175 1425 c 128,-1,15
 175 1480 175 1480 210 1515 c 128,-1,16
 245 1550 245 1550 300 1550 c 2,17,-1
 900 1550 l 2,18,19
 955 1550 955 1550 990 1515 c 128,-1,20
 1025 1480 1025 1480 1025 1425 c 128,-1,21
 1025 1370 1025 1370 990 1335 c 128,-1,22
 955 1300 955 1300 900 1300 c 2,23,-1
 725 1300 l 1,24,-1
 725 200 l 1,25,-1
 900 200 l 2,26,27
 955 200 955 200 990 165 c 128,-1,0
 1025 130 1025 130 1025 75 c 128,-1,1
EndSplineSet
EndChar

StartChar: J
Encoding: 74 74 45
Width: 1200
Flags: W
LayerCount: 2
Fore
SplineSet
1075 75 m 2,0,1
 1075 -162.710678119 1075 -162.710678119 906.355339059 -331.355339059 c 128,-1,2
 737.710678119 -500 737.710678119 -500 500 -500 c 0,3,4
 375.047582589 -500 375.047582589 -500 252.218239005 -443.476762245 c 0,5,6
 120.827103216 -383.853893903 120.827103216 -383.853893903 50.9318779374 -283.520425359 c 0,7,8
 24 -244.618823894 24 -244.618823894 24 -208 c 0,9,10
 24 -155.649793681 24 -155.649793681 62.9214250437 -118.38459949 c 0,11,12
 100.923117844 -82 100.923117844 -82 152 -82 c 0,13,14
 199.198729896 -82 199.198729896 -82 242.917670674 -124.211391097 c 0,15,16
 370.503259705 -250 370.503259705 -250 500 -250 c 0,17,18
 634.289321881 -250 634.289321881 -250 729.644660941 -154.644660941 c 128,-1,19
 825 -59.2893218813 825 -59.2893218813 825 75 c 2,20,-1
 825 1300 l 1,21,-1
 150 1300 l 2,22,23
 95 1300 95 1300 60 1335 c 128,-1,24
 25 1370 25 1370 25 1425 c 128,-1,25
 25 1480 25 1480 60 1515 c 128,-1,26
 95 1550 95 1550 150 1550 c 2,27,-1
 951 1550 l 2,28,29
 1006 1550 1006 1550 1040.5 1515.5 c 128,-1,30
 1075 1481 1075 1481 1075 1426 c 2,31,-1
 1075 75 l 2,0,1
EndSplineSet
EndChar

StartChar: K
Encoding: 75 75 46
Width: 1200
Flags: W
LayerCount: 2
Fore
SplineSet
1176 75 m 0,0,1
 1176 24.2893218814 1176 24.2893218814 1138.35533906 -13.3553390593 c 128,-1,2
 1100.71067812 -51 1100.71067812 -51 1049 -51 c 0,3,4
 997.845685872 -51 997.845685872 -51 959.983989325 -11.6820843533 c 2,5,-1
 375 595.801289177 l 1,6,-1
 375 75 l 2,7,8
 375 20 375 20 340 -15 c 128,-1,9
 305 -50 305 -50 250 -50 c 128,-1,10
 195 -50 195 -50 160 -15 c 128,-1,11
 125 20 125 20 125 75 c 2,12,-1
 125 1425 l 2,13,14
 125 1480 125 1480 160 1515 c 128,-1,15
 195 1550 195 1550 250 1550 c 128,-1,16
 305 1550 305 1550 340 1515 c 128,-1,17
 375 1480 375 1480 375 1425 c 2,18,-1
 375 904.198710823 l 1,19,-1
 959.942237278 1511.63872646 l 2,20,21
 997.663457756 1551 997.663457756 1551 1049 1551 c 0,22,23
 1100.71067812 1551 1100.71067812 1551 1138.35533906 1513.35533906 c 128,-1,24
 1176 1475.71067812 1176 1475.71067812 1176 1425 c 0,25,26
 1176 1375.68129109 1176 1375.68129109 1140.01387112 1338.31569394 c 2,27,-1
 573.417697182 750 l 1,28,-1
 1140.07308714 161.622820097 l 2,29,30
 1176 124.06286574 1176 124.06286574 1176 75 c 0,0,1
EndSplineSet
EndChar

StartChar: L
Encoding: 76 76 47
Width: 1200
Flags: W
HStem: 0 150<325 1122.78> 1480 20G<212.5 287.5>
VStem: 175 150<150 1497.78>
LayerCount: 2
Fore
SplineSet
1175 75 m 128,-1,1
 1175 20 1175 20 1140 -15 c 128,-1,2
 1105 -50 1105 -50 1050 -50 c 2,3,-1
 250 -50 l 2,4,5
 195 -50 195 -50 160 -15.5 c 128,-1,6
 125 19 125 19 125 74 c 2,7,-1
 125 1425 l 2,8,9
 125 1480 125 1480 160 1515 c 128,-1,10
 195 1550 195 1550 250 1550 c 128,-1,11
 305 1550 305 1550 340 1515 c 128,-1,12
 375 1480 375 1480 375 1425 c 2,13,-1
 375 200 l 1,14,-1
 1050 200 l 2,15,16
 1105 200 1105 200 1140 165 c 128,-1,0
 1175 130 1175 130 1175 75 c 128,-1,1
EndSplineSet
EndChar

StartChar: M
Encoding: 77 77 48
Width: 1200
Flags: W
LayerCount: 2
Fore
SplineSet
1175 73 m 0,0,1
 1175 18 1175 18 1139.5 -16 c 128,-1,2
 1104 -50 1104 -50 1049 -50 c 0,3,4
 1000.04526846 -50 1000.04526846 -50 966.203165284 -19.8744939349 c 128,-1,5
 932.361062107 10.2510121302 932.361062107 10.2510121302 926.40505816 58.6435442001 c 2,6,-1
 831.30429527 772.267873484 l 1,7,-1
 723.438154874 354.600143814 l 2,8,9
 711.726341628 308.441821017 711.726341628 308.441821017 679.030238356 279.220910509 c 128,-1,10
 646.334135085 250 646.334135085 250 600 250 c 128,-1,11
 553.669773197 250 553.669773197 250 520.971585064 279.2214257 c 128,-1,12
 488.273396932 308.4428514 488.273396932 308.4428514 476.561845126 354.600143814 c 2,13,-1
 368.69570473 772.267873484 l 1,14,-1
 273.59494184 58.6435442001 l 2,15,16
 267.639103406 10.2523569245 267.639103406 10.2523569245 233.797138832 -19.8738215378 c 128,-1,17
 199.955174258 -50 199.955174258 -50 151 -50 c 0,18,19
 96 -50 96 -50 60.5 -16 c 128,-1,20
 25 18 25 18 25 73 c 0,21,22
 25 82.2974133569 25 82.2974133569 26.5501570154 92.4438956393 c 2,23,-1
 205.400969444 1432.32623903 l 2,24,25
 211.646816883 1483.68098464 211.646816883 1483.68098464 245.243775414 1516.84049232 c 128,-1,26
 278.840733945 1550 278.840733945 1550 330 1550 c 0,27,28
 375.907176756 1550 375.907176756 1550 408.691370997 1521.57069606 c 128,-1,29
 441.475565237 1493.14139212 441.475565237 1493.14139212 453.400344323 1447.54664856 c 2,30,-1
 600 876.935681075 l 1,31,-1
 746.599655677 1447.54664856 l 2,32,33
 758.474361156 1492.94993421 758.474361156 1492.94993421 790.402430791 1521.4749671 c 128,-1,34
 822.330500426 1550 822.330500426 1550 868 1550 c 0,35,36
 919.704051178 1550 919.704051178 1550 954.005219635 1517.03287186 c 128,-1,37
 988.306388093 1484.06574373 988.306388093 1484.06574373 994.599030556 1432.32623903 c 2,38,-1
 1173.44984298 92.4438956393 l 2,39,40
 1175 82.2974133569 1175 82.2974133569 1175 73 c 0,0,1
EndSplineSet
EndChar

StartChar: N
Encoding: 78 78 49
Width: 1200
Flags: W
LayerCount: 2
Fore
SplineSet
1076 74.0185048087 m 2,0,1
 1076 18.1940817362 1076 18.1940817362 1040.01745038 -16.4029591319 c 128,-1,2
 1004.03490075 -51 1004.03490075 -51 948 -51 c 0,3,4
 910.89836657 -51 910.89836657 -51 881.586885905 -29.3326927608 c 128,-1,5
 852.275405241 -7.66538552162 852.275405241 -7.66538552162 834.539165692 27.1249305167 c 2,6,-1
 375 912.194045667 l 1,7,-1
 375 75 l 2,8,9
 375 20 375 20 340 -15 c 128,-1,10
 305 -50 305 -50 250 -50 c 128,-1,11
 194.85810024 -50 194.85810024 -50 159.92905012 -15.0741496424 c 128,-1,12
 125 19.8517007152 125 19.8517007152 125 74.9814951913 c 2,13,-1
 124 1425.98149519 l 2,14,15
 124 1481.80591826 124 1481.80591826 159.982549624 1516.40295913 c 128,-1,16
 195.965099248 1551 195.965099248 1551 252 1551 c 0,17,18
 289.10163343 1551 289.10163343 1551 318.413114095 1529.33269276 c 128,-1,19
 347.724594759 1507.66538552 347.724594759 1507.66538552 365.460834308 1472.87506948 c 2,20,-1
 825 587.805954333 l 1,21,-1
 825 1425 l 2,22,23
 825 1480 825 1480 860 1515 c 128,-1,24
 895 1550 895 1550 950 1550 c 128,-1,25
 1005.14189976 1550 1005.14189976 1550 1040.07094988 1515.07414964 c 128,-1,26
 1075 1480.14829928 1075 1480.14829928 1075 1425.01850481 c 2,27,-1
 1076 74.0185048087 l 2,0,1
EndSplineSet
EndChar

StartChar: O
Encoding: 79 79 50
Width: 1200
Flags: W
LayerCount: 2
Fore
SplineSet
1175 750 m 128,-1,1
 1175 467.695587752 1175 467.695587752 1042.36930449 236.118182889 c 0,2,3
 961.965884726 96.2162325034 961.965884726 96.2162325034 850.20721017 23.1081162517 c 128,-1,4
 738.448535615 -50 738.448535615 -50 600 -50 c 128,-1,5
 461.55193366 -50 461.55193366 -50 349.792927488 23.1082849964 c 128,-1,6
 238.033921315 96.2165699928 238.033921315 96.2165699928 157.630695512 236.118182889 c 0,7,8
 25 467.695587752 25 467.695587752 25 750 c 128,-1,9
 25 1032.30441225 25 1032.30441225 157.630695512 1263.88181711 c 0,10,11
 238.034115274 1403.7837675 238.034115274 1403.7837675 349.79278983 1476.89188375 c 128,-1,12
 461.551464385 1550 461.551464385 1550 600 1550 c 128,-1,13
 738.44806634 1550 738.44806634 1550 850.207072512 1476.891715 c 128,-1,14
 961.966078685 1403.78343001 961.966078685 1403.78343001 1042.36930449 1263.88181711 c 0,15,0
 1175 1032.30441225 1175 1032.30441225 1175 750 c 128,-1,1
925 750 m 128,-1,17
 925 873.967987617 925 873.967987617 893.937161247 982.217274181 c 0,18,19
 857.813227876 1108.18791363 857.813227876 1108.18791363 783.524466554 1198.06814338 c 0,20,21
 698.581252701 1300 698.581252701 1300 600 1300 c 128,-1,22
 501.418747299 1300 501.418747299 1300 416.475533446 1198.06814338 c 0,23,24
 342.186770873 1108.18791212 342.186770873 1108.18791212 306.060395263 982.208756142 c 0,25,26
 275 873.96798477 275 873.96798477 275 750 c 128,-1,27
 275 626.032012383 275 626.032012383 306.062838753 517.782725819 c 0,28,29
 342.186772124 391.812086371 342.186772124 391.812086371 416.475533446 301.931856623 c 0,30,31
 501.418747299 200 501.418747299 200 600 200 c 128,-1,32
 698.581252701 200 698.581252701 200 783.524466554 301.931856623 c 0,33,34
 857.813229127 391.812087885 857.813229127 391.812087885 893.939604737 517.791243858 c 0,35,16
 925 626.03201523 925 626.03201523 925 750 c 128,-1,17
EndSplineSet
EndChar

StartChar: P
Encoding: 80 80 51
Width: 1200
Flags: W
LayerCount: 2
Fore
SplineSet
1175 1050 m 128,-1,1
 1175 843.289321881 1175 843.289321881 1028.35533906 696.644660941 c 128,-1,2
 881.710678119 550 881.710678119 550 675 550 c 2,3,-1
 375 550 l 1,4,-1
 375 75 l 2,5,6
 375 20 375 20 340 -15 c 128,-1,7
 305 -50 305 -50 250 -50 c 128,-1,8
 195 -50 195 -50 160 -15 c 128,-1,9
 125 20 125 20 125 75 c 2,10,-1
 125 1425 l 2,11,12
 125 1475.71067812 125 1475.71067812 162.144660941 1512.85533906 c 128,-1,13
 199.289321881 1550 199.289321881 1550 250 1550 c 2,14,-1
 675 1550 l 2,15,16
 881.710678119 1550 881.710678119 1550 1028.35533906 1403.35533906 c 128,-1,0
 1175 1256.71067812 1175 1256.71067812 1175 1050 c 128,-1,1
925 1050 m 128,-1,18
 925 1153.28932188 925 1153.28932188 851.644660941 1226.64466094 c 128,-1,19
 778.289321881 1300 778.289321881 1300 675 1300 c 2,20,-1
 375 1300 l 1,21,-1
 375 800 l 1,22,-1
 675 800 l 2,23,24
 778.289321881 800 778.289321881 800 851.644660941 873.355339059 c 128,-1,17
 925 946.710678119 925 946.710678119 925 1050 c 128,-1,18
EndSplineSet
EndChar

StartChar: Q
Encoding: 81 81 52
Width: 1200
Flags: W
LayerCount: 2
Fore
SplineSet
1175 -375 m 128,-1,1
 1175 -430 1175 -430 1140 -465 c 128,-1,2
 1105 -500 1105 -500 1050 -500 c 0,3,4
 852.441586744 -500 852.441586744 -500 702.624969161 -341.305360635 c 0,5,6
 590.661827929 -222.467289678 590.661827929 -222.467289678 530.268477944 -44.9548520683 c 1,7,8
 291.870024893 -8.97888968218 291.870024893 -8.97888968218 149.145866894 250.982969529 c 0,9,10
 25 478.233030963 25 478.233030963 25 750 c 0,11,12
 25 1032.30441225 25 1032.30441225 157.630695512 1263.88181711 c 0,13,14
 238.034115274 1403.7837675 238.034115274 1403.7837675 349.79278983 1476.89188375 c 128,-1,15
 461.551464385 1550 461.551464385 1550 600 1550 c 128,-1,16
 738.44806634 1550 738.44806634 1550 850.207072512 1476.891715 c 128,-1,17
 961.966078685 1403.78343001 961.966078685 1403.78343001 1042.36930449 1263.88181711 c 0,18,19
 1175 1032.30441225 1175 1032.30441225 1175 750 c 0,20,21
 1175 505.621461468 1175 505.621461468 1074.10612449 295.425887494 c 0,22,23
 967.036671582 70.7712318339 967.036671582 70.7712318339 783.399755953 -10.8468183707 c 1,24,25
 819.709982562 -96.5515045591 819.709982562 -96.5515045591 877.133649436 -160.517108166 c 0,26,27
 958.174759022 -250 958.174759022 -250 1050 -250 c 0,28,29
 1105 -250 1105 -250 1140 -285 c 128,-1,0
 1175 -320 1175 -320 1175 -375 c 128,-1,1
925 750 m 0,30,31
 925 873.967987617 925 873.967987617 893.937161247 982.217274181 c 0,32,33
 857.813227876 1108.18791363 857.813227876 1108.18791363 783.524466554 1198.06814338 c 0,34,35
 698.581252701 1300 698.581252701 1300 600 1300 c 128,-1,36
 501.418747299 1300 501.418747299 1300 416.475533446 1198.06814338 c 0,37,38
 342.154174571 1108.14847461 342.154174571 1108.14847461 306.063959211 983.220806059 c 0,39,40
 275 874.026282772 275 874.026282772 275 750 c 0,41,42
 275 574.39936204 275 574.39936204 340.820077655 423.013183433 c 0,43,44
 395.159214552 299.170499342 395.159214552 299.170499342 476.431341268 242.898528331 c 1,45,46
 475 271.760965419 475 271.760965419 475 300 c 0,47,48
 475 355 475 355 510 390 c 128,-1,49
 545 425 545 425 600 425 c 128,-1,50
 655 425 655 425 690 390 c 128,-1,51
 725 355 725 355 725 300 c 0,52,53
 725 273.272356024 725 273.272356024 726.488694464 246.569087048 c 1,54,55
 809.658076852 306.242408492 809.658076852 306.242408492 862.949507484 431.477270478 c 0,56,57
 925 579.082229949 925 579.082229949 925 750 c 0,30,31
EndSplineSet
EndChar

StartChar: R
Encoding: 82 82 53
Width: 1200
Flags: W
LayerCount: 2
Fore
SplineSet
375 777.226796523 m 1,0,1
 409.673486496 800 409.673486496 800 464 800 c 2,2,-1
 675 800 l 2,3,4
 778.289321881 800 778.289321881 800 851.644660941 873.355339059 c 128,-1,5
 925 946.710678119 925 946.710678119 925 1050 c 128,-1,6
 925 1153.28932188 925 1153.28932188 851.644660941 1226.64466094 c 128,-1,7
 778.289321881 1300 778.289321881 1300 675 1300 c 2,8,-1
 375 1300 l 1,9,-1
 375 777.226796523 l 1,0,1
375 573.289321881 m 1,10,-1
 375 75 l 2,11,12
 375 20 375 20 340 -15 c 128,-1,13
 305 -50 305 -50 250 -50 c 128,-1,14
 195 -50 195 -50 160 -15 c 128,-1,15
 125 20 125 20 125 75 c 2,16,-1
 125 1426 l 2,17,18
 125 1481 125 1481 159.5 1515.5 c 128,-1,19
 194 1550 194 1550 249 1550 c 2,20,-1
 675 1550 l 2,21,22
 881.710678119 1550 881.710678119 1550 1028.35533906 1403.35533906 c 128,-1,23
 1175 1256.71067812 1175 1256.71067812 1175 1050 c 128,-1,24
 1175 843.289321881 1175 843.289321881 1028.35533906 696.644660941 c 0,25,26
 908.478652508 576.767974389 908.478652508 576.767974389 746.974790096 554.735888022 c 1,27,-1
 1138.35533906 163.355339059 l 2,28,29
 1176 125.710678119 1176 125.710678119 1176 76 c 0,30,31
 1176 24.2893218814 1176 24.2893218814 1138.35533906 -13.3553390593 c 128,-1,32
 1100.71067812 -51 1100.71067812 -51 1049 -51 c 0,33,34
 999.289321881 -51 999.289321881 -51 961.644660941 -13.3553390593 c 2,35,-1
 375 573.289321881 l 1,10,-1
EndSplineSet
EndChar

StartChar: S
Encoding: 83 83 54
Width: 1200
Flags: W
LayerCount: 2
Fore
SplineSet
1175 450 m 128,-1,1
 1175 221.269115465 1175 221.269115465 972.038427256 76.2965635048 c 0,2,3
 795.007346787 -50 795.007346787 -50 568 -50 c 0,4,5
 420.957088658 -50 420.957088658 -50 282.557500652 7.93471125807 c 0,6,7
 205.97325473 40.523752076 205.97325473 40.523752076 147.318888528 85.9003313059 c 128,-1,8
 88.6645223252 131.276910536 88.6645223252 131.276910536 48.5502064773 190.035908397 c 0,9,10
 24 226.861218113 24 226.861218113 24 264 c 0,11,12
 24 315.350206319 24 315.350206319 62.9214250437 352.61540051 c 0,13,14
 100.923117844 389 100.923117844 389 152 389 c 0,15,16
 202.693500893 389 202.693500893 389 246.513570676 342.157856439 c 0,17,18
 247.592511077 341.004506355 247.592511077 341.004506355 248.596511781 339.785362643 c 0,19,20
 260.912655971 324.830044698 260.912655971 324.830044698 288.714562202 296.027965615 c 0,21,22
 396.176091307 200 396.176091307 200 568 200 c 0,23,24
 700.760865416 200 700.760865416 200 809.56524458 267.440730887 c 0,25,26
 925 339.691261258 925 339.691261258 925 450 c 128,-1,27
 925 560.308738742 925 560.308738742 809.56524458 632.559269113 c 0,28,29
 700.760865416 700 700.760865416 700 568 700 c 0,30,31
 376.861972668 700 376.861972668 700 227.784763708 807.423282927 c 0,32,33
 57 930.388312797 57 930.388312797 57 1125 c 128,-1,34
 57 1319.61168258 57 1319.61168258 227.769050673 1442.56539907 c 0,35,36
 376.861966254 1550 376.861966254 1550 568 1550 c 0,37,38
 691.262885098 1550 691.262885098 1550 805.576160604 1501.00859621 c 0,39,40
 934.226639139 1446.66485959 934.226639139 1446.66485959 1001.61345958 1350.17394695 c 0,41,42
 1028 1313.76052118 1028 1313.76052118 1028 1275 c 0,43,44
 1028 1223.33839938 1028 1223.33839938 988.197056444 1186.02313979 c 0,45,46
 949.772373998 1150 949.772373998 1150 900 1150 c 0,47,48
 851.289321881 1150 851.289321881 1150 805.494852872 1195.79446901 c 0,49,50
 703.040675343 1300 703.040675343 1300 568 1300 c 0,51,52
 471.020800127 1300 471.020800127 1300 390.890384437 1251.22496436 c 0,53,54
 345.846013133 1224.11492608 345.846013133 1224.11492608 326.423006567 1193.72543742 c 128,-1,55
 307 1163.33594876 307 1163.33594876 307 1125 c 128,-1,56
 307 1086.663651 307 1086.663651 326.423269034 1056.27420449 c 128,-1,57
 345.846538067 1025.88475799 345.846538067 1025.88475799 390.890384437 998.775035638 c 0,58,59
 471.020800127 950 471.020800127 950 568 950 c 0,60,61
 795.007332454 950 795.007332454 950 972.061909686 823.68667356 c 0,62,0
 1175 678.730894765 1175 678.730894765 1175 450 c 128,-1,1
EndSplineSet
EndChar

StartChar: T
Encoding: 84 84 55
Width: 1200
Flags: W
HStem: 0 21G<562.5 637.5> 1350 150<77.2156 525 675 1122.78>
VStem: 525 150<2.21558 1350>
LayerCount: 2
Fore
SplineSet
1175 1425 m 128,-1,1
 1175 1370 1175 1370 1140 1335 c 128,-1,2
 1105 1300 1105 1300 1050 1300 c 2,3,-1
 725 1300 l 1,4,-1
 725 75 l 2,5,6
 725 20 725 20 690 -15 c 128,-1,7
 655 -50 655 -50 600 -50 c 128,-1,8
 545 -50 545 -50 510 -15 c 128,-1,9
 475 20 475 20 475 75 c 2,10,-1
 475 1300 l 1,11,-1
 150 1300 l 2,12,13
 95 1300 95 1300 60 1335 c 128,-1,14
 25 1370 25 1370 25 1425 c 128,-1,15
 25 1480 25 1480 60 1515 c 128,-1,16
 95 1550 95 1550 150 1550 c 2,17,-1
 1050 1550 l 2,18,19
 1105 1550 1105 1550 1140 1515 c 128,-1,0
 1175 1480 1175 1480 1175 1425 c 128,-1,1
EndSplineSet
EndChar

StartChar: U
Encoding: 85 85 56
Width: 1200
Flags: W
LayerCount: 2
Fore
SplineSet
1125 475 m 2,0,1
 1125 257.289321881 1125 257.289321881 971.355339059 103.644660941 c 128,-1,2
 817.710678119 -50 817.710678119 -50 600 -50 c 128,-1,3
 382.289321881 -50 382.289321881 -50 228.644660941 103.644660941 c 128,-1,4
 75 257.289321881 75 257.289321881 75 475 c 2,5,-1
 75 1425 l 2,6,7
 75 1480 75 1480 110 1515 c 128,-1,8
 145 1550 145 1550 200 1550 c 128,-1,9
 255 1550 255 1550 290 1515 c 128,-1,10
 325 1480 325 1480 325 1425 c 2,11,-1
 325 475 l 2,12,13
 325 361.710678119 325 361.710678119 405.855339059 280.855339059 c 128,-1,14
 486.710678119 200 486.710678119 200 600 200 c 128,-1,15
 713.289321881 200 713.289321881 200 794.144660941 280.855339059 c 128,-1,16
 875 361.710678119 875 361.710678119 875 475 c 2,17,-1
 875 1425 l 2,18,19
 875 1480 875 1480 910 1515 c 128,-1,20
 945 1550 945 1550 1000 1550 c 128,-1,21
 1055 1550 1055 1550 1090 1515 c 128,-1,22
 1125 1480 1125 1480 1125 1425 c 2,23,-1
 1125 475 l 2,0,1
EndSplineSet
EndChar

StartChar: V
Encoding: 86 86 57
Width: 1200
Flags: W
LayerCount: 2
Fore
SplineSet
1176 1428 m 0,0,1
 1176 1407.10286498 1176 1407.10286498 1168.16747988 1384.38855664 c 2,2,-1
 722.434164903 47.1886116992 l 2,3,4
 707.999028459 3.88320236709 707.999028459 3.88320236709 675.997704455 -23.0583988165 c 128,-1,5
 643.996380451 -50 643.996380451 -50 600 -50 c 128,-1,6
 556.188025945 -50 556.188025945 -50 524.085584055 -23.0316547522 c 128,-1,7
 491.983142165 3.93669049563 491.983142165 3.93669049563 477.565835097 47.1886116992 c 2,8,-1
 31.8325201188 1384.38855664 l 2,9,10
 24 1407.10286498 24 1407.10286498 24 1428 c 0,11,12
 24 1483 24 1483 60.5 1516.5 c 128,-1,13
 97 1550 97 1550 152 1550 c 0,14,15
 192.699393467 1550 192.699393467 1550 224.107309965 1526.78410181 c 128,-1,16
 255.515226462 1503.56820362 255.515226462 1503.56820362 268.434164903 1464.8113883 c 2,17,-1
 600 470.113883008 l 1,18,-1
 931.565835097 1464.8113883 l 2,19,20
 944.484582446 1503.56763035 944.484582446 1503.56763035 975.891970955 1526.78381517 c 128,-1,21
 1007.29935946 1550 1007.29935946 1550 1048 1550 c 0,22,23
 1103 1550 1103 1550 1139.5 1516.5 c 128,-1,24
 1176 1483 1176 1483 1176 1428 c 0,0,1
EndSplineSet
EndChar

StartChar: W
Encoding: 87 87 58
Width: 1200
Flags: W
LayerCount: 2
Fore
SplineSet
1175 1428 m 0,0,1
 1175 1416.44660941 1175 1416.44660941 1173.41398136 1405.34447895 c 2,2,-1
 949.319696192 63.7800506347 l 2,3,4
 940.964892606 13.6512291185 940.964892606 13.6512291185 907.390364693 -18.1743854407 c 128,-1,5
 873.81583678 -50 873.81583678 -50 824 -50 c 0,6,7
 778.102826891 -50 778.102826891 -50 745.732653157 -21.1069260077 c 128,-1,8
 713.362479424 7.78614798451 713.362479424 7.78614798451 701.536030251 53.7005977136 c 2,9,-1
 600 459.844718719 l 1,10,-1
 498.550434388 54.0464562707 l 2,11,12
 487.437736041 8.20657559018 487.437736041 8.20657559018 454.813747139 -20.8967122049 c 128,-1,13
 422.189758236 -50 422.189758236 -50 376 -50 c 0,14,15
 325.853435758 -50 325.853435758 -50 292.065173837 -17.9867820406 c 128,-1,16
 258.276911916 14.0264359187 258.276911916 14.0264359187 250.626010492 64.1050634231 c 2,17,-1
 26.5860186372 1405.34447895 l 2,18,19
 25 1416.44660941 25 1416.44660941 25 1428 c 0,20,21
 25 1483 25 1483 60.5 1516.5 c 128,-1,22
 96 1550 96 1550 151 1550 c 0,23,24
 198.665077315 1550 198.665077315 1550 232.281230616 1520.995025 c 128,-1,25
 265.897383918 1491.99004999 265.897383918 1491.99004999 273.35019516 1445.03733917 c 2,26,-1
 399.750612544 688.157731458 l 1,27,-1
 476.428826878 994.870588795 l 2,28,29
 487.493392876 1041.20345891 487.493392876 1041.20345891 520.394318384 1070.60172945 c 128,-1,30
 553.295243892 1100 553.295243892 1100 600 1100 c 0,31,32
 646.374984118 1100 646.374984118 1100 679.046445383 1070.79571137 c 128,-1,33
 711.717906647 1041.59142273 711.717906647 1041.59142273 723.485850018 995.211881209 c 2,34,-1
 800.249387456 688.157731458 l 1,35,-1
 926.64980484 1445.03733917 l 2,36,37
 934.102261201 1491.98781424 934.102261201 1491.98781424 967.71752399 1520.99390712 c 128,-1,38
 1001.33278678 1550 1001.33278678 1550 1049 1550 c 0,39,40
 1104 1550 1104 1550 1139.5 1516.5 c 128,-1,41
 1175 1483 1175 1483 1175 1428 c 0,0,1
EndSplineSet
EndChar

StartChar: X
Encoding: 88 88 59
Width: 1200
Flags: W
LayerCount: 2
Fore
SplineSet
1176 74 m 0,0,1
 1176 22.3383993767 1176 22.3383993767 1136.19705644 -14.976860207 c 0,2,3
 1097.772374 -51 1097.772374 -51 1048 -51 c 0,4,5
 984.457718377 -51 984.457718377 -51 946.491183571 5.12444275665 c 2,6,-1
 600 524.861218113 l 1,7,-1
 253.508816429 5.12444275665 l 2,8,9
 215.542281623 -51 215.542281623 -51 152 -51 c 0,10,11
 102.227626002 -51 102.227626002 -51 63.8029435559 -14.976860207 c 0,12,13
 24 22.3383993767 24 22.3383993767 24 74 c 0,14,15
 24 111.138781887 24 111.138781887 46.3974852831 144.735009811 c 2,16,-1
 449.907478742 750 l 1,17,-1
 46.3974852831 1355.26499019 l 2,18,19
 24 1388.86121811 24 1388.86121811 24 1426 c 0,20,21
 24 1477.66160062 24 1477.66160062 63.8029435559 1514.97686021 c 0,22,23
 102.227626002 1551 102.227626002 1551 152 1551 c 0,24,25
 215.542281623 1551 215.542281623 1551 253.508816429 1494.87555724 c 2,26,-1
 600 975.138781887 l 1,27,-1
 946.491183571 1494.87555724 l 2,28,29
 984.457718377 1551 984.457718377 1551 1048 1551 c 0,30,31
 1097.772374 1551 1097.772374 1551 1136.19705644 1514.97686021 c 0,32,33
 1176 1477.66160062 1176 1477.66160062 1176 1426 c 0,34,35
 1176 1388.86121811 1176 1388.86121811 1153.60251472 1355.26499019 c 2,36,-1
 750.092521258 750 l 1,37,-1
 1153.60251472 144.735009811 l 2,38,39
 1176 111.138781887 1176 111.138781887 1176 74 c 0,0,1
EndSplineSet
EndChar

StartChar: Y
Encoding: 89 89 60
Width: 1200
Flags: W
LayerCount: 2
Fore
SplineSet
1176 1426 m 0,0,1
 1176 1388.86122369 1176 1388.86122369 1153.61227112 1355.27963037 c 2,2,-1
 725 711.870820637 l 1,3,-1
 725 75 l 2,4,5
 725 20 725 20 690 -15 c 128,-1,6
 655 -50 655 -50 600 -50 c 128,-1,7
 545 -50 545 -50 510 -15 c 128,-1,8
 475 20 475 20 475 75 c 2,9,-1
 475 711.870820637 l 1,10,-1
 46.3974852831 1355.26499019 l 2,11,12
 24 1388.86121811 24 1388.86121811 24 1426 c 0,13,14
 24 1477.66160062 24 1477.66160062 63.8029435559 1514.97686021 c 0,15,16
 102.227626002 1551 102.227626002 1551 152 1551 c 0,17,18
 215.542281623 1551 215.542281623 1551 253.508816429 1494.87555724 c 2,19,-1
 600 975.138781887 l 1,20,-1
 946.491183571 1494.87555724 l 2,21,22
 984.457718377 1551 984.457718377 1551 1048 1551 c 0,23,24
 1097.772374 1551 1097.772374 1551 1136.19705644 1514.97686021 c 0,25,26
 1176 1477.66160062 1176 1477.66160062 1176 1426 c 0,0,1
EndSplineSet
EndChar

StartChar: Z
Encoding: 90 90 61
Width: 1200
Flags: W
LayerCount: 2
Fore
SplineSet
1176 1426 m 0,0,1
 1176 1389.05876567 1176 1389.05876567 1146.70041257 1344.41177531 c 2,2,-1
 383.447059975 200 l 1,3,-1
 1050 200 l 2,4,5
 1105 200 1105 200 1140 165 c 128,-1,6
 1175 130 1175 130 1175 75 c 128,-1,7
 1175 19.8601264015 1175 19.8601264015 1140.07348934 -15.0699367993 c 128,-1,8
 1105.14697868 -50 1105.14697868 -50 1050.02787067 -50 c 2,9,-1
 153.027870671 -51 l 2,10,11
 96.6758094052 -51 96.6758094052 -51 60.3379047026 -16.5278206774 c 128,-1,12
 24 17.9443586451 24 17.9443586451 24 74 c 0,13,14
 24 110.941234329 24 110.941234329 53.2995874279 155.588224695 c 2,15,-1
 816.552940025 1300 l 1,16,-1
 150 1300 l 2,17,18
 95 1300 95 1300 60 1335 c 128,-1,19
 25 1370 25 1370 25 1425 c 128,-1,20
 25 1480.1398736 25 1480.1398736 59.9265106601 1515.0699368 c 128,-1,21
 94.8530213202 1550 94.8530213202 1550 149.972129329 1550 c 2,22,-1
 1046.97212933 1551 l 2,23,24
 1103.32419059 1551 1103.32419059 1551 1139.6620953 1516.52782068 c 128,-1,25
 1176 1482.05564135 1176 1482.05564135 1176 1426 c 0,0,1
EndSplineSet
EndChar

StartChar: bracketleft
Encoding: 91 91 62
Width: 1200
Flags: W
LayerCount: 2
Fore
SplineSet
950 -375 m 128,-1,1
 950 -430 950 -430 915 -465 c 128,-1,2
 880 -500 880 -500 825 -500 c 2,3,-1
 375 -500 l 2,4,5
 324.289321881 -500 324.289321881 -500 287.144660941 -462.855339059 c 128,-1,6
 250 -425.710678119 250 -425.710678119 250 -375 c 2,7,-1
 250 1425 l 2,8,9
 250 1475.71067812 250 1475.71067812 287.144660941 1512.85533906 c 128,-1,10
 324.289321881 1550 324.289321881 1550 375 1550 c 2,11,-1
 825 1550 l 2,12,13
 880 1550 880 1550 915 1515 c 128,-1,14
 950 1480 950 1480 950 1425 c 128,-1,15
 950 1370 950 1370 915 1335 c 128,-1,16
 880 1300 880 1300 825 1300 c 2,17,-1
 500 1300 l 1,18,-1
 500 -250 l 1,19,-1
 825 -250 l 2,20,21
 880 -250 880 -250 915 -285 c 128,-1,0
 950 -320 950 -320 950 -375 c 128,-1,1
EndSplineSet
EndChar

StartChar: backslash
Encoding: 92 92 63
Width: 1200
Flags: W
LayerCount: 2
Fore
SplineSet
1176 -378 m 0,0,1
 1176 -431.337264524 1176 -431.337264524 1135.36241608 -467.741766786 c 0,2,3
 1097.12066738 -502 1097.12066738 -502 1048 -502 c 0,4,5
 1012.57384838 -502 1012.57384838 -502 983.415040268 -483.157930215 c 128,-1,6
 954.256232157 -464.315860431 954.256232157 -464.315860431 938.273674721 -432.350745559 c 2,7,-1
 38.27864045 1368.63932023 l 2,8,9
 24 1397.19660113 24 1397.19660113 24 1427 c 0,10,11
 24 1480.33726452 24 1480.33726452 64.6375839207 1516.74176679 c 0,12,13
 102.879332625 1551 102.879332625 1551 152 1551 c 0,14,15
 187.426151621 1551 187.426151621 1551 216.584959732 1532.15793022 c 128,-1,16
 245.743767843 1513.31586043 245.743767843 1513.31586043 261.726325279 1481.35074556 c 2,17,-1
 1161.72135955 -319.639320225 l 2,18,19
 1176 -348.196601125 1176 -348.196601125 1176 -378 c 0,0,1
EndSplineSet
EndChar

StartChar: bracketright
Encoding: 93 93 64
Width: 1200
Flags: W
LayerCount: 2
Fore
SplineSet
950 1425 m 2,0,-1
 950 -375 l 2,1,2
 950 -425.710678119 950 -425.710678119 912.855339059 -462.855339059 c 128,-1,3
 875.710678119 -500 875.710678119 -500 825 -500 c 2,4,-1
 375 -500 l 2,5,6
 320 -500 320 -500 285 -465 c 128,-1,7
 250 -430 250 -430 250 -375 c 128,-1,8
 250 -320 250 -320 285 -285 c 128,-1,9
 320 -250 320 -250 375 -250 c 2,10,-1
 700 -250 l 1,11,-1
 700 1300 l 1,12,-1
 375 1300 l 2,13,14
 320 1300 320 1300 285 1335 c 128,-1,15
 250 1370 250 1370 250 1425 c 128,-1,16
 250 1480 250 1480 285 1515 c 128,-1,17
 320 1550 320 1550 375 1550 c 2,18,-1
 825 1550 l 2,19,20
 875.710678119 1550 875.710678119 1550 912.855339059 1512.85533906 c 128,-1,21
 950 1475.71067812 950 1475.71067812 950 1425 c 2,0,-1
EndSplineSet
EndChar

StartChar: asciicircum
Encoding: 94 94 65
Width: 1200
Flags: W
LayerCount: 2
Fore
SplineSet
1026 1126 m 0,0,1
 1026 1074.28932188 1026 1074.28932188 988.355339059 1036.64466094 c 128,-1,2
 950.710678119 999 950.710678119 999 899 999 c 0,3,4
 849.289321881 999 849.289321881 999 811.644660941 1036.64466094 c 2,5,-1
 600 1248.28932188 l 1,6,-1
 388.355339059 1036.64466094 l 2,7,8
 350.710678119 999 350.710678119 999 301 999 c 0,9,10
 249.289321881 999 249.289321881 999 211.644660941 1036.64466094 c 128,-1,11
 174 1074.28932188 174 1074.28932188 174 1126 c 0,12,13
 174 1175.71067812 174 1175.71067812 211.644660941 1213.35533906 c 2,14,-1
 511.644660941 1513.35533906 l 2,15,16
 549.289321881 1551 549.289321881 1551 599 1551 c 0,17,18
 650.710678119 1551 650.710678119 1551 688.355339059 1513.35533906 c 2,19,-1
 988.355339059 1213.35533906 l 2,20,21
 1026 1175.71067812 1026 1175.71067812 1026 1126 c 0,0,1
EndSplineSet
EndChar

StartChar: underscore
Encoding: 95 95 66
Width: 1200
Flags: W
LayerCount: 2
Fore
SplineSet
1175 75 m 128,-1,1
 1175 20 1175 20 1140 -15 c 128,-1,2
 1105 -50 1105 -50 1050 -50 c 2,3,-1
 150 -50 l 2,4,5
 95 -50 95 -50 60 -15 c 128,-1,6
 25 20 25 20 25 75 c 128,-1,7
 25 130 25 130 60 165 c 128,-1,8
 95 200 95 200 150 200 c 2,9,-1
 1050 200 l 2,10,11
 1105 200 1105 200 1140 165 c 128,-1,0
 1175 130 1175 130 1175 75 c 128,-1,1
EndSplineSet
EndChar

StartChar: grave
Encoding: 96 96 67
Width: 1200
Flags: W
LayerCount: 2
Fore
SplineSet
501 1047 m 0,0,1
 501 994.662735476 501 994.662735476 460.362416079 958.258233214 c 0,2,3
 422.120667375 924 422.120667375 924 373 924 c 0,4,5
 334.233573908 924 334.233573908 924 303.55424135 945.653223109 c 128,-1,6
 272.874908793 967.306446217 272.874908793 967.306446217 258.542767122 1003.51396202 c 2,7,-1
 108.374346538 1378.93501348 l 2,8,9
 99 1403.93327091 99 1403.93327091 99 1428 c 0,10,11
 99 1480.33726452 99 1480.33726452 139.637583921 1516.74176679 c 0,12,13
 177.879332625 1551 177.879332625 1551 227 1551 c 0,14,15
 265.766426092 1551 265.766426092 1551 296.44575865 1529.34677689 c 128,-1,16
 327.125091207 1507.69355378 327.125091207 1507.69355378 341.457232878 1471.48603798 c 2,17,-1
 491.625653462 1096.06498652 l 2,18,19
 501 1071.06672909 501 1071.06672909 501 1047 c 0,0,1
EndSplineSet
EndChar

StartChar: a
Encoding: 97 97 68
Width: 1200
Flags: W
LayerCount: 2
Fore
SplineSet
1125 75 m 2,0,1
 1125 20 1125 20 1090 -15 c 128,-1,2
 1055 -50 1055 -50 1000 -50 c 0,3,4
 962.389962201 -50 962.389962201 -50 932.155424015 -30.3264884434 c 128,-1,5
 901.92088583 -10.6529768868 901.92088583 -10.6529768868 887.701788255 24.0068234034 c 1,6,7
 749.229138663 -50 749.229138663 -50 575 -50 c 0,8,9
 375.427948939 -50 375.427948939 -50 217.106563878 50.8485534975 c 0,10,11
 123.577669983 110.618497525 123.577669983 110.618497525 74.2888349915 192.862426177 c 128,-1,12
 25 275.106354828 25 275.106354828 25 375 c 128,-1,13
 25 474.917291336 25 474.917291336 74.2811317501 557.144474124 c 128,-1,14
 123.5622635 639.371656912 123.5622635 639.371656912 217.171627187 699.193025422 c 0,15,16
 376.511683779 800 376.511683779 800 575 800 c 0,17,18
 722.742410938 800 722.742410938 800 844.828878717 746.777155005 c 1,19,20
 766.033083685 850 766.033083685 850 575 850 c 0,21,22
 458.504320222 850 458.504320222 850 343.079376583 782.74452103 c 0,23,24
 305.388873465 761 305.388873465 761 273 761 c 0,25,26
 221.649793681 761 221.649793681 761 184.38459949 799.921425044 c 0,27,28
 148 837.923117844 148 837.923117844 148 889 c 0,29,30
 148 921.589858748 148 921.589858748 162.883486461 948.786633819 c 128,-1,31
 177.766972921 975.983408889 177.766972921 975.983408889 205.647047024 996.392126769 c 128,-1,32
 233.527121127 1016.80084465 233.527121127 1016.80084465 265.76143307 1031.69415566 c 128,-1,33
 297.995745014 1046.58746667 297.995745014 1046.58746667 340.130817048 1059.73790316 c 0,34,35
 469.393338474 1100 469.393338474 1100 575 1100 c 0,36,37
 773.488316221 1100 773.488316221 1100 932.828372813 999.193025422 c 0,38,39
 1026.4379198 939.371539774 1026.4379198 939.371539774 1075.7189599 857.144507058 c 128,-1,40
 1125 774.917474341 1125 774.917474341 1125 675 c 2,41,-1
 1125 75 l 2,0,1
875 375 m 128,-1,43
 875 423.436564419 875 423.436564419 823.973443762 468.459996394 c 0,44,45
 775.301886436 511.154344926 775.301886436 511.154344926 707.551782299 531.131939735 c 0,46,47
 646.455206203 550 646.455206203 550 575 550 c 0,48,49
 370.343822378 550 370.343822378 550 294.078188369 430.99208759 c 0,50,51
 275 401.314905683 275 401.314905683 275 375 c 128,-1,52
 275 348.685094317 275 348.685094317 294.078188369 319.00791241 c 0,53,54
 370.343822378 200 370.343822378 200 575 200 c 0,55,56
 646.455206203 200 646.455206203 200 707.551782299 218.868060265 c 0,57,58
 775.301886436 238.845655074 775.301886436 238.845655074 823.973443762 281.540003606 c 0,59,42
 875 326.563435581 875 326.563435581 875 375 c 128,-1,43
EndSplineSet
EndChar

StartChar: b
Encoding: 98 98 69
Width: 1200
Flags: W
LayerCount: 2
Fore
SplineSet
1175 525 m 128,-1,1
 1175 292.36548779 1175 292.36548779 1018.68106449 124.022018779 c 0,2,3
 857.875907896 -50 857.875907896 -50 625 -50 c 128,-1,4
 392.124092104 -50 392.124092104 -50 231.31893551 124.022018779 c 0,5,6
 75 292.36548779 75 292.36548779 75 525 c 2,7,-1
 75 1425 l 2,8,9
 75 1480 75 1480 110 1515 c 128,-1,10
 145 1550 145 1550 200 1550 c 128,-1,11
 255 1550 255 1550 290 1515 c 128,-1,12
 325 1480 325 1480 325 1425 c 2,13,-1
 325 1008.27981513 l 1,14,15
 457.101282767 1100 457.101282767 1100 625 1100 c 0,16,17
 857.875907896 1100 857.875907896 1100 1018.68106449 925.977981221 c 0,18,0
 1175 757.63451221 1175 757.63451221 1175 525 c 128,-1,1
925 525 m 128,-1,20
 925 656.813199738 925 656.813199738 838.786534429 752.605939262 c 0,21,22
 751.644480084 850 751.644480084 850 625 850 c 128,-1,23
 498.355519916 850 498.355519916 850 411.213465571 752.605939262 c 0,24,25
 325 656.813199738 325 656.813199738 325 525 c 128,-1,26
 325 393.186800262 325 393.186800262 411.213465571 297.394060738 c 0,27,28
 498.355519916 200 498.355519916 200 625 200 c 128,-1,29
 751.644480084 200 751.644480084 200 838.786534429 297.394060738 c 0,30,19
 925 393.186800262 925 393.186800262 925 525 c 128,-1,20
EndSplineSet
EndChar

StartChar: c
Encoding: 99 99 70
Width: 1200
Flags: W
LayerCount: 2
Fore
SplineSet
1176 845 m 0,0,1
 1176 793.603551968 1176 793.603551968 1138.7334383 755.526847622 c 0,2,3
 1101.02631084 717 1101.02631084 717 1050 717 c 0,4,5
 1013.63724044 717 1013.63724044 717 972.512719937 744.90592463 c 0,6,7
 824.090385423 850 824.090385423 850 677 850 c 0,8,9
 521.600237613 850 521.600237613 850 400.912112329 759.934234863 c 0,10,11
 275 665.93135648 275 665.93135648 275 525 c 128,-1,12
 275 384.170997354 275 384.170997354 401.914848029 290.064069223 c 0,13,14
 521.700060096 200 521.700060096 200 677 200 c 0,15,16
 823.284474395 200 823.284474395 200 972.309981887 303.949891029 c 0,17,18
 1012.17066306 332 1012.17066306 332 1049 332 c 0,19,20
 1101.02631084 332 1101.02631084 332 1138.7334383 293.473152378 c 0,21,22
 1176 255.396448032 1176 255.396448032 1176 205 c 0,23,24
 1176 155.425368571 1176 155.425368571 1132.79366856 113.084098957 c 0,25,26
 1054.2612258 34.964831349 1054.2612258 34.964831349 917.579507334 -9.51096593043 c 0,27,28
 795.046904229 -50 795.046904229 -50 677 -50 c 0,29,30
 424.325945043 -50 424.325945043 -50 233.671458155 104.031591101 c 0,31,32
 25 270.968757626 25 270.968757626 25 525 c 128,-1,33
 25 779.031242374 25 779.031242374 233.671458155 945.968408899 c 0,34,35
 424.325945043 1100 424.325945043 1100 677 1100 c 0,36,37
 795.046899371 1100 795.046899371 1100 917.699206925 1059.47141142 c 0,38,39
 1055.9649433 1013.74573482 1055.9649433 1013.74573482 1134.35533906 935.355339059 c 0,40,41
 1176 893.710678119 1176 893.710678119 1176 845 c 0,0,1
EndSplineSet
EndChar

StartChar: d
Encoding: 100 100 71
Width: 1200
Flags: W
LayerCount: 2
Fore
SplineSet
1075 75 m 2,0,1
 1075 20 1075 20 1040 -15 c 128,-1,2
 1005 -50 1005 -50 950 -50 c 0,3,4
 908.769843079 -50 908.769843079 -50 876.610218395 -27.6295892183 c 128,-1,5
 844.450593711 -5.25917843653 844.450593711 -5.25917843653 832.961538752 34.1318671366 c 0,6,7
 832.423304883 36.0156856783 832.423304883 36.0156856783 831.804859929 38.5146613982 c 1,8,9
 768.870550537 -5.99490649477 768.870550537 -5.99490649477 698.496733057 -27.9974532474 c 128,-1,10
 628.122915578 -50 628.122915578 -50 550 -50 c 0,11,12
 321.910564145 -50 321.910564145 -50 168.933348698 129.581948568 c 0,13,14
 97.4165264907 213.560035251 97.4165264907 213.560035251 61.2082632453 313.131962985 c 128,-1,15
 25 412.70389072 25 412.70389072 25 525 c 0,16,17
 25 751.405406388 25 751.405406388 168.937838476 920.42332278 c 0,18,19
 321.910563515 1100 321.910563515 1100 550 1100 c 0,20,21
 702.761644717 1100 702.761644717 1100 825 1016.23364071 c 1,22,-1
 825 1425 l 2,23,24
 825 1480 825 1480 860 1515 c 128,-1,25
 895 1550 895 1550 950 1550 c 128,-1,26
 1005 1550 1005 1550 1040 1515 c 128,-1,27
 1075 1480 1075 1480 1075 1425 c 2,28,-1
 1075 75 l 2,0,1
825 525 m 128,-1,30
 825 653.460947032 825 653.460947032 747.94054171 749.785269894 c 0,31,32
 667.937185743 850 667.937185743 850 550 850 c 128,-1,33
 432.062814257 850 432.062814257 850 352.05945829 749.785269894 c 0,34,35
 275 653.460947032 275 653.460947032 275 525 c 128,-1,36
 275 396.539052968 275 396.539052968 352.05945829 300.214730106 c 0,37,38
 432.062814257 200 432.062814257 200 550 200 c 128,-1,39
 667.937185743 200 667.937185743 200 747.94054171 300.214730106 c 0,40,29
 825 396.539052968 825 396.539052968 825 525 c 128,-1,30
EndSplineSet
EndChar

StartChar: e
Encoding: 101 101 72
Width: 1200
Flags: W
LayerCount: 2
Fore
SplineSet
1176 301 m 0,0,1
 1176 269.250299282 1176 269.250299282 1157.62556192 235.563829473 c 0,2,3
 1080.99204148 102.288141739 1080.99204148 102.288141739 930.088493301 24.6493597072 c 0,4,5
 788.362897335 -50 788.362897335 -50 632 -50 c 0,6,7
 387.59083621 -50 387.59083621 -50 210.35376218 112.014257855 c 0,8,9
 118.769006099 194.928267799 118.769006099 194.928267799 71.8845030494 299.246820489 c 128,-1,10
 25 403.565373179 25 403.565373179 25 525 c 0,11,12
 25 770.180265141 25 770.180265141 210.35376218 937.985742145 c 0,13,14
 387.59083621 1100 387.59083621 1100 632 1100 c 0,15,16
 721.940612743 1100 721.940612743 1100 818.57975803 1068.5108403 c 0,17,18
 926.089190044 1033.03272773 926.089190044 1033.03272773 1031.46710401 956.394244847 c 0,19,20
 1175 851.370174614 1175 851.370174614 1175 745 c 0,21,22
 1175 711.59735264 1175 711.59735264 1157.22612942 683.795778934 c 128,-1,23
 1139.45225883 655.994205228 1139.45225883 655.994205228 1109.69806347 639.972715417 c 2,24,-1
 415.453201006 266.289464909 l 1,25,26
 508.171798983 200 508.171798983 200 632 200 c 0,27,28
 801.61293435 200 801.61293435 200 905.559426741 316.017958122 c 0,29,30
 919.693361335 334.205160734 919.693361335 334.205160734 946.88870816 369.511400472 c 0,31,32
 990.400196986 426 990.400196986 426 1048 426 c 0,33,34
 1097.44918453 426 1097.44918453 426 1135.78623143 390.85770701 c 0,35,36
 1176 353.995085817 1176 353.995085817 1176 301 c 0,0,1
849.68753012 783.823022481 m 1,37,38
 757.548874246 850 757.548874246 850 632 850 c 0,39,40
 488.786755805 850 488.786755805 850 382.978378359 757.417669735 c 0,41,42
 275 662.396696779 275 662.396696779 275 525 c 0,43,44
 275 500.759699487 275 500.759699487 278.771576162 476.852270425 c 1,45,-1
 849.68753012 783.823022481 l 1,37,38
EndSplineSet
EndChar

StartChar: f
Encoding: 102 102 73
Width: 1200
Flags: W
HStem: 0 21G<337.5 412.5> 900 150<77.2156 300 450 897.784> 1350 150<581.855 915.181>
VStem: 300 150<2.21558 900 1050 1217.52>
LayerCount: 2
Fore
SplineSet
1176 1274 m 0,0,1
 1176 1222.64979368 1176 1222.64979368 1137.07857496 1185.38459949 c 0,2,3
 1099.07688216 1149 1099.07688216 1149 1048 1149 c 0,4,5
 1020.12983175 1149 1020.12983175 1149 997.128818089 1162.90900103 c 128,-1,6
 974.127804425 1176.81800207 974.127804425 1176.81800207 948.193841976 1202.10361546 c 0,7,8
 896.378001516 1252.06889019 896.378001516 1252.06889019 870.435486056 1268.63989977 c 0,9,10
 819.343882916 1300 819.343882916 1300 750 1300 c 0,11,12
 646.710678119 1300 646.710678119 1300 573.355339059 1226.64466094 c 0,13,14
 518.147821435 1171.43714332 518.147821435 1171.43714332 504.541712106 1100 c 1,15,-1
 825 1100 l 2,16,17
 880 1100 880 1100 915 1065 c 128,-1,18
 950 1030 950 1030 950 975 c 128,-1,19
 950 920 950 920 915 885 c 128,-1,20
 880 850 880 850 825 850 c 2,21,-1
 500 850 l 1,22,-1
 500 75 l 2,23,24
 500 20 500 20 465 -15 c 128,-1,25
 430 -50 430 -50 375 -50 c 128,-1,26
 320 -50 320 -50 285 -15 c 128,-1,27
 250 20 250 20 250 75 c 2,28,-1
 250 850 l 1,29,-1
 150 850 l 2,30,31
 95 850 95 850 60 885 c 128,-1,32
 25 920 25 920 25 975 c 128,-1,33
 25 1030 25 1030 60 1065 c 128,-1,34
 95 1100 95 1100 150 1100 c 2,35,-1
 252.250958904 1100 l 1,36,37
 268.366885238 1275.07756336 268.366885238 1275.07756336 396.644660941 1403.35533906 c 0,38,39
 543.289321881 1550 543.289321881 1550 750 1550 c 0,40,41
 863.378538532 1550 863.378538532 1550 973.566668039 1497.10969784 c 0,42,43
 1091.29656839 1441.04784053 1091.29656839 1441.04784053 1152.05311746 1347.04714197 c 0,44,45
 1176 1309.630138 1176 1309.630138 1176 1274 c 0,0,1
EndSplineSet
EndChar

StartChar: g
Encoding: 103 103 74
Width: 1200
Flags: W
LayerCount: 2
Fore
SplineSet
1175 975 m 0,0,1
 1175 927.64880856 1175 927.64880856 1145.549339 894.580277834 c 128,-1,2
 1116.09867799 861.511747107 1116.09867799 861.511747107 1069.14591814 852.843545288 c 0,3,4
 1060.46936778 851.216692096 1060.46936778 851.216692096 1043.23554185 850.511671944 c 1,5,6
 1085 769.073347498 1085 769.073347498 1085 675 c 0,7,8
 1085 506.580287536 1085 506.580287536 961.549551369 390.28808493 c 1,9,10
 1175 247.411568536 1175 247.411568536 1175 0 c 0,11,12
 1175 -222.326303224 1175 -222.326303224 988.875471916 -368.328178547 c 0,13,14
 821.293153703 -500 821.293153703 -500 600 -500 c 128,-1,15
 378.706846297 -500 378.706846297 -500 211.124528084 -368.328178547 c 0,16,17
 25 -222.326303224 25 -222.326303224 25 0 c 0,18,19
 25 55 25 55 60 90 c 128,-1,20
 95 125 95 125 150 125 c 128,-1,21
 205 125 205 125 240 90 c 128,-1,22
 275 55 275 55 275 0 c 0,23,24
 275 -109.001584388 275 -109.001584388 377.732345332 -181.079923452 c 0,25,26
 475.810915805 -250 475.810915805 -250 600 -250 c 128,-1,27
 724.189084195 -250 724.189084195 -250 822.267654668 -181.079923452 c 0,28,29
 925 -109.001584388 925 -109.001584388 925 0 c 128,-1,30
 925 109.001584388 925 109.001584388 822.267654668 181.079923452 c 0,31,32
 724.189084195 250 724.189084195 250 600 250 c 0,33,34
 413.648983697 250 413.648983697 250 272.008567695 361.763140752 c 0,35,36
 115 485.777154366 115 485.777154366 115 675 c 128,-1,37
 115 864.222838039 115 864.222838039 272.027729341 988.251986577 c 0,38,39
 413.648974075 1100 413.648974075 1100 600 1100 c 2,40,-1
 1050 1100 l 2,41,42
 1105 1100 1105 1100 1140 1065 c 128,-1,43
 1175 1030 1175 1030 1175 975 c 0,0,1
835 675 m 128,-1,45
 835 749.854593465 835 749.854593465 761.531227957 800.896056148 c 0,46,47
 690.415171344 850 690.415171344 850 600 850 c 128,-1,48
 509.584828656 850 509.584828656 850 438.468772043 800.896056148 c 0,49,50
 365 749.854593465 365 749.854593465 365 675 c 128,-1,51
 365 600.145406535 365 600.145406535 438.468772043 549.103943852 c 0,52,53
 509.584828656 500 509.584828656 500 600 500 c 128,-1,54
 690.415171344 500 690.415171344 500 761.531227957 549.103943852 c 0,55,44
 835 600.145406535 835 600.145406535 835 675 c 128,-1,45
EndSplineSet
EndChar

StartChar: h
Encoding: 104 104 75
Width: 1200
Flags: W
LayerCount: 2
Fore
SplineSet
1125 75 m 2,0,1
 1125 20 1125 20 1090 -15 c 128,-1,2
 1055 -50 1055 -50 1000 -50 c 128,-1,3
 945 -50 945 -50 910 -15 c 128,-1,4
 875 20 875 20 875 75 c 2,5,-1
 875 600 l 2,6,7
 875 703.289321881 875 703.289321881 801.644660941 776.644660941 c 128,-1,8
 728.289321881 850 728.289321881 850 625 850 c 128,-1,9
 521.710678119 850 521.710678119 850 448.355339059 776.644660941 c 128,-1,10
 375 703.289321881 375 703.289321881 375 600 c 2,11,-1
 375 75 l 2,12,13
 375 20 375 20 340 -15 c 128,-1,14
 305 -50 305 -50 250 -50 c 128,-1,15
 195 -50 195 -50 160 -15 c 128,-1,16
 125 20 125 20 125 75 c 2,17,-1
 125 1425 l 2,18,19
 125 1480 125 1480 160 1515 c 128,-1,20
 195 1550 195 1550 250 1550 c 128,-1,21
 305 1550 305 1550 340 1515 c 128,-1,22
 375 1480 375 1480 375 1425 c 2,23,-1
 375 1033.61161934 l 1,24,25
 487.959616762 1100 487.959616762 1100 625 1100 c 0,26,27
 831.710678119 1100 831.710678119 1100 978.355339059 953.355339059 c 128,-1,28
 1125 806.710678119 1125 806.710678119 1125 600 c 2,29,-1
 1125 75 l 2,0,1
EndSplineSet
EndChar

StartChar: i
Encoding: 105 105 76
Width: 1200
Flags: W
LayerCount: 2
Fore
SplineSet
764 1386 m 0,0,1
 764 1317.61546636 764 1317.61546636 715.036619715 1270.84447624 c 0,2,3
 667.043183656 1225 667.043183656 1225 600 1225 c 128,-1,4
 532.956816344 1225 532.956816344 1225 484.963380285 1270.84447624 c 0,5,6
 436 1317.61546636 436 1317.61546636 436 1386 c 0,7,8
 436 1453.71067812 436 1453.71067812 484.144660941 1501.85533906 c 128,-1,9
 532.289321881 1550 532.289321881 1550 600 1550 c 128,-1,10
 667.710678119 1550 667.710678119 1550 715.855339059 1501.85533906 c 128,-1,11
 764 1453.71067812 764 1453.71067812 764 1386 c 0,0,1
1025 75 m 128,-1,13
 1025 20 1025 20 990 -15 c 128,-1,14
 955 -50 955 -50 900 -50 c 2,15,-1
 600 -50 l 2,16,17
 545 -50 545 -50 510 -15 c 128,-1,18
 475 20 475 20 475 75 c 2,19,-1
 475 850 l 1,20,-1
 300 850 l 2,21,22
 245 850 245 850 210 885 c 128,-1,23
 175 920 175 920 175 975 c 128,-1,24
 175 1030 175 1030 210 1065 c 128,-1,25
 245 1100 245 1100 300 1100 c 2,26,-1
 601 1100 l 2,27,28
 656 1100 656 1100 690.5 1065 c 128,-1,29
 725 1030 725 1030 725 975 c 2,30,-1
 725 200 l 1,31,-1
 900 200 l 2,32,33
 955 200 955 200 990 165 c 128,-1,12
 1025 130 1025 130 1025 75 c 128,-1,13
EndSplineSet
EndChar

StartChar: j
Encoding: 106 106 77
Width: 1200
Flags: W
LayerCount: 2
Fore
SplineSet
1114 1386 m 0,0,1
 1114 1317.61546636 1114 1317.61546636 1065.03661972 1270.84447624 c 0,2,3
 1017.04318366 1225 1017.04318366 1225 950 1225 c 128,-1,4
 882.956816344 1225 882.956816344 1225 834.963380285 1270.84447624 c 0,5,6
 786 1317.61546636 786 1317.61546636 786 1386 c 0,7,8
 786 1453.71067812 786 1453.71067812 834.144660941 1501.85533906 c 128,-1,9
 882.289321881 1550 882.289321881 1550 950 1550 c 128,-1,10
 1017.71067812 1550 1017.71067812 1550 1065.85533906 1501.85533906 c 128,-1,11
 1114 1453.71067812 1114 1453.71067812 1114 1386 c 0,0,1
1075 75 m 2,12,13
 1075 -162.710678119 1075 -162.710678119 906.355339059 -331.355339059 c 128,-1,14
 737.710678119 -500 737.710678119 -500 500 -500 c 0,15,16
 375.047582589 -500 375.047582589 -500 252.218239005 -443.476762245 c 0,17,18
 120.827103216 -383.853893903 120.827103216 -383.853893903 50.9318779374 -283.520425359 c 0,19,20
 24 -244.618823894 24 -244.618823894 24 -208 c 0,21,22
 24 -155.649793681 24 -155.649793681 62.9214250437 -118.38459949 c 0,23,24
 100.923117844 -82 100.923117844 -82 152 -82 c 0,25,26
 199.198729896 -82 199.198729896 -82 242.917670674 -124.211391097 c 0,27,28
 370.503259705 -250 370.503259705 -250 500 -250 c 0,29,30
 634.289321881 -250 634.289321881 -250 729.644660941 -154.644660941 c 128,-1,31
 825 -59.2893218813 825 -59.2893218813 825 75 c 2,32,-1
 825 850 l 1,33,-1
 650 850 l 2,34,35
 595 850 595 850 560 885 c 128,-1,36
 525 920 525 920 525 975 c 128,-1,37
 525 1030 525 1030 560 1065 c 128,-1,38
 595 1100 595 1100 650 1100 c 2,39,-1
 951 1100 l 2,40,41
 1006 1100 1006 1100 1040.5 1065.5 c 128,-1,42
 1075 1031 1075 1031 1075 976 c 2,43,-1
 1075 75 l 2,12,13
EndSplineSet
EndChar

StartChar: k
Encoding: 107 107 78
Width: 1200
Flags: W
LayerCount: 2
Fore
SplineSet
1176 77 m 0,0,1
 1176 27.2276260018 1176 27.2276260018 1139.97686021 -11.1970564441 c 0,2,3
 1102.66160062 -51 1102.66160062 -51 1051 -51 c 0,4,5
 1012.86121811 -51 1012.86121811 -51 978.879814739 -28.3457310837 c 2,6,-1
 375 390.595890391 l 1,7,-1
 375 75 l 2,8,9
 375 20 375 20 340 -15 c 128,-1,10
 305 -50 305 -50 250 -50 c 128,-1,11
 195 -50 195 -50 160 -15 c 128,-1,12
 125 20 125 20 125 75 c 2,13,-1
 125 1425 l 2,14,15
 125 1480 125 1480 160 1515 c 128,-1,16
 195 1550 195 1550 250 1550 c 128,-1,17
 305 1550 305 1550 340 1515 c 128,-1,18
 375 1480 375 1480 375 1425 c 2,19,-1
 375 659.404109609 l 1,20,-1
 978.879814739 1078.34573108 l 2,21,22
 1012.86121811 1101 1012.86121811 1101 1051 1101 c 0,23,24
 1102.66160062 1101 1102.66160062 1101 1139.97686021 1061.19705644 c 0,25,26
 1176 1022.772374 1176 1022.772374 1176 973 c 0,27,28
 1176 909.902468603 1176 909.902468603 1121.51562795 871.928512326 c 2,29,-1
 619.899918119 525 l 1,30,-1
 1121.51562795 178.071487674 l 2,31,32
 1176 140.097531397 1176 140.097531397 1176 77 c 0,0,1
EndSplineSet
EndChar

StartChar: l
Encoding: 108 108 79
Width: 1200
Flags: W
HStem: 0 150<581.855 914.422> 1480 20G<337.5 412.5>
VStem: 300 150<282.482 1497.78>
LayerCount: 2
Fore
SplineSet
1176 226 m 0,0,1
 1176 190.369862002 1176 190.369862002 1151.97754359 152.834773859 c 0,2,3
 1091.27400483 60.061441035 1091.27400483 60.061441035 973.740992468 2.9739778894 c 0,4,5
 863.378538532 -50 863.378538532 -50 750 -50 c 0,6,7
 543.289321881 -50 543.289321881 -50 396.644660941 96.6446609407 c 128,-1,8
 250 243.289321881 250 243.289321881 250 450 c 2,9,-1
 250 1425 l 2,10,11
 250 1480 250 1480 285 1515 c 128,-1,12
 320 1550 320 1550 375 1550 c 128,-1,13
 430 1550 430 1550 465 1515 c 128,-1,14
 500 1480 500 1480 500 1425 c 2,15,-1
 500 450 l 2,16,17
 500 346.710678119 500 346.710678119 573.355339059 273.355339059 c 128,-1,18
 646.710678119 200 646.710678119 200 750 200 c 0,19,20
 840.083722674 200 840.083722674 200 911.404422595 262.979097591 c 0,21,22
 921.629353916 272.008130512 921.629353916 272.008130512 941.169606668 290.194920889 c 128,-1,23
 960.70985942 308.381711267 960.70985942 308.381711267 969.659353175 315.812212825 c 128,-1,24
 978.60884693 323.242714384 978.60884693 323.242714384 993.128215529 333.382832149 c 128,-1,25
 1007.64758413 343.522949914 1007.64758413 343.522949914 1020.49024667 347.261474957 c 128,-1,26
 1033.33290921 351 1033.33290921 351 1048 351 c 0,27,28
 1099.07688216 351 1099.07688216 351 1137.07857496 314.61540051 c 0,29,30
 1176 277.350206319 1176 277.350206319 1176 226 c 0,0,1
EndSplineSet
EndChar

StartChar: m
Encoding: 109 109 80
Width: 1200
Flags: W
HStem: 0 21G<112.5 187.5 562.5 637.5 1012.5 1087.5> 900 150<266.594 483.862 716.138 933.15>
VStem: 75 150<2.21558 854.621> 525 150<2.21558 854.621> 975 150<2.21558 854.621>
CounterMasks: 1 38
LayerCount: 2
Fore
SplineSet
1175 75 m 2,0,1
 1175 20 1175 20 1140 -15 c 128,-1,2
 1105 -50 1105 -50 1050 -50 c 128,-1,3
 995 -50 995 -50 960 -15 c 128,-1,4
 925 20 925 20 925 75 c 2,5,-1
 925 750 l 2,6,7
 925 791.289321881 925 791.289321881 895.644660941 820.644660941 c 128,-1,8
 866.289321881 850 866.289321881 850 825 850 c 128,-1,9
 783.710678119 850 783.710678119 850 754.355339059 820.644660941 c 128,-1,10
 725 791.289321881 725 791.289321881 725 750 c 2,11,-1
 725 75 l 2,12,13
 725 20 725 20 690 -15 c 128,-1,14
 655 -50 655 -50 600 -50 c 128,-1,15
 545 -50 545 -50 510 -15 c 128,-1,16
 475 20 475 20 475 75 c 2,17,-1
 475 750 l 2,18,19
 475 791.289321881 475 791.289321881 445.644660941 820.644660941 c 128,-1,20
 416.289321881 850 416.289321881 850 375 850 c 128,-1,21
 333.710678119 850 333.710678119 850 304.355339059 820.644660941 c 128,-1,22
 275 791.289321881 275 791.289321881 275 750 c 2,23,-1
 275 75 l 2,24,25
 275 20 275 20 240 -15 c 128,-1,26
 205 -50 205 -50 150 -50 c 128,-1,27
 95 -50 95 -50 60 -15 c 128,-1,28
 25 20 25 20 25 75 c 2,29,-1
 25 975 l 2,30,31
 25 1030 25 1030 60 1065 c 128,-1,32
 95 1100 95 1100 150 1100 c 0,33,34
 200.215942452 1100 200.215942452 1100 233.967918887 1070.28818894 c 1,35,36
 301.044583259 1100 301.044583259 1100 375 1100 c 0,37,38
 504.750950195 1100 504.750950195 1100 600 1018.24866408 c 1,39,40
 695.249049805 1100 695.249049805 1100 825 1100 c 0,41,42
 969.710678119 1100 969.710678119 1100 1072.35533906 997.355339059 c 128,-1,43
 1175 894.710678119 1175 894.710678119 1175 750 c 2,44,-1
 1175 75 l 2,0,1
EndSplineSet
EndChar

StartChar: n
Encoding: 110 110 81
Width: 1200
Flags: W
LayerCount: 2
Fore
SplineSet
1125 75 m 2,0,1
 1125 20 1125 20 1090 -15 c 128,-1,2
 1055 -50 1055 -50 1000 -50 c 128,-1,3
 945 -50 945 -50 910 -15 c 128,-1,4
 875 20 875 20 875 75 c 2,5,-1
 875 600 l 2,6,7
 875 703.289321881 875 703.289321881 801.644660941 776.644660941 c 128,-1,8
 728.289321881 850 728.289321881 850 625 850 c 128,-1,9
 521.710678119 850 521.710678119 850 448.355339059 776.644660941 c 128,-1,10
 375 703.289321881 375 703.289321881 375 600 c 2,11,-1
 375 75 l 2,12,13
 375 20 375 20 340 -15 c 128,-1,14
 305 -50 305 -50 250 -50 c 128,-1,15
 195 -50 195 -50 160 -15 c 128,-1,16
 125 20 125 20 125 75 c 2,17,-1
 125 975 l 2,18,19
 125 1030 125 1030 160 1065 c 128,-1,20
 195 1100 195 1100 250 1100 c 0,21,22
 287.290268125 1100 287.290268125 1100 316.985012944 1079.72634897 c 128,-1,23
 346.679757763 1059.45269793 346.679757763 1059.45269793 360.838226011 1024.9407617 c 1,24,25
 478.924733354 1100 478.924733354 1100 625 1100 c 0,26,27
 831.710678119 1100 831.710678119 1100 978.355339059 953.355339059 c 128,-1,28
 1125 806.710678119 1125 806.710678119 1125 600 c 2,29,-1
 1125 75 l 2,0,1
EndSplineSet
EndChar

StartChar: o
Encoding: 111 111 82
Width: 1200
Flags: W
LayerCount: 2
Fore
SplineSet
1175 525 m 128,-1,1
 1175 287.289321881 1175 287.289321881 1006.35533906 118.644660941 c 0,2,3
 950.70832965 62.9976515315 950.70832965 62.9976515315 886.476912219 25.4411620277 c 128,-1,4
 822.245494788 -12.1153274761 822.245494788 -12.1153274761 750.357750454 -31.057663738 c 128,-1,5
 678.470006119 -50 678.470006119 -50 600 -50 c 0,6,7
 362.289321881 -50 362.289321881 -50 193.644660941 118.644660941 c 128,-1,8
 25 287.289321881 25 287.289321881 25 525 c 128,-1,9
 25 762.710678119 25 762.710678119 193.644660941 931.355339059 c 128,-1,10
 362.289321881 1100 362.289321881 1100 600 1100 c 128,-1,11
 837.710678119 1100 837.710678119 1100 1006.35533906 931.355339059 c 128,-1,0
 1175 762.710678119 1175 762.710678119 1175 525 c 128,-1,1
925 525 m 128,-1,13
 925 659.289321881 925 659.289321881 829.644660941 754.644660941 c 128,-1,14
 734.289321881 850 734.289321881 850 600 850 c 128,-1,15
 465.710678119 850 465.710678119 850 370.355339059 754.644660941 c 128,-1,16
 275 659.289321881 275 659.289321881 275 525 c 128,-1,17
 275 390.710678119 275 390.710678119 370.355339059 295.355339059 c 128,-1,18
 465.710678119 200 465.710678119 200 600 200 c 128,-1,19
 734.289321881 200 734.289321881 200 829.644660941 295.355339059 c 128,-1,12
 925 390.710678119 925 390.710678119 925 525 c 128,-1,13
EndSplineSet
EndChar

StartChar: p
Encoding: 112 112 83
Width: 1200
Flags: W
LayerCount: 2
Fore
SplineSet
1175 525 m 128,-1,1
 1175 298.594593612 1175 298.594593612 1031.06216152 129.57667722 c 0,2,3
 878.089436485 -50 878.089436485 -50 650 -50 c 0,4,5
 497.238355283 -50 497.238355283 -50 375 33.7663592857 c 1,6,-1
 375 -375 l 2,7,8
 375 -430 375 -430 340 -465 c 128,-1,9
 305 -500 305 -500 250 -500 c 128,-1,10
 195 -500 195 -500 160 -465 c 128,-1,11
 125 -430 125 -430 125 -375 c 2,12,-1
 125 975 l 2,13,14
 125 1030 125 1030 160 1065 c 128,-1,15
 195 1100 195 1100 250 1100 c 0,16,17
 291.230156921 1100 291.230156921 1100 323.389781605 1077.62958922 c 128,-1,18
 355.549406289 1055.25917844 355.549406289 1055.25917844 367.038461248 1015.86813286 c 0,19,20
 367.576695117 1013.98431432 367.576695117 1013.98431432 368.195140071 1011.4853386 c 1,21,22
 493.350457229 1100 493.350457229 1100 650 1100 c 0,23,24
 878.089435855 1100 878.089435855 1100 1031.0666513 920.418051432 c 0,25,0
 1175 751.405407128 1175 751.405407128 1175 525 c 128,-1,1
925 525 m 128,-1,27
 925 653.460947032 925 653.460947032 847.94054171 749.785269894 c 0,28,29
 767.937185743 850 767.937185743 850 650 850 c 128,-1,30
 532.062814257 850 532.062814257 850 452.05945829 749.785269894 c 0,31,32
 375 653.460947032 375 653.460947032 375 525 c 128,-1,33
 375 396.539052968 375 396.539052968 452.05945829 300.214730106 c 0,34,35
 532.062814257 200 532.062814257 200 650 200 c 128,-1,36
 767.937185743 200 767.937185743 200 847.94054171 300.214730106 c 0,37,26
 925 396.539052968 925 396.539052968 925 525 c 128,-1,27
EndSplineSet
EndChar

StartChar: q
Encoding: 113 113 84
Width: 1200
Flags: W
LayerCount: 2
Fore
SplineSet
1075 -375 m 2,0,1
 1075 -430 1075 -430 1040 -465 c 128,-1,2
 1005 -500 1005 -500 950 -500 c 128,-1,3
 895 -500 895 -500 860 -465 c 128,-1,4
 825 -430 825 -430 825 -375 c 2,5,-1
 825 33.7663592857 l 1,6,7
 702.761644717 -50 702.761644717 -50 550 -50 c 0,8,9
 321.910564145 -50 321.910564145 -50 168.933348698 129.581948568 c 0,10,11
 97.4165264907 213.560035251 97.4165264907 213.560035251 61.2082632453 313.131962985 c 128,-1,12
 25 412.70389072 25 412.70389072 25 525 c 0,13,14
 25 751.405406388 25 751.405406388 168.937838476 920.42332278 c 0,15,16
 321.910563515 1100 321.910563515 1100 550 1100 c 0,17,18
 707.204856941 1100 707.204856941 1100 832.346120542 1011.09961812 c 1,19,20
 844.185824857 1052.24427925 844.185824857 1052.24427925 876.030636409 1076.12213962 c 128,-1,21
 907.87544796 1100 907.87544796 1100 950 1100 c 0,22,23
 1005 1100 1005 1100 1040 1065 c 128,-1,24
 1075 1030 1075 1030 1075 975 c 2,25,-1
 1075 -375 l 2,0,1
825 525 m 128,-1,27
 825 653.460947032 825 653.460947032 747.94054171 749.785269894 c 0,28,29
 667.937185743 850 667.937185743 850 550 850 c 128,-1,30
 432.062814257 850 432.062814257 850 352.05945829 749.785269894 c 0,31,32
 275 653.460947032 275 653.460947032 275 525 c 128,-1,33
 275 396.539052968 275 396.539052968 352.05945829 300.214730106 c 0,34,35
 432.062814257 200 432.062814257 200 550 200 c 128,-1,36
 667.937185743 200 667.937185743 200 747.94054171 300.214730106 c 0,37,26
 825 396.539052968 825 396.539052968 825 525 c 128,-1,27
EndSplineSet
EndChar

StartChar: r
Encoding: 114 114 85
Width: 1200
Flags: W
LayerCount: 2
Fore
SplineSet
1176 808 m 0,0,1
 1176 755.649793681 1176 755.649793681 1137.07857496 718.38459949 c 0,2,3
 1099.07688216 682 1099.07688216 682 1048 682 c 0,4,5
 998.773640101 682 998.773640101 682 956.271857586 726.019703319 c 0,6,7
 833.183505485 850 833.183505485 850 700 850 c 0,8,9
 565.710678119 850 565.710678119 850 470.355339059 754.644660941 c 128,-1,10
 375 659.289321881 375 659.289321881 375 525 c 2,11,-1
 375 75 l 2,12,13
 375 20 375 20 340 -15 c 128,-1,14
 305 -50 305 -50 250 -50 c 128,-1,15
 195 -50 195 -50 160 -15 c 128,-1,16
 125 20 125 20 125 75 c 2,17,-1
 125 975 l 2,18,19
 125 1030 125 1030 160 1065 c 128,-1,20
 195 1100 195 1100 250 1100 c 0,21,22
 294.268550779 1100 294.268550779 1100 327.027101204 1074.50633738 c 128,-1,23
 359.785651628 1049.01267477 359.785651628 1049.01267477 370.666660303 1005.48864007 c 0,24,25
 371.471588858 1001.86646157 371.471588858 1001.86646157 372.036901992 998.234939157 c 1,26,27
 515.253420981 1100 515.253420981 1100 700 1100 c 0,28,29
 824.952417411 1100 824.952417411 1100 947.781760995 1043.47676224 c 0,30,31
 1079.17289678 983.853893903 1079.17289678 983.853893903 1149.06812206 883.520425359 c 0,32,33
 1176 844.618823894 1176 844.618823894 1176 808 c 0,0,1
EndSplineSet
EndChar

StartChar: s
Encoding: 115 115 86
Width: 1200
Flags: W
LayerCount: 2
Fore
SplineSet
1106 338 m 0,0,1
 1106 244.588612015 1106 244.588612015 1058.21019938 168.598421845 c 128,-1,2
 1010.42039877 92.6082316752 1010.42039877 92.6082316752 920.642884041 39.0762974287 c 0,3,4
 771.820289556 -50 771.820289556 -50 587 -50 c 0,5,6
 448.952690037 -50 448.952690037 -50 322.618306061 2.90927192179 c 0,7,8
 171.049076189 66.9051689788 171.049076189 66.9051689788 109.717003246 183.783270248 c 0,9,10
 93 215.697549172 93 215.697549172 93 246 c 0,11,12
 93 297.995085817 93 297.995085817 133.213768574 334.85770701 c 0,13,14
 171.550815472 370 171.550815472 370 221 370 c 0,15,16
 280.128732719 370 280.128732719 370 324.007217883 310.991002711 c 0,17,18
 407.885914588 200 407.885914588 200 587 200 c 0,19,20
 764.487732424 200 764.487732424 200 835.479247391 291.628583272 c 0,21,22
 856 318.106973735 856 318.106973735 856 338 c 0,23,24
 856 373.557469697 856 373.557469697 806.567616233 410.577813453 c 0,25,26
 758.226107624 444.904652774 758.226107624 444.904652774 695.494279961 460.587609689 c 0,27,28
 641.447816297 475 641.447816297 475 572 475 c 0,29,30
 428.422766878 475 428.422766878 475 314.154415939 547.818066775 c 0,31,32
 246.08576036 591.082042779 246.08576036 591.082042779 209.54288018 652.401744683 c 128,-1,33
 173 713.721446588 173 713.721446588 173 788 c 0,34,35
 173 862.616182397 173 862.616182397 210.493286723 923.964818894 c 128,-1,36
 247.986573446 985.313455391 247.986573446 985.313455391 317.726541594 1028.54070837 c 0,37,38
 433.847890485 1100 433.847890485 1100 580 1100 c 0,39,40
 670.680821809 1100 670.680821809 1100 759.787094793 1068.09775412 c 0,41,42
 866.872358654 1030.09975726 866.872358654 1030.09975726 918.774382001 961.299400734 c 0,43,44
 949 922.006097334 949 922.006097334 949 882 c 0,45,46
 949 830.97368916 949 830.97368916 910.473152378 793.2665617 c 0,47,48
 872.396448032 756 872.396448032 756 821 756 c 0,49,50
 806.011661704 756 806.011661704 756 791.287784701 761.203660817 c 128,-1,51
 776.563907698 766.407321634 776.563907698 766.407321634 768.701173524 771.054401791 c 128,-1,52
 760.83843935 775.701481949 760.83843935 775.701481949 740.206230952 790.570230334 c 128,-1,53
 719.574022554 805.43897872 719.574022554 805.43897872 710.49054442 811.581762494 c 0,54,55
 653.680597469 850 653.680597469 850 580 850 c 0,56,57
 469.135721402 850 469.135721402 850 428.952097809 795.934760984 c 0,58,59
 424.54774469 790.154047515 424.54774469 790.154047515 423.035651233 786.486320828 c 0,60,61
 424.77437598 754.674612865 424.77437598 754.674612865 509.808476082 733.58615604 c 0,62,63
 545.870331449 725 545.870331449 725 598 725 c 0,64,65
 780.230703536 725 780.230703536 725 926.365350751 634.483763292 c 0,66,67
 1013.48902554 580.310709098 1013.48902554 580.310709098 1059.74451277 504.999551737 c 128,-1,68
 1106 429.688394375 1106 429.688394375 1106 338 c 0,0,1
EndSplineSet
EndChar

StartChar: t
Encoding: 116 116 87
Width: 1200
Flags: W
HStem: 0 150<581.855 915.181> 900 150<77.2156 300 450 897.784> 1480 20G<337.5 412.5>
VStem: 300 150<282.482 900 1050 1497.78>
LayerCount: 2
Fore
SplineSet
1176 226 m 0,0,1
 1176 190.369862002 1176 190.369862002 1151.97754359 152.834773859 c 0,2,3
 1091.27400483 60.061441035 1091.27400483 60.061441035 973.740992468 2.9739778894 c 0,4,5
 863.378538532 -50 863.378538532 -50 750 -50 c 0,6,7
 543.289321881 -50 543.289321881 -50 396.644660941 96.6446609407 c 128,-1,8
 250 243.289321881 250 243.289321881 250 450 c 2,9,-1
 250 850 l 1,10,-1
 150 850 l 2,11,12
 95 850 95 850 60 885 c 128,-1,13
 25 920 25 920 25 975 c 128,-1,14
 25 1030 25 1030 60 1065 c 128,-1,15
 95 1100 95 1100 150 1100 c 2,16,-1
 250 1100 l 1,17,-1
 250 1425 l 2,18,19
 250 1480 250 1480 285 1515 c 128,-1,20
 320 1550 320 1550 375 1550 c 128,-1,21
 430 1550 430 1550 465 1515 c 128,-1,22
 500 1480 500 1480 500 1425 c 2,23,-1
 500 1100 l 1,24,-1
 825 1100 l 2,25,26
 880 1100 880 1100 915 1065 c 128,-1,27
 950 1030 950 1030 950 975 c 128,-1,28
 950 920 950 920 915 885 c 128,-1,29
 880 850 880 850 825 850 c 2,30,-1
 500 850 l 1,31,-1
 500 450 l 2,32,33
 500 346.710678119 500 346.710678119 573.355339059 273.355339059 c 128,-1,34
 646.710678119 200 646.710678119 200 750 200 c 0,35,36
 819.343882916 200 819.343882916 200 870.435486056 231.360100232 c 0,37,38
 896.378001516 247.931109815 896.378001516 247.931109815 948.193841976 297.896384544 c 0,39,40
 974.200442817 323.252820364 974.200442817 323.252820364 997.220987527 337.126410182 c 128,-1,41
 1020.24153224 351 1020.24153224 351 1048 351 c 0,42,43
 1099.07688216 351 1099.07688216 351 1137.07857496 314.61540051 c 0,44,45
 1176 277.350206319 1176 277.350206319 1176 226 c 0,0,1
EndSplineSet
EndChar

StartChar: u
Encoding: 117 117 88
Width: 1200
Flags: W
LayerCount: 2
Fore
SplineSet
1125 475 m 2,0,1
 1125 257.289321881 1125 257.289321881 971.355339059 103.644660941 c 128,-1,2
 817.710678119 -50 817.710678119 -50 600 -50 c 128,-1,3
 382.289321881 -50 382.289321881 -50 228.644660941 103.644660941 c 128,-1,4
 75 257.289321881 75 257.289321881 75 475 c 2,5,-1
 75 975 l 2,6,7
 75 1030 75 1030 110 1065 c 128,-1,8
 145 1100 145 1100 200 1100 c 128,-1,9
 255 1100 255 1100 290 1065 c 128,-1,10
 325 1030 325 1030 325 975 c 2,11,-1
 325 475 l 2,12,13
 325 361.710678119 325 361.710678119 405.855339059 280.855339059 c 128,-1,14
 486.710678119 200 486.710678119 200 600 200 c 128,-1,15
 713.289321881 200 713.289321881 200 794.144660941 280.855339059 c 128,-1,16
 875 361.710678119 875 361.710678119 875 475 c 2,17,-1
 875 975 l 2,18,19
 875 1030 875 1030 910 1065 c 128,-1,20
 945 1100 945 1100 1000 1100 c 128,-1,21
 1055 1100 1055 1100 1090 1065 c 128,-1,22
 1125 1030 1125 1030 1125 975 c 2,23,-1
 1125 475 l 2,0,1
EndSplineSet
EndChar

StartChar: v
Encoding: 118 118 89
Width: 1200
Flags: W
LayerCount: 2
Fore
SplineSet
1176 977 m 0,0,1
 1176 947.196612498 1176 947.196612498 1161.73144101 918.659494514 c 2,2,-1
 718.645459686 31.4873377809 l 2,3,4
 699.719805261 -5.68805483957 699.719805261 -5.68805483957 669.260962242 -28.3440274198 c 128,-1,5
 638.802119224 -51 638.802119224 -51 600 -51 c 128,-1,6
 561.210059825 -51 561.210059825 -51 530.742279386 -28.3384333376 c 128,-1,7
 500.274498947 -5.67686667529 500.274498947 -5.67686667529 481.354540314 31.4873377809 c 2,8,-1
 38.27864045 918.639320225 l 2,9,10
 24 947.196601125 24 947.196601125 24 977 c 0,11,12
 24 1030.33726452 24 1030.33726452 64.6375839207 1066.74176679 c 0,13,14
 102.879332625 1101 102.879332625 1101 152 1101 c 0,15,16
 187.422841731 1101 187.422841731 1101 216.583830694 1082.15687978 c 128,-1,17
 245.744819656 1063.31375956 245.744819656 1063.31375956 261.72135955 1031.36067977 c 2,18,-1
 600 354.803398875 l 1,19,-1
 938.27864045 1031.36067977 l 2,20,21
 954.255199318 1063.31379751 954.255199318 1063.31379751 983.416406644 1082.15689876 c 128,-1,22
 1012.57761397 1101 1012.57761397 1101 1048 1101 c 0,23,24
 1097.12066738 1101 1097.12066738 1101 1135.36241608 1066.74176679 c 0,25,26
 1176 1030.33726452 1176 1030.33726452 1176 977 c 0,0,1
EndSplineSet
EndChar

StartChar: w
Encoding: 119 119 90
Width: 1200
Flags: W
LayerCount: 2
Fore
SplineSet
1176 978 m 0,0,1
 1176 958.481618641 1176 958.481618641 1169.83616878 938.449167163 c 2,2,-1
 902.937770469 50.7870784108 l 2,3,4
 889.876335667 6.10322251061 889.876335667 6.10322251061 857.605118671 -21.9483887447 c 128,-1,5
 825.333901676 -50 825.333901676 -50 780 -50 c 0,6,7
 734.925668569 -50 734.925668569 -50 702.52124918 -21.9366980804 c 128,-1,8
 670.116829791 6.12660383921 670.116829791 6.12660383921 657.06897206 50.7640118659 c 2,9,-1
 600 239.906890692 l 1,10,-1
 542.93102794 50.7640118659 l 2,11,12
 529.877615863 6.10760212905 529.877615863 6.10760212905 497.602892872 -21.9461989355 c 128,-1,13
 465.32816988 -50 465.32816988 -50 420 -50 c 0,14,15
 374.921401547 -50 374.921401547 -50 342.519272182 -21.9372335219 c 128,-1,16
 310.117142818 6.12553295623 310.117142818 6.12553295623 297.062229531 50.7870784108 c 2,17,-1
 30.163831224 938.449167163 l 2,18,19
 24 958.481618641 24 958.481618641 24 978 c 0,20,21
 24 1033 24 1033 60.5 1066.5 c 128,-1,22
 97 1100 97 1100 152 1100 c 0,23,24
 193.936867106 1100 193.936867106 1100 225.824629608 1075.85516642 c 128,-1,25
 257.71239211 1051.71033283 257.71239211 1051.71033283 269.881894524 1011.39885608 c 2,26,-1
 420.177493554 509.654457303 l 1,27,-1
 469.776953564 674.013452237 l 1,28,29
 456.056779279 719.588080749 456.056779279 719.588080749 439.329971477 773.880559049 c 128,-1,30
 422.603163675 828.173037349 422.603163675 828.173037349 414.454764904 854.732863747 c 128,-1,31
 406.306366133 881.292690146 406.306366133 881.292690146 398.156118141 909.636709491 c 128,-1,32
 390.005870148 937.980728837 390.005870148 937.980728837 387.002935074 953.036973856 c 128,-1,33
 384 968.093218875 384 968.093218875 384 978 c 0,34,35
 384 1033 384 1033 420.5 1066.5 c 128,-1,36
 457 1100 457 1100 512 1100 c 0,37,38
 553.936867106 1100 553.936867106 1100 585.824629608 1075.85516642 c 128,-1,39
 617.71239211 1051.71033283 617.71239211 1051.71033283 629.881894524 1011.39885608 c 2,40,-1
 780 510.246998915 l 1,41,-1
 930.118105476 1011.39885608 l 2,42,43
 942.286510618 1051.70669812 942.286510618 1051.70669812 974.170040366 1075.85334906 c 128,-1,44
 1006.05357011 1100 1006.05357011 1100 1048 1100 c 0,45,46
 1103 1100 1103 1100 1139.5 1066.5 c 128,-1,47
 1176 1033 1176 1033 1176 978 c 0,0,1
EndSplineSet
EndChar

StartChar: x
Encoding: 120 120 91
Width: 1200
Flags: W
LayerCount: 2
Fore
SplineSet
1176 974 m 0,0,1
 1176 924.289321881 1176 924.289321881 1138.35533906 886.644660941 c 2,2,-1
 776.710678119 525 l 1,3,-1
 1138.35533906 163.355339059 l 2,4,5
 1176 125.710678119 1176 125.710678119 1176 76 c 0,6,7
 1176 24.2893218814 1176 24.2893218814 1138.35533906 -13.3553390593 c 128,-1,8
 1100.71067812 -51 1100.71067812 -51 1049 -51 c 0,9,10
 999.289321881 -51 999.289321881 -51 961.644660941 -13.3553390593 c 2,11,-1
 600 348.289321881 l 1,12,-1
 238.355339059 -13.3553390593 l 2,13,14
 200.710678119 -51 200.710678119 -51 151 -51 c 0,15,16
 99.2893218813 -51 99.2893218813 -51 61.6446609407 -13.3553390593 c 128,-1,17
 24 24.2893218813 24 24.2893218813 24 76 c 0,18,19
 24 125.710678119 24 125.710678119 61.6446609407 163.355339059 c 2,20,-1
 423.289321881 525 l 1,21,-1
 61.6446609407 886.644660941 l 2,22,23
 43.9775841035 904.311737778 43.9775841035 904.311737778 33.9887920517 926.89444516 c 128,-1,24
 24 949.477152542 24 949.477152542 24 974 c 0,25,26
 24 1025.71067812 24 1025.71067812 61.6446609407 1063.35533906 c 128,-1,27
 99.2893218814 1101 99.2893218814 1101 151 1101 c 0,28,29
 200.710678119 1101 200.710678119 1101 238.355339059 1063.35533906 c 2,30,-1
 600 701.710678119 l 1,31,-1
 961.644660941 1063.35533906 l 2,32,33
 999.289321881 1101 999.289321881 1101 1049 1101 c 0,34,35
 1100.71067812 1101 1100.71067812 1101 1138.35533906 1063.35533906 c 128,-1,36
 1176 1025.71067812 1176 1025.71067812 1176 974 c 0,0,1
EndSplineSet
EndChar

StartChar: y
Encoding: 121 121 92
Width: 1200
Flags: W
LayerCount: 2
Fore
SplineSet
1075 975 m 2,0,-1
 1075 0 l 2,1,2
 1075 -206.710678119 1075 -206.710678119 928.355339059 -353.355339059 c 128,-1,3
 781.710678119 -500 781.710678119 -500 575 -500 c 0,4,5
 443.830733476 -500 443.830733476 -500 326.409697544 -433.53526268 c 0,6,7
 203.950306233 -364.512696669 203.950306233 -364.512696669 141.670049897 -250.143498668 c 0,8,9
 125 -216.803398875 125 -216.803398875 125 -187 c 0,10,11
 125 -135.004914183 125 -135.004914183 165.213768574 -98.14229299 c 0,12,13
 203.550815472 -63 203.550815472 -63 253 -63 c 0,14,15
 311.739044225 -63 311.739044225 -63 355.858205515 -120.811314794 c 0,16,17
 452.966478958 -250 452.966478958 -250 575 -250 c 0,18,19
 678.289321881 -250 678.289321881 -250 751.644660941 -176.644660941 c 128,-1,20
 825 -103.289321881 825 -103.289321881 825 0 c 2,21,-1
 825 16.3883806626 l 1,22,23
 768.263341992 -16.9567647734 768.263341992 -16.9567647734 705.751306614 -33.4783823867 c 128,-1,24
 643.239271235 -50 643.239271235 -50 575 -50 c 0,25,26
 368.289321881 -50 368.289321881 -50 221.644660941 96.6446609407 c 128,-1,27
 75 243.289321881 75 243.289321881 75 450 c 2,28,-1
 75 975 l 2,29,30
 75 1030 75 1030 110 1065 c 128,-1,31
 145 1100 145 1100 200 1100 c 128,-1,32
 255 1100 255 1100 290 1065 c 128,-1,33
 325 1030 325 1030 325 975 c 2,34,-1
 325 450 l 2,35,36
 325 346.710678119 325 346.710678119 398.355339059 273.355339059 c 128,-1,37
 471.710678119 200 471.710678119 200 575 200 c 128,-1,38
 678.289321881 200 678.289321881 200 751.644660941 273.355339059 c 128,-1,39
 825 346.710678119 825 346.710678119 825 449 c 2,40,-1
 825 975 l 2,41,42
 825 1030 825 1030 860 1065 c 128,-1,43
 895 1100 895 1100 950 1100 c 128,-1,44
 1005 1100 1005 1100 1040 1065 c 128,-1,45
 1075 1030 1075 1030 1075 975 c 2,0,-1
EndSplineSet
EndChar

StartChar: z
Encoding: 122 122 93
Width: 1200
Flags: W
LayerCount: 2
Fore
SplineSet
1176 974 m 0,0,1
 1176 924.289321881 1176 924.289321881 1128.35533906 876.644660941 c 2,2,-1
 451.710678119 200 l 1,3,-1
 1050 200 l 2,4,5
 1105 200 1105 200 1140 165 c 128,-1,6
 1175 130 1175 130 1175 75 c 128,-1,7
 1175 19.8601196871 1175 19.8601196871 1140.07349153 -15.0699401564 c 128,-1,8
 1105.14698306 -50 1105.14698306 -50 1050.02783964 -50 c 2,9,-1
 152.027839635 -51 l 2,10,11
 95.5496417336 -51 95.5496417336 -51 59.7748208668 -15.7028014714 c 128,-1,12
 24 19.5943970572 24 19.5943970572 24 76 c 0,13,14
 24 125.710678119 24 125.710678119 71.6446609407 173.355339059 c 2,15,-1
 748.289321881 850 l 1,16,-1
 150 850 l 2,17,18
 95 850 95 850 60 885 c 128,-1,19
 25 920 25 920 25 975 c 128,-1,20
 25 1030.13988031 25 1030.13988031 59.926508472 1065.06994016 c 128,-1,21
 94.853016944 1100 94.853016944 1100 149.972160365 1100 c 2,22,-1
 1047.97216036 1101 l 2,23,24
 1104.45035827 1101 1104.45035827 1101 1140.22517913 1065.70280147 c 128,-1,25
 1176 1030.40560294 1176 1030.40560294 1176 974 c 0,0,1
EndSplineSet
EndChar

StartChar: braceleft
Encoding: 123 123 94
Width: 1200
Flags: W
LayerCount: 2
Fore
SplineSet
950 -375 m 128,-1,1
 950 -430 950 -430 915 -465 c 128,-1,2
 880 -500 880 -500 825 -500 c 0,3,4
 680.289321881 -500 680.289321881 -500 577.644660941 -397.355339059 c 128,-1,5
 475 -294.710678119 475 -294.710678119 475 -150 c 2,6,-1
 475 300 l 2,7,8
 475 341.289321881 475 341.289321881 445.644660941 370.644660941 c 128,-1,9
 416.289321881 400 416.289321881 400 375 400 c 0,10,11
 320 400 320 400 285 435 c 128,-1,12
 250 470 250 470 250 525 c 128,-1,13
 250 580 250 580 285 615 c 128,-1,14
 320 650 320 650 375 650 c 0,15,16
 416.289321881 650 416.289321881 650 445.644660941 679.355339059 c 128,-1,17
 475 708.710678119 475 708.710678119 475 750 c 2,18,-1
 475 1200 l 2,19,20
 475 1344.71067812 475 1344.71067812 577.644660941 1447.35533906 c 128,-1,21
 680.289321881 1550 680.289321881 1550 825 1550 c 0,22,23
 880 1550 880 1550 915 1515 c 128,-1,24
 950 1480 950 1480 950 1425 c 128,-1,25
 950 1370 950 1370 915 1335 c 128,-1,26
 880 1300 880 1300 825 1300 c 0,27,28
 783.710678119 1300 783.710678119 1300 754.355339059 1270.64466094 c 128,-1,29
 725 1241.28932188 725 1241.28932188 725 1200 c 2,30,-1
 725 750 l 2,31,32
 725 620.249049805 725 620.249049805 643.24866408 525 c 1,33,34
 725 429.750950195 725 429.750950195 725 300 c 2,35,-1
 725 -150 l 2,36,37
 725 -191.289321881 725 -191.289321881 754.355339059 -220.644660941 c 128,-1,38
 783.710678119 -250 783.710678119 -250 825 -250 c 0,39,40
 880 -250 880 -250 915 -285 c 128,-1,0
 950 -320 950 -320 950 -375 c 128,-1,1
EndSplineSet
EndChar

StartChar: bar
Encoding: 124 124 95
Width: 1200
Flags: W
LayerCount: 2
Fore
SplineSet
725 -375 m 2,0,1
 725 -430 725 -430 690 -465 c 128,-1,2
 655 -500 655 -500 600 -500 c 128,-1,3
 545 -500 545 -500 510 -465 c 128,-1,4
 475 -430 475 -430 475 -375 c 2,5,-1
 475 1425 l 2,6,7
 475 1480 475 1480 510 1515 c 128,-1,8
 545 1550 545 1550 600 1550 c 128,-1,9
 655 1550 655 1550 690 1515 c 128,-1,10
 725 1480 725 1480 725 1425 c 2,11,-1
 725 -375 l 2,0,1
EndSplineSet
EndChar

StartChar: braceright
Encoding: 125 125 96
Width: 1200
Flags: W
LayerCount: 2
Fore
SplineSet
950 525 m 128,-1,1
 950 470 950 470 915 435 c 128,-1,2
 880 400 880 400 825 400 c 0,3,4
 783.710678119 400 783.710678119 400 754.355339059 370.644660941 c 128,-1,5
 725 341.289321881 725 341.289321881 725 300 c 2,6,-1
 725 -150 l 2,7,8
 725 -294.710678119 725 -294.710678119 622.355339059 -397.355339059 c 128,-1,9
 519.710678119 -500 519.710678119 -500 375 -500 c 0,10,11
 320 -500 320 -500 285 -465 c 128,-1,12
 250 -430 250 -430 250 -375 c 128,-1,13
 250 -320 250 -320 285 -285 c 128,-1,14
 320 -250 320 -250 375 -250 c 0,15,16
 416.289321881 -250 416.289321881 -250 445.644660941 -220.644660941 c 128,-1,17
 475 -191.289321881 475 -191.289321881 475 -150 c 2,18,-1
 475 300 l 2,19,20
 475 429.750950195 475 429.750950195 556.75133592 525 c 1,21,22
 475 620.249049805 475 620.249049805 475 750 c 2,23,-1
 475 1200 l 2,24,25
 475 1241.28932188 475 1241.28932188 445.644660941 1270.64466094 c 128,-1,26
 416.289321881 1300 416.289321881 1300 375 1300 c 0,27,28
 320 1300 320 1300 285 1335 c 128,-1,29
 250 1370 250 1370 250 1425 c 128,-1,30
 250 1480 250 1480 285 1515 c 128,-1,31
 320 1550 320 1550 375 1550 c 0,32,33
 519.710678119 1550 519.710678119 1550 622.355339059 1447.35533906 c 128,-1,34
 725 1344.71067812 725 1344.71067812 725 1200 c 2,35,-1
 725 750 l 2,36,37
 725 708.710678119 725 708.710678119 754.355339059 679.355339059 c 128,-1,38
 783.710678119 650 783.710678119 650 825 650 c 0,39,40
 880 650 880 650 915 615 c 128,-1,0
 950 580 950 580 950 525 c 128,-1,1
EndSplineSet
EndChar

StartChar: asciitilde
Encoding: 126 126 97
Width: 1200
Flags: W
LayerCount: 2
Fore
SplineSet
1026 528 m 0,0,1
 1026 490.150801753 1026 490.150801753 1001.00922669 448.499512909 c 0,2,3
 964.778327907 386.657116704 964.778327907 386.657116704 899.982700795 355.828558352 c 128,-1,4
 835.187073683 325 835.187073683 325 750 325 c 0,5,6
 647.126683853 325 647.126683853 325 541.803602256 411.330394752 c 0,7,8
 508.934847033 438.271997393 508.934847033 438.271997393 482.538242839 455.415132711 c 128,-1,9
 456.141638644 472.558268029 456.141638644 472.558268029 448.068557449 474.990505073 c 0,10,11
 425.288603574 474.610575335 425.288603574 474.610575335 411.683042567 468.250233841 c 1,12,13
 395.931645307 435.476474356 395.931645307 435.476474356 366.761973149 417.738237178 c 128,-1,14
 337.592300991 400 337.592300991 400 302 400 c 0,15,16
 247 400 247 400 210.5 433.5 c 128,-1,17
 174 467 174 467 174 522 c 0,18,19
 174 559.849198247 174 559.849198247 198.990773306 601.500487091 c 0,20,21
 235.221672093 663.342883296 235.221672093 663.342883296 300.017299205 694.171441648 c 128,-1,22
 364.812926317 725 364.812926317 725 450 725 c 0,23,24
 552.873316147 725 552.873316147 725 658.196397744 638.669605248 c 0,25,26
 691.060697524 611.731654609 691.060697524 611.731654609 717.46060284 594.586369899 c 128,-1,27
 743.860508155 577.441085189 743.860508155 577.441085189 751.926005899 575.011132868 c 0,28,29
 784.947700046 575.606714525 784.947700046 575.606714525 795.153674897 590.61550107 c 0,30,31
 835.535134169 650 835.535134169 650 898 650 c 0,32,33
 953 650 953 650 989.5 616.5 c 128,-1,34
 1026 583 1026 583 1026 528 c 0,0,1
EndSplineSet
EndChar

StartChar: exclamdown
Encoding: 161 161 98
Width: 1200
Flags: W
LayerCount: 2
Fore
SplineSet
764 936 m 0,0,1
 764 867.615466359 764 867.615466359 715.036619715 820.844476236 c 0,2,3
 667.043183656 775 667.043183656 775 600 775 c 128,-1,4
 532.956816344 775 532.956816344 775 484.963380285 820.844476236 c 0,5,6
 436 867.615466359 436 867.615466359 436 936 c 0,7,8
 436 1003.71067812 436 1003.71067812 484.144660941 1051.85533906 c 128,-1,9
 532.289321881 1100 532.289321881 1100 600 1100 c 128,-1,10
 667.710678119 1100 667.710678119 1100 715.855339059 1051.85533906 c 128,-1,11
 764 1003.71067812 764 1003.71067812 764 936 c 0,0,1
725 -375 m 2,12,13
 725 -430 725 -430 690 -465 c 128,-1,14
 655 -500 655 -500 600 -500 c 128,-1,15
 545 -500 545 -500 510 -465 c 128,-1,16
 475 -430 475 -430 475 -375 c 2,17,-1
 475 600 l 2,18,19
 475 655 475 655 510 690 c 128,-1,20
 545 725 545 725 600 725 c 128,-1,21
 655 725 655 725 690 690 c 128,-1,22
 725 655 725 655 725 600 c 2,23,-1
 725 -375 l 2,12,13
EndSplineSet
EndChar

StartChar: cent
Encoding: 162 162 99
Width: 1200
Flags: W
LayerCount: 2
Fore
SplineSet
1176 845 m 0,0,1
 1176 793.603551968 1176 793.603551968 1138.7334383 755.526847622 c 0,2,3
 1101.02631084 717 1101.02631084 717 1050 717 c 0,4,5
 1013.63724044 717 1013.63724044 717 972.561431268 744.872870512 c 0,6,7
 882.819209859 808.100344686 882.819209859 808.100344686 802 832.826711393 c 1,8,-1
 802 217.099320834 l 1,9,10
 883.106212156 241.777618657 883.106212156 241.777618657 972.317701933 303.955323654 c 0,11,12
 1012.17066306 332 1012.17066306 332 1049 332 c 0,13,14
 1101.02631084 332 1101.02631084 332 1138.7334383 293.473152378 c 0,15,16
 1176 255.396448032 1176 255.396448032 1176 205 c 128,-1,17
 1176 154.754820219 1176 154.754820219 1132.81359526 113.110787077 c 0,18,19
 1009.83988496 -6.88775281023 1009.83988496 -6.88775281023 802 -39.8111810777 c 1,20,-1
 802 -175 l 2,21,22
 802 -230 802 -230 767 -265 c 128,-1,23
 732 -300 732 -300 677 -300 c 128,-1,24
 622 -300 622 -300 587 -265 c 128,-1,25
 552 -230 552 -230 552 -175 c 2,26,-1
 552 -39.4371082529 l 1,27,28
 349.792281626 -4.78773965964 349.792281626 -4.78773965964 203.15209506 130.198922146 c 0,29,30
 25 294.05486143 25 294.05486143 25 525 c 128,-1,31
 25 755.945132561 25 755.945132561 203.13661933 919.786837994 c 0,32,33
 349.792273603 1054.78773828 349.792273603 1054.78773828 552 1089.43710825 c 1,34,-1
 552 1225 l 2,35,36
 552 1280 552 1280 587 1315 c 128,-1,37
 622 1350 622 1350 677 1350 c 128,-1,38
 732 1350 732 1350 767 1315 c 128,-1,39
 802 1280 802 1280 802 1225 c 2,40,-1
 802 1089.8308484 l 1,41,42
 1010.91412075 1056.80788802 1010.91412075 1056.80788802 1134.21162054 935.499057575 c 0,43,44
 1176 893.710678119 1176 893.710678119 1176 845 c 0,0,1
552 215.838946973 m 1,45,-1
 552 834.161053027 l 1,46,47
 452.01223263 807.702920819 452.01223263 807.702920819 376.413390878 739.803961098 c 0,48,49
 275 648.703796411 275 648.703796411 275 525 c 128,-1,50
 275 401.296203336 275 401.296203336 376.410159966 310.198940993 c 0,51,52
 452.01223303 242.297079075 452.01223303 242.297079075 552 215.838946973 c 1,45,-1
EndSplineSet
EndChar

StartChar: sterling
Encoding: 163 163 100
Width: 1200
Flags: W
LayerCount: 2
Fore
SplineSet
1175 75 m 128,-1,1
 1175 20 1175 20 1140 -15 c 128,-1,2
 1105 -50 1105 -50 1050 -50 c 2,3,-1
 150 -50 l 2,4,5
 94 -50 94 -50 58 -15.5 c 128,-1,6
 22 19 22 19 22 75 c 128,-1,7
 22 131 22 131 58 165.5 c 128,-1,8
 94 200 94 200 150 200 c 0,9,10
 191.289321881 200 191.289321881 200 220.644660941 229.355339059 c 128,-1,11
 250 258.710678119 250 258.710678119 250 300 c 2,12,-1
 250 550 l 1,13,-1
 150 550 l 2,14,15
 95 550 95 550 60 585 c 128,-1,16
 25 620 25 620 25 675 c 128,-1,17
 25 730 25 730 60 765 c 128,-1,18
 95 800 95 800 150 800 c 2,19,-1
 250 800 l 1,20,-1
 250 850 l 1,21,-1
 150 850 l 2,22,23
 95 850 95 850 60 885 c 128,-1,24
 25 920 25 920 25 975 c 128,-1,25
 25 1030 25 1030 60 1065 c 128,-1,26
 95 1100 95 1100 150 1100 c 2,27,-1
 250 1100 l 1,28,-1
 250 1200 l 2,29,30
 250 1344.71067812 250 1344.71067812 352.644660941 1447.35533906 c 128,-1,31
 455.289321881 1550 455.289321881 1550 600 1550 c 0,32,33
 696.976034804 1550 696.976034804 1550 768.393692393 1513.70578057 c 0,34,35
 818.069426756 1489.18231677 818.069426756 1489.18231677 846.534713378 1447.75866291 c 128,-1,36
 875 1406.33500905 875 1406.33500905 875 1354 c 0,37,38
 875 1279.90262343 875 1279.90262343 831.278539132 1246.74718227 c 0,39,40
 803.919617454 1226 803.919617454 1226 765 1226 c 0,41,42
 746.722466846 1226 746.722466846 1226 728.061036354 1233.62469055 c 128,-1,43
 709.399605862 1241.2493811 709.399605862 1241.2493811 697.647119113 1249.50734461 c 128,-1,44
 685.894632364 1257.76530813 685.894632364 1257.76530813 665.662067759 1274.03932748 c 0,45,46
 633.386637064 1300 633.386637064 1300 600 1300 c 0,47,48
 558.710678119 1300 558.710678119 1300 529.355339059 1270.64466094 c 128,-1,49
 500 1241.28932188 500 1241.28932188 500 1200 c 2,50,-1
 500 1100 l 1,51,-1
 600 1100 l 2,52,53
 655 1100 655 1100 690 1065 c 128,-1,54
 725 1030 725 1030 725 975 c 128,-1,55
 725 920 725 920 690 885 c 128,-1,56
 655 850 655 850 600 850 c 2,57,-1
 500 850 l 1,58,-1
 500 800 l 1,59,-1
 600 800 l 2,60,61
 655 800 655 800 690 765 c 128,-1,62
 725 730 725 730 725 675 c 128,-1,63
 725 620 725 620 690 585 c 128,-1,64
 655 550 655 550 600 550 c 2,65,-1
 500 550 l 1,66,-1
 500 300 l 2,67,68
 500 248.480544886 500 248.480544886 485.744630655 200 c 1,69,-1
 1050 200 l 2,70,71
 1105 200 1105 200 1140 165 c 128,-1,0
 1175 130 1175 130 1175 75 c 128,-1,1
EndSplineSet
EndChar

StartChar: currency
Encoding: 164 164 101
Width: 1200
Flags: W
LayerCount: 2
Fore
SplineSet
1176 974 m 0,0,1
 1176 964.426751087 1176 964.426751087 1173.7365752 954.738357183 c 128,-1,2
 1171.47315039 945.049963279 1171.47315039 945.049963279 1169.02269244 937.610200603 c 128,-1,3
 1166.5722345 930.170437926 1166.5722345 930.170437926 1159.74481022 919.755713979 c 128,-1,4
 1152.91738595 909.340990033 1152.91738595 909.340990033 1149.19779634 903.728390294 c 128,-1,5
 1145.47820673 898.115790555 1145.47820673 898.115790555 1134.90754865 886.307525984 c 128,-1,6
 1124.33689056 874.499261412 1124.33689056 874.499261412 1120.16893495 870.04661403 c 128,-1,7
 1116.00097934 865.593966647 1116.00097934 865.593966647 1102.50785311 851.724950869 c 128,-1,8
 1089.01472688 837.855935091 1089.01472688 837.855935091 1084.8586103 833.535142198 c 1,9,10
 1175 694.009500125 1175 694.009500125 1175 525 c 128,-1,11
 1175 355.990499875 1175 355.990499875 1084.8586103 216.464857802 c 1,12,13
 1089.10457371 212.050658106 1089.10457371 212.050658106 1102.89772929 197.868425517 c 128,-1,14
 1116.69088488 183.686192928 1116.69088488 183.686192928 1120.77229851 179.317647731 c 128,-1,15
 1124.85371214 174.949102535 1124.85371214 174.949102535 1135.51084825 163.051997737 c 128,-1,16
 1146.16798436 151.15489294 1146.16798436 151.15489294 1149.73549115 145.691539181 c 128,-1,17
 1153.30299795 140.228185423 1153.30299795 140.228185423 1160.10185204 129.850372666 c 128,-1,18
 1166.90070613 119.472559909 1166.90070613 119.472559909 1169.23204354 112.148561836 c 128,-1,19
 1171.56338096 104.824563764 1171.56338096 104.824563764 1173.78169048 95.2002072958 c 128,-1,20
 1176 85.5758508276 1176 85.5758508276 1176 76 c 0,21,22
 1176 24.2893218814 1176 24.2893218814 1138.35533906 -13.3553390593 c 128,-1,23
 1100.71067812 -51 1100.71067812 -51 1049 -51 c 0,24,25
 1039.42675109 -51 1039.42675109 -51 1029.73835718 -48.736575195 c 128,-1,26
 1020.04996328 -46.47315039 1020.04996328 -46.47315039 1012.6102006 -44.0226924436 c 128,-1,27
 1005.17043793 -41.5722344971 1005.17043793 -41.5722344971 994.755713979 -34.7448102225 c 128,-1,28
 984.340990033 -27.9173859479 984.340990033 -27.9173859479 978.728390294 -24.1977963381 c 128,-1,29
 973.115790555 -20.4782067282 973.115790555 -20.4782067282 961.307525984 -9.90754864503 c 128,-1,30
 949.499261412 0.663109438154 949.499261412 0.663109438154 945.04661403 4.83106505032 c 128,-1,31
 940.593966647 8.99902066248 940.593966647 8.99902066248 926.724950869 22.4921468931 c 128,-1,32
 912.855935091 35.9852731238 912.855935091 35.9852731238 908.535142198 40.1413896991 c 1,33,34
 838.333946887 -5.21251951668 838.333946887 -5.21251951668 761.392087485 -27.6062597583 c 128,-1,35
 684.450228083 -50 684.450228083 -50 600 -50 c 0,36,37
 430.990499875 -50 430.990499875 -50 291.464857802 40.1413896991 c 1,38,39
 287.050658106 35.8954262893 287.050658106 35.8954262893 272.868425517 22.1022707058 c 128,-1,40
 258.686192928 8.30911512232 258.686192928 8.30911512232 254.317647731 4.22770149095 c 128,-1,41
 249.949102535 0.146287859584 249.949102535 0.146287859584 238.051997737 -10.510848249 c 128,-1,42
 226.15489294 -21.1679843575 226.15489294 -21.1679843575 220.691539181 -24.7354911538 c 128,-1,43
 215.228185423 -28.3029979502 215.228185423 -28.3029979502 204.850372666 -35.101852038 c 128,-1,44
 194.472559909 -41.9007061259 194.472559909 -41.9007061259 187.148561836 -44.2320435415 c 128,-1,45
 179.824563764 -46.563380957 179.824563764 -46.563380957 170.200207296 -48.7816904785 c 128,-1,46
 160.575850828 -51 160.575850828 -51 151 -51 c 0,47,48
 99.2893218813 -51 99.2893218813 -51 61.6446609407 -13.3553390593 c 128,-1,49
 24 24.2893218813 24 24.2893218813 24 76 c 0,50,51
 24 85.5732489126 24 85.5732489126 26.263424805 95.2616428167 c 128,-1,52
 28.52684961 104.950036721 28.52684961 104.950036721 30.9773075564 112.389799397 c 128,-1,53
 33.4277655028 119.829562074 33.4277655028 119.829562074 40.2551897775 130.244286021 c 128,-1,54
 47.0826140521 140.659009967 47.0826140521 140.659009967 50.8022036619 146.271609706 c 128,-1,55
 54.5217932718 151.884209444 54.5217932718 151.884209444 65.092451355 163.692474016 c 128,-1,56
 75.6631094382 175.500738588 75.6631094382 175.500738588 79.8310650503 179.95338597 c 128,-1,57
 83.9990206625 184.406033353 83.9990206625 184.406033353 97.4921468931 198.275049131 c 128,-1,58
 110.985273124 212.144064909 110.985273124 212.144064909 115.141389699 216.464857802 c 1,59,60
 69.7874804833 286.666053113 69.7874804833 286.666053113 47.3937402417 363.607912515 c 128,-1,61
 25 440.549771917 25 440.549771917 25 525 c 0,62,63
 25 694.009500125 25 694.009500125 115.141389699 833.535142198 c 1,64,65
 110.895426289 837.949341894 110.895426289 837.949341894 97.1022707058 852.131574483 c 128,-1,66
 83.3091151223 866.313807072 83.3091151223 866.313807072 79.227701491 870.682352269 c 128,-1,67
 75.1462878596 875.050897465 75.1462878596 875.050897465 64.489151751 886.948002263 c 128,-1,68
 53.8320156425 898.84510706 53.8320156425 898.84510706 50.2645088462 904.308460819 c 128,-1,69
 46.6970020498 909.771814577 46.6970020498 909.771814577 39.898147962 920.149627334 c 128,-1,70
 33.0992938741 930.527440091 33.0992938741 930.527440091 30.7679564585 937.851438164 c 128,-1,71
 28.436619043 945.175436236 28.436619043 945.175436236 26.2183095215 954.799792704 c 128,-1,72
 24 964.424149172 24 964.424149172 24 974 c 0,73,74
 24 1025.71067812 24 1025.71067812 61.6446609407 1063.35533906 c 128,-1,75
 99.2893218814 1101 99.2893218814 1101 151 1101 c 0,76,77
 160.573248913 1101 160.573248913 1101 170.261642817 1098.7365752 c 128,-1,78
 179.950036721 1096.47315039 179.950036721 1096.47315039 187.389799397 1094.02269244 c 128,-1,79
 194.829562074 1091.5722345 194.829562074 1091.5722345 205.244286021 1084.74481022 c 128,-1,80
 215.659009967 1077.91738595 215.659009967 1077.91738595 221.271609706 1074.19779634 c 128,-1,81
 226.884209444 1070.47820673 226.884209444 1070.47820673 238.692474016 1059.90754865 c 128,-1,82
 250.500738588 1049.33689056 250.500738588 1049.33689056 254.95338597 1045.16893495 c 128,-1,83
 259.406033353 1041.00097934 259.406033353 1041.00097934 273.275049131 1027.50785311 c 128,-1,84
 287.144064909 1014.01472688 287.144064909 1014.01472688 291.464857802 1009.8586103 c 1,85,86
 430.990499875 1100 430.990499875 1100 600 1100 c 128,-1,87
 769.009500125 1100 769.009500125 1100 908.535142198 1009.8586103 c 1,88,89
 912.949341894 1014.10457371 912.949341894 1014.10457371 927.131574483 1027.89772929 c 128,-1,90
 941.313807072 1041.69088488 941.313807072 1041.69088488 945.682352269 1045.77229851 c 128,-1,91
 950.050897465 1049.85371214 950.050897465 1049.85371214 961.948002263 1060.51084825 c 128,-1,92
 973.84510706 1071.16798436 973.84510706 1071.16798436 979.308460819 1074.73549115 c 128,-1,93
 984.771814577 1078.30299795 984.771814577 1078.30299795 995.149627334 1085.10185204 c 128,-1,94
 1005.52744009 1091.90070613 1005.52744009 1091.90070613 1012.85143816 1094.23204354 c 128,-1,95
 1020.17543624 1096.56338096 1020.17543624 1096.56338096 1029.7997927 1098.78169048 c 128,-1,96
 1039.42414917 1101 1039.42414917 1101 1049 1101 c 0,97,98
 1100.71067812 1101 1100.71067812 1101 1138.35533906 1063.35533906 c 128,-1,99
 1176 1025.71067812 1176 1025.71067812 1176 974 c 0,0,1
925 525 m 128,-1,101
 925 659.289321881 925 659.289321881 829.644660941 754.644660941 c 128,-1,102
 734.289321881 850 734.289321881 850 600 850 c 128,-1,103
 465.710678119 850 465.710678119 850 370.355339059 754.644660941 c 128,-1,104
 275 659.289321881 275 659.289321881 275 525 c 128,-1,105
 275 390.710678119 275 390.710678119 370.355339059 295.355339059 c 128,-1,106
 465.710678119 200 465.710678119 200 600 200 c 128,-1,107
 734.289321881 200 734.289321881 200 829.644660941 295.355339059 c 128,-1,100
 925 390.710678119 925 390.710678119 925 525 c 128,-1,101
EndSplineSet
EndChar

StartChar: yen
Encoding: 165 165 102
Width: 1200
Flags: W
LayerCount: 2
Fore
SplineSet
1176 1426 m 0,0,1
 1176 1388.86121811 1176 1388.86121811 1153.60251472 1355.26499019 c 2,2,-1
 833.425854591 875 l 1,3,-1
 900 875 l 2,4,5
 955 875 955 875 990 840 c 128,-1,6
 1025 805 1025 805 1025 750 c 128,-1,7
 1025 695 1025 695 990 660 c 128,-1,8
 955 625 955 625 900 625 c 2,9,-1
 725 625 l 1,10,-1
 725 575 l 1,11,-1
 900 575 l 2,12,13
 955 575 955 575 990 540 c 128,-1,14
 1025 505 1025 505 1025 450 c 128,-1,15
 1025 395 1025 395 990 360 c 128,-1,16
 955 325 955 325 900 325 c 2,17,-1
 725 325 l 1,18,-1
 725 75 l 2,19,20
 725 20 725 20 690 -15 c 128,-1,21
 655 -50 655 -50 600 -50 c 128,-1,22
 545 -50 545 -50 510 -15 c 128,-1,23
 475 20 475 20 475 75 c 2,24,-1
 475 325 l 1,25,-1
 300 325 l 2,26,27
 245 325 245 325 210 360 c 128,-1,28
 175 395 175 395 175 450 c 128,-1,29
 175 505 175 505 210 540 c 128,-1,30
 245 575 245 575 300 575 c 2,31,-1
 475 575 l 1,32,-1
 475 625 l 1,33,-1
 300 625 l 2,34,35
 245 625 245 625 210 660 c 128,-1,36
 175 695 175 695 175 750 c 128,-1,37
 175 805 175 805 210 840 c 128,-1,38
 245 875 245 875 300 875 c 2,39,-1
 366.574145409 875 l 1,40,-1
 46.3974852831 1355.26499019 l 2,41,42
 24 1388.86121811 24 1388.86121811 24 1426 c 0,43,44
 24 1477.66160062 24 1477.66160062 63.8029435559 1514.97686021 c 0,45,46
 102.227626002 1551 102.227626002 1551 152 1551 c 0,47,48
 215.542281623 1551 215.542281623 1551 253.508816429 1494.87555724 c 2,49,-1
 600 975.138781887 l 1,50,-1
 946.491183571 1494.87555724 l 2,51,52
 984.457718377 1551 984.457718377 1551 1048 1551 c 0,53,54
 1097.772374 1551 1097.772374 1551 1136.19705644 1514.97686021 c 0,55,56
 1176 1477.66160062 1176 1477.66160062 1176 1426 c 0,0,1
EndSplineSet
EndChar

StartChar: brokenbar
Encoding: 166 166 103
Width: 1200
Flags: W
LayerCount: 2
Fore
SplineSet
725 675 m 2,0,1
 725 620 725 620 690 585 c 128,-1,2
 655 550 655 550 600 550 c 128,-1,3
 545 550 545 550 510 585 c 128,-1,4
 475 620 475 620 475 675 c 2,5,-1
 475 1425 l 2,6,7
 475 1480 475 1480 510 1515 c 128,-1,8
 545 1550 545 1550 600 1550 c 128,-1,9
 655 1550 655 1550 690 1515 c 128,-1,10
 725 1480 725 1480 725 1425 c 2,11,-1
 725 675 l 2,0,1
725 -375 m 2,12,13
 725 -430 725 -430 690 -465 c 128,-1,14
 655 -500 655 -500 600 -500 c 128,-1,15
 545 -500 545 -500 510 -465 c 128,-1,16
 475 -430 475 -430 475 -375 c 2,17,-1
 475 375 l 2,18,19
 475 430 475 430 510 465 c 128,-1,20
 545 500 545 500 600 500 c 128,-1,21
 655 500 655 500 690 465 c 128,-1,22
 725 430 725 430 725 375 c 2,23,-1
 725 -375 l 2,12,13
EndSplineSet
EndChar

StartChar: section
Encoding: 167 167 104
Width: 1200
Flags: W
LayerCount: 2
Fore
SplineSet
1175 -75 m 0,0,1
 1175 -177.108152476 1175 -177.108152476 1122.12108412 -260.076658831 c 128,-1,2
 1069.24216824 -343.045165187 1069.24216824 -343.045165187 969.436465606 -402.046326411 c 0,3,4
 803.668710301 -500 803.668710301 -500 600 -500 c 0,5,6
 467.31213319 -500 467.31213319 -500 339.300106127 -454.129023636 c 0,7,8
 188.59239892 -401.326323301 188.59239892 -401.326323301 112.373072913 -303.49256156 c 0,9,10
 83 -264.843781411 83 -264.843781411 83 -224 c 0,11,12
 83 -172.97368916 83 -172.97368916 121.526847622 -135.2665617 c 0,13,14
 159.603551968 -98 159.603551968 -98 211 -98 c 0,15,16
 255.186794353 -98 255.186794353 -98 299.433456719 -137.821996129 c 0,17,18
 424.175397023 -250 424.175397023 -250 600 -250 c 0,19,20
 824.240812076 -250 824.240812076 -250 905.397485283 -128.264990189 c 0,21,22
 925 -98.8612181134 925 -98.8612181134 925 -75 c 128,-1,23
 925 -51.1387818866 925 -51.1387818866 905.397485283 -21.7350098113 c 0,24,25
 824.240812076 100 824.240812076 100 600 100 c 0,26,27
 396.331291401 100 396.331291401 100 230.555523234 197.958408462 c 0,28,29
 130.75933487 256.95394523 130.75933487 256.95394523 77.879667435 339.923918645 c 128,-1,30
 25 422.893892061 25 422.893892061 25 525 c 0,31,32
 25 707.366239081 25 707.366239081 188.554377781 825 c 1,33,34
 25 942.633760919 25 942.633760919 25 1125 c 0,35,36
 25 1227.10815248 25 1227.10815248 77.8789158813 1310.07665883 c 128,-1,37
 130.757831763 1393.04516519 130.757831763 1393.04516519 230.563534394 1452.04632641 c 0,38,39
 396.331289699 1550 396.331289699 1550 600 1550 c 0,40,41
 732.68786681 1550 732.68786681 1550 860.699893873 1504.12902364 c 0,42,43
 1011.40760108 1451.3263233 1011.40760108 1451.3263233 1087.62692709 1353.49256156 c 0,44,45
 1117 1314.84378141 1117 1314.84378141 1117 1274 c 0,46,47
 1117 1222.97368916 1117 1222.97368916 1078.47315238 1185.2665617 c 0,48,49
 1040.39644803 1148 1040.39644803 1148 989 1148 c 0,50,51
 944.813205647 1148 944.813205647 1148 900.566543281 1187.82199613 c 0,52,53
 775.824602977 1300 775.824602977 1300 600 1300 c 0,54,55
 375.759187924 1300 375.759187924 1300 294.602514717 1178.26499019 c 0,56,57
 275 1148.86121811 275 1148.86121811 275 1125 c 128,-1,58
 275 1101.13878189 275 1101.13878189 294.602514717 1071.73500981 c 0,59,60
 375.759187924 950 375.759187924 950 600 950 c 0,61,62
 803.668708599 950 803.668708599 950 969.444476766 852.041591538 c 0,63,64
 1069.24066513 793.04605477 1069.24066513 793.04605477 1122.12033257 710.076081355 c 128,-1,65
 1175 627.106107939 1175 627.106107939 1175 525 c 0,66,67
 1175 342.633760919 1175 342.633760919 1011.44562222 225 c 1,68,69
 1175 107.366239081 1175 107.366239081 1175 -75 c 0,0,1
925 525 m 128,-1,71
 925 572.216858461 925 572.216858461 868.568849745 618.114194002 c 0,72,73
 815.524049957 660.723951208 815.524049957 660.723951208 745.267181709 680.92280083 c 0,74,75
 678.042765584 700 678.042765584 700 600 700 c 128,-1,76
 521.957234416 700 521.957234416 700 454.732818291 680.92280083 c 0,77,78
 384.475950043 660.723951208 384.475950043 660.723951208 331.431150255 618.114194002 c 0,79,80
 275 572.216858461 275 572.216858461 275 525 c 128,-1,81
 275 477.783141539 275 477.783141539 331.431150255 431.885805998 c 0,82,83
 384.475950043 389.276048792 384.475950043 389.276048792 454.732818291 369.07719917 c 0,84,85
 521.957234416 350 521.957234416 350 600 350 c 128,-1,86
 678.042765584 350 678.042765584 350 745.267181709 369.07719917 c 0,87,88
 815.524049957 389.276048792 815.524049957 389.276048792 868.568849745 431.885805998 c 0,89,70
 925 477.783141539 925 477.783141539 925 525 c 128,-1,71
EndSplineSet
EndChar

StartChar: dieresis
Encoding: 168 168 105
Width: 1200
Flags: W
LayerCount: 2
Fore
SplineSet
988 1313 m 128,-1,1
 988 1245.06876108 988 1245.06876108 939.588517639 1197.37983815 c 0,2,3
 891.490803149 1150 891.490803149 1150 825 1150 c 0,4,5
 757.065388502 1150 757.065388502 1150 709.875810781 1197.91557122 c 0,6,7
 663 1245.51254833 663 1245.51254833 663 1313 c 0,8,9
 663 1380.71067812 663 1380.71067812 710.144660941 1427.85533906 c 128,-1,10
 757.289321881 1475 757.289321881 1475 825 1475 c 0,11,12
 892.487451675 1475 892.487451675 1475 940.084428776 1428.12418922 c 0,13,0
 988 1380.9346115 988 1380.9346115 988 1313 c 128,-1,1
538 1313 m 128,-1,15
 538 1245.06876108 538 1245.06876108 489.588517639 1197.37983815 c 0,16,17
 441.490803149 1150 441.490803149 1150 375 1150 c 0,18,19
 307.065388502 1150 307.065388502 1150 259.875810781 1197.91557122 c 0,20,21
 213 1245.51254833 213 1245.51254833 213 1313 c 0,22,23
 213 1380.71067812 213 1380.71067812 260.144660941 1427.85533906 c 128,-1,24
 307.289321881 1475 307.289321881 1475 375 1475 c 0,25,26
 442.487451675 1475 442.487451675 1475 490.084428776 1428.12418922 c 0,27,14
 538 1380.9346115 538 1380.9346115 538 1313 c 128,-1,15
EndSplineSet
EndChar

StartChar: copyright
Encoding: 169 169 106
Width: 1200
Flags: W
LayerCount: 2
Fore
SplineSet
1175 750 m 128,-1,1
 1175 467.695587752 1175 467.695587752 1042.36930449 236.118182889 c 0,2,3
 961.965884726 96.2162325034 961.965884726 96.2162325034 850.20721017 23.1081162517 c 128,-1,4
 738.448535615 -50 738.448535615 -50 600 -50 c 128,-1,5
 461.55193366 -50 461.55193366 -50 349.792927488 23.1082849964 c 128,-1,6
 238.033921315 96.2165699928 238.033921315 96.2165699928 157.630695512 236.118182889 c 0,7,8
 25 467.695587752 25 467.695587752 25 750 c 128,-1,9
 25 1032.30441225 25 1032.30441225 157.630695512 1263.88181711 c 0,10,11
 238.034115274 1403.7837675 238.034115274 1403.7837675 349.79278983 1476.89188375 c 128,-1,12
 461.551464385 1550 461.551464385 1550 600 1550 c 128,-1,13
 738.44806634 1550 738.44806634 1550 850.207072512 1476.891715 c 128,-1,14
 961.966078685 1403.78343001 961.966078685 1403.78343001 1042.36930449 1263.88181711 c 0,15,0
 1175 1032.30441225 1175 1032.30441225 1175 750 c 128,-1,1
925 750 m 128,-1,17
 925 873.967987617 925 873.967987617 893.937161247 982.217274181 c 0,18,19
 857.813227876 1108.18791363 857.813227876 1108.18791363 783.524466554 1198.06814338 c 0,20,21
 698.581252701 1300 698.581252701 1300 600 1300 c 128,-1,22
 501.418747299 1300 501.418747299 1300 416.475533446 1198.06814338 c 0,23,24
 342.186770873 1108.18791212 342.186770873 1108.18791212 306.060395263 982.208756142 c 0,25,26
 275 873.96798477 275 873.96798477 275 750 c 128,-1,27
 275 626.032012383 275 626.032012383 306.062838753 517.782725819 c 0,28,29
 342.186772124 391.812086371 342.186772124 391.812086371 416.475533446 301.931856623 c 0,30,31
 501.418747299 200 501.418747299 200 600 200 c 128,-1,32
 698.581252701 200 698.581252701 200 783.524466554 301.931856623 c 0,33,34
 857.813229127 391.812087885 857.813229127 391.812087885 893.939604737 517.791243858 c 0,35,16
 925 626.03201523 925 626.03201523 925 750 c 128,-1,17
885 512 m 0,36,37
 885 479.62298025 885 479.62298025 863.794894362 444.131967405 c 0,38,39
 819.171924092 368.125591061 819.171924092 368.125591061 751.816106182 328.062795531 c 128,-1,40
 684.460288272 288 684.460288272 288 600 288 c 0,41,42
 516.234667309 288 516.234667309 288 447.644888041 330.308459375 c 128,-1,43
 379.055108772 372.616918749 379.055108772 372.616918749 330.291374466 451.999742039 c 0,44,45
 250 585.085444921 250 585.085444921 250 750 c 128,-1,46
 250 914.914555079 250 914.914555079 330.250445613 1047.93241699 c 0,47,48
 378.932890933 1127.74898431 378.932890933 1127.74898431 447.550198558 1170.37449216 c 128,-1,49
 516.167506183 1213 516.167506183 1213 600 1213 c 0,50,51
 684.539869376 1213 684.539869376 1213 752.123337414 1172.26848969 c 128,-1,52
 819.706805452 1131.53697938 819.706805452 1131.53697938 863.906197374 1055.6817446 c 0,53,54
 885 1020.37701975 885 1020.37701975 885 988 c 0,55,56
 885 935.004914183 885 935.004914183 844.786231426 898.14229299 c 0,57,58
 806.449184528 863 806.449184528 863 757 863 c 0,59,60
 701.521157289 863 701.521157289 863 645.025938356 931.066528835 c 0,61,62
 618.521157289 963 618.521157289 963 600 963 c 0,63,64
 590.961122485 963 590.961122485 963 574.143918124 950.10680999 c 0,65,66
 500 894.89325394 500 894.89325394 500 750 c 128,-1,67
 500 605.10674606 500 605.10674606 573.716145408 550.21174416 c 0,68,69
 590.368523808 538 590.368523808 538 600 538 c 0,70,71
 618.671826829 538 618.671826829 538 645.184276498 569.62328334 c 0,72,73
 701.671826829 637 701.671826829 637 757 637 c 0,74,75
 806.449184528 637 806.449184528 637 844.786231426 601.85770701 c 0,76,77
 885 564.995085817 885 564.995085817 885 512 c 0,36,37
EndSplineSet
EndChar

StartChar: ordfeminine
Encoding: 170 170 107
Width: 1200
Flags: W
LayerCount: 2
Fore
SplineSet
1063 795 m 2,0,1
 1063 740 1063 740 1028 705 c 128,-1,2
 993 670 993 670 938 670 c 0,3,4
 870.437374812 670 870.437374812 670 836.328732044 715.668475673 c 1,5,6
 727.613312972 670 727.613312972 670 600 670 c 0,7,8
 437.987120588 670 437.987120588 670 306.490912644 743.418716102 c 0,9,10
 225.341238137 789.384615648 225.341238137 789.384615648 181.670619069 855.949642303 c 128,-1,11
 138 922.514668958 138 922.514668958 138 1005 c 0,12,13
 138 1083.56763201 138 1083.56763201 178.08985542 1148.13916187 c 128,-1,14
 218.179710839 1212.71069173 218.179710839 1212.71069173 291.975492815 1258.0334925 c 1,15,16
 279.737937038 1266.74579325 279.737937038 1266.74579325 270.14229299 1277.21376857 c 0,17,18
 235 1315.55081547 235 1315.55081547 235 1366 c 0,19,20
 235 1467.92873273 235 1467.92873273 400.486582674 1518.84768124 c 0,21,22
 504.685717833 1550 504.685717833 1550 600 1550 c 0,23,24
 762.012879412 1550 762.012879412 1550 893.443971744 1476.61764011 c 0,25,26
 975.023816572 1430.7289774 975.023816572 1430.7289774 1019.01190829 1364.14243881 c 128,-1,27
 1063 1297.55590022 1063 1297.55590022 1063 1215 c 2,28,-1
 1063 795 l 2,0,1
1062 525 m 128,-1,30
 1062 470 1062 470 1027 435 c 128,-1,31
 992 400 992 400 937 400 c 2,32,-1
 262 400 l 2,33,34
 207 400 207 400 172 435 c 128,-1,35
 137 470 137 470 137 525 c 128,-1,36
 137 580 137 580 172 615 c 128,-1,37
 207 650 207 650 262 650 c 2,38,-1
 937 650 l 2,39,40
 992 650 992 650 1027 615 c 128,-1,29
 1062 580 1062 580 1062 525 c 128,-1,30
812.93835223 1004.9086902 m 0,41,42
 810.880602489 1012.2318584 810.880602489 1012.2318584 799.59875624 1024.81545614 c 0,43,44
 742.363546997 1090 742.363546997 1090 600 1090 c 0,45,46
 449.02367118 1090 449.02367118 1090 395.712598794 1019.94591044 c 0,47,48
 389.214745356 1010.07449115 389.214745356 1010.07449115 388.02395296 1004.74017228 c 0,49,50
 389.491087619 994.877767069 389.491087619 994.877767069 408.381535165 976.310233156 c 0,51,52
 470.491462842 920 470.491462842 920 600 920 c 0,53,54
 743.182407116 920 743.182407116 920 800.464920265 986.034008214 c 0,55,56
 811.235422304 998.096970497 811.235422304 998.096970497 812.93835223 1004.9086902 c 0,41,42
EndSplineSet
EndChar

StartChar: guillemotleft
Encoding: 171 171 108
Width: 1200
Flags: W
LayerCount: 2
Fore
SplineSet
1101 73 m 0,0,1
 1101 19.6627354762 1101 19.6627354762 1060.36241608 -16.7417667862 c 0,2,3
 1022.12066738 -51 1022.12066738 -51 973 -51 c 0,4,5
 937.570398761 -51 937.570398761 -51 908.413862324 -32.1590253233 c 128,-1,6
 879.257325886 -13.3180506466 879.257325886 -13.3180506466 863.268494953 18.6596112188 c 2,7,-1
 643.432604961 459.330645249 l 2,8,9
 624 496.807811959 624 496.807811959 624 525 c 128,-1,10
 624 553.192188041 624 553.192188041 643.432604961 590.669354751 c 2,11,-1
 863.268494953 1031.34038878 l 2,12,13
 879.257384499 1063.31816787 879.257384499 1063.31816787 908.414094258 1082.15908394 c 128,-1,14
 937.570804016 1101 937.570804016 1101 973 1101 c 0,15,16
 1022.12066738 1101 1022.12066738 1101 1060.36241608 1066.74176679 c 0,17,18
 1101 1030.33726452 1101 1030.33726452 1101 977 c 0,19,20
 1101 947.196601125 1101 947.196601125 1086.72135955 918.639320225 c 2,21,-1
 889.901699437 525 l 1,22,-1
 1086.72135955 131.360679775 l 2,23,24
 1101 102.803398875 1101 102.803398875 1101 73 c 0,0,1
576 73 m 0,25,26
 576 19.6627354762 576 19.6627354762 535.362416079 -16.7417667862 c 0,27,28
 497.120667375 -51 497.120667375 -51 448 -51 c 0,29,30
 412.570398761 -51 412.570398761 -51 383.413862324 -32.1590253233 c 128,-1,31
 354.257325886 -13.3180506466 354.257325886 -13.3180506466 338.268494953 18.6596112188 c 2,32,-1
 118.432604961 459.330645249 l 2,33,34
 99 496.807811959 99 496.807811959 99 525 c 128,-1,35
 99 553.192188041 99 553.192188041 118.432604961 590.669354751 c 2,36,-1
 338.268494953 1031.34038878 l 2,37,38
 354.257384499 1063.31816787 354.257384499 1063.31816787 383.414094258 1082.15908394 c 128,-1,39
 412.570804016 1101 412.570804016 1101 448 1101 c 0,40,41
 497.120667375 1101 497.120667375 1101 535.362416079 1066.74176679 c 0,42,43
 576 1030.33726452 576 1030.33726452 576 977 c 0,44,45
 576 947.196601125 576 947.196601125 561.72135955 918.639320225 c 2,46,-1
 364.901699437 525 l 1,47,-1
 561.72135955 131.360679775 l 2,48,49
 576 102.803398875 576 102.803398875 576 73 c 0,25,26
EndSplineSet
EndChar

StartChar: logicalnot
Encoding: 172 172 109
Width: 1200
Flags: W
LayerCount: 2
Fore
SplineSet
1075 75 m 2,0,1
 1075 20 1075 20 1040 -15 c 128,-1,2
 1005 -50 1005 -50 950 -50 c 128,-1,3
 895 -50 895 -50 860 -15 c 128,-1,4
 825 20 825 20 825 75 c 2,5,-1
 825 400 l 1,6,-1
 150 400 l 2,7,8
 95 400 95 400 60 435 c 128,-1,9
 25 470 25 470 25 525 c 128,-1,10
 25 580 25 580 60 615 c 128,-1,11
 95 650 95 650 150 650 c 2,12,-1
 950 650 l 2,13,14
 1000.71067812 650 1000.71067812 650 1037.85533906 612.855339059 c 128,-1,15
 1075 575.710678119 1075 575.710678119 1075 525 c 2,16,-1
 1075 75 l 2,0,1
EndSplineSet
EndChar

StartChar: registered
Encoding: 174 174 111
Width: 1200
Flags: W
LayerCount: 2
Fore
SplineSet
1175 750 m 128,-1,1
 1175 467.695587752 1175 467.695587752 1042.36930449 236.118182889 c 0,2,3
 961.965884726 96.2162325034 961.965884726 96.2162325034 850.20721017 23.1081162517 c 128,-1,4
 738.448535615 -50 738.448535615 -50 600 -50 c 128,-1,5
 461.55193366 -50 461.55193366 -50 349.792927488 23.1082849964 c 128,-1,6
 238.033921315 96.2165699928 238.033921315 96.2165699928 157.630695512 236.118182889 c 0,7,8
 25 467.695587752 25 467.695587752 25 750 c 128,-1,9
 25 1032.30441225 25 1032.30441225 157.630695512 1263.88181711 c 0,10,11
 238.034115274 1403.7837675 238.034115274 1403.7837675 349.79278983 1476.89188375 c 128,-1,12
 461.551464385 1550 461.551464385 1550 600 1550 c 128,-1,13
 738.44806634 1550 738.44806634 1550 850.207072512 1476.891715 c 128,-1,14
 961.966078685 1403.78343001 961.966078685 1403.78343001 1042.36930449 1263.88181711 c 0,15,0
 1175 1032.30441225 1175 1032.30441225 1175 750 c 128,-1,1
925 750 m 128,-1,17
 925 873.967987617 925 873.967987617 893.937161247 982.217274181 c 0,18,19
 857.813227876 1108.18791363 857.813227876 1108.18791363 783.524466554 1198.06814338 c 0,20,21
 698.581252701 1300 698.581252701 1300 600 1300 c 128,-1,22
 501.418747299 1300 501.418747299 1300 416.475533446 1198.06814338 c 0,23,24
 342.186770873 1108.18791212 342.186770873 1108.18791212 306.060395263 982.208756142 c 0,25,26
 275 873.96798477 275 873.96798477 275 750 c 128,-1,27
 275 626.032012383 275 626.032012383 306.062838753 517.782725819 c 0,28,29
 342.186772124 391.812086371 342.186772124 391.812086371 416.475533446 301.931856623 c 0,30,31
 501.418747299 200 501.418747299 200 600 200 c 128,-1,32
 698.581252701 200 698.581252701 200 783.524466554 301.931856623 c 0,33,34
 857.813229127 391.812087885 857.813229127 391.812087885 893.939604737 517.791243858 c 0,35,16
 925 626.03201523 925 626.03201523 925 750 c 128,-1,17
951 413 m 0,36,37
 951 362.603551968 951 362.603551968 913.7334383 324.526847622 c 0,38,39
 876.02631084 286 876.02631084 286 824 286 c 0,40,41
 774.289321881 286 774.289321881 286 736.644660941 323.644660941 c 2,42,-1
 575 485.289321881 l 1,43,-1
 575 413 l 2,44,45
 575 358 575 358 540 323 c 128,-1,46
 505 288 505 288 450 288 c 128,-1,47
 395 288 395 288 360 323 c 128,-1,48
 325 358 325 358 325 413 c 2,49,-1
 325 1088 l 2,50,51
 325 1137.38955797 325 1137.38955797 361.758298721 1174.96470777 c 0,52,53
 398.966736769 1213 398.966736769 1213 450 1213 c 2,54,-1
 638 1213 l 2,55,56
 766.805528893 1213 766.805528893 1213 858.469571891 1120.74073594 c 128,-1,57
 950 1028.61595441 950 1028.61595441 950 900 c 0,58,59
 950 791.629177519 950 791.629177519 882.730089724 706.499999029 c 0,60,61
 842.890283258 656.083252793 842.890283258 656.083252793 788.576900679 626.133777439 c 1,62,-1
 913.73141713 500.979260988 l 2,63,64
 951 462.09030495 951 462.09030495 951 413 c 0,36,37
700 900 m 0,65,66
 700 925.509196851 700 925.509196851 681.379838154 944.411482361 c 0,67,68
 663.068761077 963 663.068761077 963 638 963 c 2,69,-1
 575 963 l 1,70,-1
 575 838 l 1,71,-1
 638 838 l 2,72,73
 663.289321881 838 663.289321881 838 681.644660941 856.355339059 c 128,-1,74
 700 874.710678119 700 874.710678119 700 900 c 0,65,66
EndSplineSet
EndChar

StartChar: overscore
Encoding: 65540 -1 112
Width: 1200
Flags: W
LayerCount: 2
Fore
SplineSet
1175 1875 m 128,-1,1
 1175 1820 1175 1820 1140 1785 c 128,-1,2
 1105 1750 1105 1750 1050 1750 c 2,3,-1
 150 1750 l 2,4,5
 95 1750 95 1750 60 1785 c 128,-1,6
 25 1820 25 1820 25 1875 c 128,-1,7
 25 1930 25 1930 60 1965 c 128,-1,8
 95 2000 95 2000 150 2000 c 2,9,-1
 1050 2000 l 2,10,11
 1105 2000 1105 2000 1140 1965 c 128,-1,0
 1175 1930 1175 1930 1175 1875 c 128,-1,1
EndSplineSet
EndChar

StartChar: degree
Encoding: 176 176 113
Width: 1200
Flags: W
LayerCount: 2
Fore
SplineSet
1025 1125 m 128,-1,1
 1025 949.289321881 1025 949.289321881 900.355339059 824.644660941 c 128,-1,2
 775.710678119 700 775.710678119 700 600 700 c 128,-1,3
 424.289321881 700 424.289321881 700 299.644660941 824.644660941 c 128,-1,4
 175 949.289321881 175 949.289321881 175 1125 c 128,-1,5
 175 1300.71067812 175 1300.71067812 299.644660941 1425.35533906 c 128,-1,6
 424.289321881 1550 424.289321881 1550 600 1550 c 128,-1,7
 775.710678119 1550 775.710678119 1550 900.355339059 1425.35533906 c 128,-1,0
 1025 1300.71067812 1025 1300.71067812 1025 1125 c 128,-1,1
775 1125 m 128,-1,9
 775 1197.28932188 775 1197.28932188 723.644660941 1248.64466094 c 128,-1,10
 672.289321881 1300 672.289321881 1300 600 1300 c 128,-1,11
 527.710678119 1300 527.710678119 1300 476.355339059 1248.64466094 c 128,-1,12
 425 1197.28932188 425 1197.28932188 425 1125 c 128,-1,13
 425 1052.71067812 425 1052.71067812 476.355339059 1001.35533906 c 128,-1,14
 527.710678119 950 527.710678119 950 600 950 c 128,-1,15
 672.289321881 950 672.289321881 950 723.644660941 1001.35533906 c 128,-1,8
 775 1052.71067812 775 1052.71067812 775 1125 c 128,-1,9
EndSplineSet
EndChar

StartChar: plusminus
Encoding: 177 177 114
Width: 1200
Flags: W
LayerCount: 2
Fore
SplineSet
1175 825 m 128,-1,1
 1175 770 1175 770 1140 735 c 128,-1,2
 1105 700 1105 700 1050 700 c 2,3,-1
 725 700 l 1,4,-1
 725 375 l 2,5,6
 725 320 725 320 690 285 c 128,-1,7
 655 250 655 250 600 250 c 128,-1,8
 545 250 545 250 510 285 c 128,-1,9
 475 320 475 320 475 375 c 2,10,-1
 475 700 l 1,11,-1
 150 700 l 2,12,13
 95 700 95 700 60 735 c 128,-1,14
 25 770 25 770 25 825 c 128,-1,15
 25 880 25 880 60 915 c 128,-1,16
 95 950 95 950 150 950 c 2,17,-1
 475 950 l 1,18,-1
 475 1275 l 2,19,20
 475 1330 475 1330 510 1365 c 128,-1,21
 545 1400 545 1400 600 1400 c 128,-1,22
 655 1400 655 1400 690 1365 c 128,-1,23
 725 1330 725 1330 725 1275 c 2,24,-1
 725 950 l 1,25,-1
 1050 950 l 2,26,27
 1105 950 1105 950 1140 915 c 128,-1,0
 1175 880 1175 880 1175 825 c 128,-1,1
1175 75 m 128,-1,29
 1175 20 1175 20 1140 -15 c 128,-1,30
 1105 -50 1105 -50 1050 -50 c 2,31,-1
 150 -50 l 2,32,33
 95 -50 95 -50 60 -15 c 128,-1,34
 25 20 25 20 25 75 c 128,-1,35
 25 130 25 130 60 165 c 128,-1,36
 95 200 95 200 150 200 c 2,37,-1
 1050 200 l 2,38,39
 1105 200 1105 200 1140 165 c 128,-1,28
 1175 130 1175 130 1175 75 c 128,-1,29
EndSplineSet
EndChar

StartChar: twosuperior
Encoding: 178 178 115
Width: 1200
Flags: W
LayerCount: 2
Fore
SplineSet
1006 637 m 128,-1,1
 1006 582 1006 582 971 547 c 128,-1,2
 936 512 936 512 881 512 c 2,3,-1
 319 512 l 2,4,5
 262 512 262 512 222 542.5 c 128,-1,6
 182 573 182 573 182 629 c 0,7,8
 182 687.771703608 182 687.771703608 243.436430082 737.778100186 c 0,9,10
 247.878164475 741.39346539 247.878164475 741.39346539 253.022356801 743.910836102 c 0,11,12
 299.425841398 766.61892431 299.425841398 766.61892431 386.531927864 812.151651326 c 0,13,14
 574.343162358 913.645601279 574.343162358 913.645601279 665.171581179 1004.25814816 c 128,-1,15
 756 1094.87069505 756 1094.87069505 756 1162 c 0,16,17
 756 1219.91368322 756 1219.91368322 710.341781451 1260.13865028 c 0,18,19
 663.186016867 1300 663.186016867 1300 600 1300 c 128,-1,20
 536.813983133 1300 536.813983133 1300 489.658218549 1260.13865028 c 0,21,22
 444 1219.91368322 444 1219.91368322 444 1162 c 0,23,24
 444 1107 444 1107 409 1072 c 128,-1,25
 374 1037 374 1037 319 1037 c 128,-1,26
 264 1037 264 1037 229 1072 c 128,-1,27
 194 1107 194 1107 194 1162 c 0,28,29
 194 1326.85691466 194 1326.85691466 317.15211244 1440.80139252 c 0,30,31
 436.588089366 1550 436.588089366 1550 600 1550 c 128,-1,32
 763.411910634 1550 763.411910634 1550 882.84788756 1440.80139252 c 0,33,34
 1006 1326.85691466 1006 1326.85691466 1006 1162 c 0,35,36
 1006 986.967056963 1006 986.967056963 850.494189651 853.998320578 c 0,37,38
 848.420804319 852.225425874 848.420804319 852.225425874 846.166841232 850.68863286 c 0,39,40
 781.395378887 806.52627217 781.395378887 806.52627217 716.717038407 762.504170701 c 1,41,-1
 881.076686936 762 l 2,42,43
 936.134017555 762 936.134017555 762 971.067008778 727.066994449 c 128,-1,0
 1006 692.133988897 1006 692.133988897 1006 637 c 128,-1,1
EndSplineSet
EndChar

StartChar: threesuperior
Encoding: 179 179 116
Width: 1200
Flags: W
LayerCount: 2
Fore
SplineSet
1024 1435 m 0,0,1
 1024 1376.07236933 1024 1376.07236933 970.527834726 1330.02689368 c 2,2,-1
 756.095655343 1147.30651547 l 1,3,4
 845.426333417 1109.43633284 845.426333417 1109.43633284 912.349851929 1034.24136822 c 0,5,6
 1014 920.027718698 1014 920.027718698 1014 769 c 0,7,8
 1014 593.097766943 1014 593.097766943 881.791938923 471.147227847 c 0,9,10
 754.368281189 355 754.368281189 355 579 355 c 0,11,12
 469.740651908 355 469.740651908 355 367.073615641 408.565410226 c 0,13,14
 255.909172292 465.281962955 255.909172292 465.281962955 204.283572168 560.72376134 c 0,15,16
 185 595.461788484 185 595.461788484 185 626 c 0,17,18
 185 677.995085817 185 677.995085817 225.213768574 714.85770701 c 0,19,20
 263.550815472 750 263.550815472 750 314 750 c 0,21,22
 324.918100224 750 324.918100224 750 334.689663691 748.167067033 c 128,-1,23
 344.461227158 746.334134065 344.461227158 746.334134065 355.232747089 740.190132162 c 128,-1,24
 366.004267021 734.046130258 366.004267021 734.046130258 372.213440492 730.731369957 c 128,-1,25
 378.422613963 727.416609655 378.422613963 727.416609655 390.739593601 715.784632377 c 128,-1,26
 403.056573239 704.1526551 403.056573239 704.1526551 406.827152753 700.589982167 c 128,-1,27
 410.597732267 697.027309235 410.597732267 697.027309235 425.583967651 681.141271287 c 128,-1,28
 440.570203035 665.255233339 440.570203035 665.255233339 443.594228592 662.100674305 c 0,29,30
 498.332116374 605 498.332116374 605 579 605 c 0,31,32
 653.470856237 605 653.470856237 605 710.416463828 653.925099479 c 0,33,34
 764 699.961658726 764 699.961658726 764 769 c 0,35,36
 764 837.10538525 764 837.10538525 708.41898951 885.072558686 c 0,37,38
 653.537744584 932 653.537744584 932 579 932 c 0,39,40
 524.573029969 932 524.573029969 932 469.363983828 896.829792828 c 0,41,42
 464.0294536 893.431499498 464.0294536 893.431499498 448.480705991 883.331665351 c 128,-1,43
 432.931958382 873.231831204 432.931958382 873.231831204 428.086568243 870.306711487 c 128,-1,44
 423.241178105 867.38159177 423.241178105 867.38159177 411.420440745 860.872186336 c 128,-1,45
 399.599703385 854.362780903 399.599703385 854.362780903 392.932259793 852.311127053 c 128,-1,46
 386.2648162 850.259473204 386.2648162 850.259473204 376.446824471 848.129736602 c 128,-1,47
 366.628832742 846 366.628832742 846 357 846 c 0,48,49
 305.959471211 846 305.959471211 846 269.249666549 883.544118404 c 0,50,51
 233 920.617641011 233 920.617641011 233 971 c 0,52,53
 233 1027.91099903 233 1027.91099903 279.423350153 1067.93112847 c 2,54,-1
 550.65384375 1300 l 1,55,-1
 311 1300 l 2,56,57
 256 1300 256 1300 221 1335 c 128,-1,58
 186 1370 186 1370 186 1425 c 128,-1,59
 186 1480 186 1480 221 1515 c 128,-1,60
 256 1550 256 1550 311 1550 c 2,61,-1
 889 1550 l 2,62,63
 967.484537515 1550 967.484537515 1550 1002.26247252 1504.33707313 c 0,64,65
 1024 1475.79601319 1024 1475.79601319 1024 1435 c 0,0,1
EndSplineSet
EndChar

StartChar: acute
Encoding: 180 180 117
Width: 1200
Flags: W
LayerCount: 2
Fore
SplineSet
876 1423 m 0,0,1
 876 1387.57715827 876 1387.57715827 857.156879781 1358.41616931 c 128,-1,2
 838.313759562 1329.25518034 838.313759562 1329.25518034 806.360679775 1313.27864045 c 2,3,-1
 506.360679775 1163.27864045 l 2,4,5
 477.803398875 1149 477.803398875 1149 448 1149 c 0,6,7
 394.662735476 1149 394.662735476 1149 358.258233214 1189.63758392 c 0,8,9
 324 1227.87933262 324 1227.87933262 324 1277 c 0,10,11
 324 1312.42284173 324 1312.42284173 342.843120219 1341.58383069 c 128,-1,12
 361.686240438 1370.74481966 361.686240438 1370.74481966 393.639320225 1386.72135955 c 2,13,-1
 693.639320225 1536.72135955 l 2,14,15
 722.196601125 1551 722.196601125 1551 752 1551 c 0,16,17
 805.337264524 1551 805.337264524 1551 841.741766786 1510.36241608 c 0,18,19
 876 1472.12066738 876 1472.12066738 876 1423 c 0,0,1
EndSplineSet
EndChar

StartChar: mu1
Encoding: 181 181 118
Width: 1200
Flags: W
LayerCount: 2
Fore
SplineSet
1075 75 m 2,0,1
 1075 20 1075 20 1040 -15 c 128,-1,2
 1005 -50 1005 -50 950 -50 c 0,3,4
 914.953951189 -50 914.953951189 -50 885.706912498 -32.9088093946 c 128,-1,5
 856.459873807 -15.8176187891 856.459873807 -15.8176187891 841.167982064 15.2793154265 c 1,6,7
 731.93823645 -50 731.93823645 -50 600 -50 c 0,8,9
 477.695183214 -50 477.695183214 -50 375 6.02415259479 c 1,10,-1
 375 -375 l 2,11,12
 375 -430 375 -430 340 -465 c 128,-1,13
 305 -500 305 -500 250 -500 c 128,-1,14
 195 -500 195 -500 160 -465 c 128,-1,15
 125 -430 125 -430 125 -375 c 2,16,-1
 125 975 l 2,17,18
 125 1030 125 1030 160 1065 c 128,-1,19
 195 1100 195 1100 250 1100 c 128,-1,20
 305 1100 305 1100 340 1065 c 128,-1,21
 375 1030 375 1030 375 975 c 2,22,-1
 375 425 l 2,23,24
 375 331.710678119 375 331.710678119 440.855339059 265.855339059 c 128,-1,25
 506.710678119 200 506.710678119 200 600 200 c 0,26,27
 692.379942574 200 692.379942574 200 758.75428911 265.964628348 c 128,-1,28
 825 331.801415097 825 331.801415097 825 424 c 2,29,-1
 825 975 l 2,30,31
 825 1030 825 1030 860 1065 c 128,-1,32
 895 1100 895 1100 950 1100 c 128,-1,33
 1005 1100 1005 1100 1040 1065 c 128,-1,34
 1075 1030 1075 1030 1075 975 c 2,35,-1
 1075 75 l 2,0,1
EndSplineSet
EndChar

StartChar: paragraph
Encoding: 182 182 119
Width: 1200
Flags: W
LayerCount: 2
Fore
SplineSet
1125 75 m 2,0,1
 1125 20 1125 20 1090 -15 c 128,-1,2
 1055 -50 1055 -50 1000 -50 c 128,-1,3
 945 -50 945 -50 910 -15 c 128,-1,4
 875 20 875 20 875 75 c 2,5,-1
 875 1300 l 1,6,-1
 675 1300 l 1,7,-1
 675 75 l 2,8,9
 675 20 675 20 640 -15 c 128,-1,10
 605 -50 605 -50 550 -50 c 128,-1,11
 495 -50 495 -50 460 -15 c 128,-1,12
 425 20 425 20 425 75 c 2,13,-1
 425 700.65369331 l 1,14,15
 264.905391259 709.383930623 264.905391259 709.383930623 149.644660941 824.644660941 c 0,16,17
 25 949.289321881 25 949.289321881 25 1125 c 128,-1,18
 25 1300.71067812 25 1300.71067812 149.644660941 1425.35533906 c 128,-1,19
 274.289321881 1550 274.289321881 1550 450 1550 c 2,20,-1
 1000 1550 l 2,21,22
 1050.71067812 1550 1050.71067812 1550 1087.85533906 1512.85533906 c 128,-1,23
 1125 1475.71067812 1125 1475.71067812 1125 1425 c 2,24,-1
 1125 75 l 2,0,1
425 951.567895592 m 1,25,-1
 425 1298.43210441 l 1,26,27
 368.843232208 1291.13255409 368.843232208 1291.13255409 326.355339059 1248.64466094 c 0,28,29
 275 1197.28932188 275 1197.28932188 275 1125 c 128,-1,30
 275 1052.71067812 275 1052.71067812 326.355339059 1001.35533906 c 0,31,32
 368.843232208 958.867445911 368.843232208 958.867445911 425 951.567895592 c 1,25,-1
EndSplineSet
EndChar

StartChar: middot
Encoding: 183 183 120
Width: 1200
Flags: W
LayerCount: 2
Fore
SplineSet
764 638 m 0,0,1
 764 570.289321881 764 570.289321881 715.855339059 522.144660941 c 128,-1,2
 667.710678119 474 667.710678119 474 600 474 c 128,-1,3
 532.289321881 474 532.289321881 474 484.144660941 522.144660941 c 128,-1,4
 436 570.289321881 436 570.289321881 436 638 c 0,5,6
 436 705.155827045 436 705.155827045 484.684343954 752.386907001 c 0,7,8
 532.731685969 799 532.731685969 799 600 799 c 128,-1,9
 667.268314031 799 667.268314031 799 715.315656046 752.386907001 c 0,10,11
 764 705.155827045 764 705.155827045 764 638 c 0,0,1
EndSplineSet
EndChar

StartChar: cedilla
Encoding: 184 184 121
Width: 1200
Flags: W
LayerCount: 2
Fore
SplineSet
935 -150 m 128,-1,1
 935 -294.710678119 935 -294.710678119 832.355339059 -397.355339059 c 128,-1,2
 729.710678119 -500 729.710678119 -500 585 -500 c 0,3,4
 493.7618347 -500 493.7618347 -500 410.413635133 -452.537830802 c 0,5,6
 322.433451828 -403.268928151 322.433451828 -403.268928151 280.625245997 -322.041556822 c 0,7,8
 264 -290.302450828 264 -290.302450828 264 -260 c 0,9,10
 264 -208.004914183 264 -208.004914183 304.213768574 -171.14229299 c 0,11,12
 342.550815472 -136 342.550815472 -136 392 -136 c 0,13,14
 425.544822461 -136 425.544822461 -136 451.553798552 -155.178702605 c 128,-1,15
 477.562774642 -174.35740521 477.562774642 -174.35740521 508.245559906 -210.793212711 c 0,16,17
 541.261801834 -250 541.261801834 -250 585 -250 c 0,18,19
 626.289321881 -250 626.289321881 -250 655.644660941 -220.644660941 c 128,-1,20
 685 -191.289321881 685 -191.289321881 685 -150 c 128,-1,21
 685 -108.710678119 685 -108.710678119 655.644660941 -79.3553390593 c 128,-1,22
 626.289321881 -50 626.289321881 -50 585 -50 c 0,23,24
 530 -50 530 -50 495 -15 c 128,-1,25
 460 20 460 20 460 75 c 128,-1,26
 460 130 460 130 495 165 c 128,-1,27
 530 200 530 200 585 200 c 0,28,29
 729.710678119 200 729.710678119 200 832.355339059 97.3553390593 c 128,-1,0
 935 -5.28932188135 935 -5.28932188135 935 -150 c 128,-1,1
EndSplineSet
EndChar

StartChar: onesuperior
Encoding: 185 185 122
Width: 1200
Flags: W
LayerCount: 2
Fore
SplineSet
913 637 m 0,0,1
 913 582 913 582 878 547 c 128,-1,2
 843 512 843 512 788 512 c 2,3,-1
 488 512 l 2,4,5
 433 512 433 512 398 547 c 128,-1,6
 363 582 363 582 363 637 c 0,7,8
 363 680.029985592 363 680.029985592 387.123813907 712.852147295 c 128,-1,9
 411.247627814 745.674308997 411.247627814 745.674308997 451.64967994 756.195979294 c 0,10,11
 469.788961125 761.049298675 469.788961125 761.049298675 513 762.376419033 c 1,12,-1
 513 1137.27875407 l 1,13,-1
 497.87575993 1123.22390471 l 2,14,15
 460.392435726 1089 460.392435726 1089 413 1089 c 0,16,17
 360.97368916 1089 360.97368916 1089 323.2665617 1127.52684762 c 0,18,19
 286 1165.60355197 286 1165.60355197 286 1216 c 0,20,21
 286 1267.3108938 286 1267.3108938 326.656983129 1306.34159761 c 2,22,-1
 541.855310861 1506.52608852 l 2,23,24
 589.198506951 1551 589.198506951 1551 637 1551 c 0,25,26
 696 1551 696 1551 729.5 1511 c 128,-1,27
 763 1471 763 1471 763 1411 c 2,28,-1
 763 762.963205484 l 1,29,30
 827.164573824 761.87043067 827.164573824 761.87043067 870.082286912 729.41734564 c 128,-1,31
 913 696.964260611 913 696.964260611 913 637 c 0,0,1
EndSplineSet
EndChar

StartChar: ordmasculine
Encoding: 186 186 123
Width: 1200
Flags: W
LayerCount: 2
Fore
SplineSet
1063 1110 m 128,-1,1
 1063 922.929031335 1063 922.929031335 921.746300326 794.105657232 c 0,2,3
 786.459953252 670 786.459953252 670 600 670 c 128,-1,4
 413.540046748 670 413.540046748 670 278.179999554 794.173266433 c 0,5,6
 138 923.048427314 138 923.048427314 138 1110 c 128,-1,7
 138 1296.95157269 138 1296.95157269 278.179999554 1425.82673357 c 0,8,9
 413.540046748 1550 413.540046748 1550 600 1550 c 128,-1,10
 786.459953252 1550 786.459953252 1550 921.746300326 1425.89434277 c 0,11,0
 1063 1297.07096866 1063 1297.07096866 1063 1110 c 128,-1,1
1062 525 m 128,-1,13
 1062 470 1062 470 1027.5 435 c 128,-1,14
 993 400 993 400 938 400 c 2,15,-1
 263 400 l 2,16,17
 208 400 208 400 173 435 c 128,-1,18
 138 470 138 470 138 525 c 128,-1,19
 138 580 138 580 173 615 c 128,-1,20
 208 650 208 650 263 650 c 2,21,-1
 938 650 l 2,22,23
 993 650 993 650 1027.5 615 c 128,-1,12
 1062 580 1062 580 1062 525 c 128,-1,13
813 1110 m 128,-1,25
 813 1190.12588884 813 1190.12588884 749.363553021 1245.12034919 c 0,26,27
 685.473810288 1300 685.473810288 1300 600 1300 c 0,28,29
 514.94409169 1300 514.94409169 1300 450.749081808 1245.21794896 c 0,30,31
 388 1189.91840754 388 1189.91840754 388 1110 c 0,32,33
 388 1029.82416611 388 1029.82416611 449.755628465 976.276564215 c 0,34,35
 514.65852734 920 514.65852734 920 600 920 c 128,-1,36
 685.430321672 920 685.430321672 920 750.862445118 976.378622089 c 0,37,24
 813 1029.91852787 813 1029.91852787 813 1110 c 128,-1,25
EndSplineSet
EndChar

StartChar: guillemotright
Encoding: 187 187 124
Width: 1200
Flags: W
LayerCount: 2
Fore
SplineSet
1101 525 m 128,-1,1
 1101 496.807811959 1101 496.807811959 1081.56739504 459.330645249 c 2,2,-1
 861.731505047 18.6596112188 l 2,3,4
 845.742615501 -13.3181678737 845.742615501 -13.3181678737 816.585905742 -32.1590839368 c 128,-1,5
 787.429195984 -51 787.429195984 -51 752 -51 c 0,6,7
 702.879332625 -51 702.879332625 -51 664.637583921 -16.7417667862 c 0,8,9
 624 19.6627354762 624 19.6627354762 624 73 c 0,10,11
 624 102.803398875 624 102.803398875 638.27864045 131.360679775 c 2,12,-1
 835.098300563 525 l 1,13,-1
 638.27864045 918.639320225 l 2,14,15
 624 947.196601125 624 947.196601125 624 977 c 0,16,17
 624 1030.33726452 624 1030.33726452 664.637583921 1066.74176679 c 0,18,19
 702.879332625 1101 702.879332625 1101 752 1101 c 0,20,21
 787.429601239 1101 787.429601239 1101 816.586137676 1082.15902532 c 128,-1,22
 845.742674114 1063.31805065 845.742674114 1063.31805065 861.731505047 1031.34038878 c 2,23,-1
 1081.56739504 590.669354751 l 2,24,0
 1101 553.192188041 1101 553.192188041 1101 525 c 128,-1,1
576 525 m 128,-1,26
 576 496.807811959 576 496.807811959 556.567395039 459.330645249 c 2,27,-1
 336.731505047 18.6596112188 l 2,28,29
 320.742615501 -13.3181678737 320.742615501 -13.3181678737 291.585905742 -32.1590839368 c 128,-1,30
 262.429195984 -51 262.429195984 -51 227 -51 c 0,31,32
 177.879332625 -51 177.879332625 -51 139.637583921 -16.7417667862 c 0,33,34
 99 19.6627354762 99 19.6627354762 99 73 c 0,35,36
 99 102.803398875 99 102.803398875 113.27864045 131.360679775 c 2,37,-1
 310.098300563 525 l 1,38,-1
 113.27864045 918.639320225 l 2,39,40
 99 947.196601125 99 947.196601125 99 977 c 0,41,42
 99 1030.33726452 99 1030.33726452 139.637583921 1066.74176679 c 0,43,44
 177.879332625 1101 177.879332625 1101 227 1101 c 0,45,46
 262.429601239 1101 262.429601239 1101 291.586137676 1082.15902532 c 128,-1,47
 320.742674114 1063.31805065 320.742674114 1063.31805065 336.731505047 1031.34038878 c 2,48,-1
 556.567395039 590.669354751 l 2,49,25
 576 553.192188041 576 553.192188041 576 525 c 128,-1,26
EndSplineSet
EndChar

StartChar: onequarter
Encoding: 188 188 125
Width: 1200
Flags: W
LayerCount: 2
Fore
SplineSet
556 937 m 0,0,1
 556 882 556 882 521 847 c 128,-1,2
 486 812 486 812 431 812 c 2,3,-1
 206 812 l 2,4,5
 151 812 151 812 116 847 c 128,-1,6
 81 882 81 882 81 937 c 0,7,8
 81 985.832926435 81 985.832926435 112.905294905 1018.09866716 c 128,-1,9
 144.81058981 1050.36440789 144.81058981 1050.36440789 194 1059.09468178 c 1,10,-1
 194 1399.36671475 l 1,11,12
 172.448938375 1389 172.448938375 1389 152 1389 c 0,13,14
 100.923117844 1389 100.923117844 1389 62.9214250437 1425.38459949 c 0,15,16
 44.4813235762 1443.04001579 44.4813235762 1443.04001579 34.2406617881 1466.3554881 c 128,-1,17
 24 1489.67096041 24 1489.67096041 24 1515 c 0,18,19
 24 1557.84816891 24 1557.84816891 53.1281738656 1593.4492703 c 2,20,-1
 212.907602356 1793.17355591 l 2,21,22
 258.872211759 1851 258.872211759 1851 317 1851 c 0,23,24
 376 1851 376 1851 410 1811.5 c 128,-1,25
 444 1772 444 1772 444 1712 c 2,26,-1
 444 1059.03039631 l 1,27,28
 493.6719748 1050.07356169 493.6719748 1050.07356169 524.8359874 1017.74644052 c 128,-1,29
 556 985.419319337 556 985.419319337 556 937 c 0,0,1
1176 1426 m 0,30,31
 1176 1388.86121811 1176 1388.86121811 1153.60251472 1355.26499019 c 2,32,-1
 253.508816429 5.12444275665 l 2,33,34
 215.542281623 -51 215.542281623 -51 152 -51 c 0,35,36
 102.227626002 -51 102.227626002 -51 63.8029435559 -14.976860207 c 0,37,38
 24 22.3383993767 24 22.3383993767 24 74 c 0,39,40
 24 111.138781887 24 111.138781887 46.3974852831 144.735009811 c 2,41,-1
 946.491183571 1494.87555724 l 2,42,43
 984.457718377 1551 984.457718377 1551 1048 1551 c 0,44,45
 1097.772374 1551 1097.772374 1551 1136.19705644 1514.97686021 c 0,46,47
 1176 1477.66160062 1176 1477.66160062 1176 1426 c 0,30,31
1175 -60 m 0,48,49
 1175 -106.135830912 1175 -106.135830912 1147.40998034 -139.181306743 c 128,-1,50
 1119.81996068 -172.226782574 1119.81996068 -172.226782574 1074.11415326 -181.967364483 c 0,51,52
 1062.11780571 -184.366633994 1062.11780571 -184.366633994 1006 -184.828984608 c 1,53,-1
 1006 -375 l 2,54,55
 1006 -430 1006 -430 971 -465 c 128,-1,56
 936 -500 936 -500 881 -500 c 128,-1,57
 826 -500 826 -500 791 -465 c 128,-1,58
 756 -430 756 -430 756 -375 c 2,59,-1
 756 -185 l 1,60,-1
 544 -185 l 2,61,62
 472.787470415 -185 472.787470415 -185 438.846487128 -143.5052927 c 0,63,64
 415 -114.351658724 415 -114.351658724 415 -71 c 0,65,66
 415 -36.328122585 415 -36.328122585 433.973122112 -1.30082022433 c 2,67,-1
 770.943861657 628.644479223 l 2,68,69
 789.987872751 664.011928396 789.987872751 664.011928396 820.149660496 685.505964198 c 128,-1,70
 850.311448242 707 850.311448242 707 888 707 c 0,71,72
 944 707 944 707 975 667.5 c 128,-1,73
 1006 628 1006 628 1006 570 c 2,74,-1
 1006 66.7965583231 l 1,75,76
 1013.08915997 67 1013.08915997 67 1018 67 c 0,77,78
 1085 67 1085 67 1130 34.5 c 128,-1,79
 1175 2 1175 2 1175 -60 c 0,48,49
756 65 m 1,80,-1
 756 71.6010097997 l 1,81,-1
 752.467428349 65 l 1,82,-1
 756 65 l 1,80,-1
EndSplineSet
EndChar

